G04 #@! TF.GenerationSoftware,KiCad,Pcbnew,(5.1.0-0)*
G04 #@! TF.CreationDate,2019-04-20T13:38:53+09:00*
G04 #@! TF.ProjectId,FreeDSP_SMD_AB,46726565-4453-4505-9f53-4d445f41422e,rev?*
G04 #@! TF.SameCoordinates,Original*
G04 #@! TF.FileFunction,Soldermask,Bot*
G04 #@! TF.FilePolarity,Negative*
%FSLAX46Y46*%
G04 Gerber Fmt 4.6, Leading zero omitted, Abs format (unit mm)*
G04 Created by KiCad (PCBNEW (5.1.0-0)) date 2019-04-20 13:38:53*
%MOMM*%
%LPD*%
G04 APERTURE LIST*
%ADD10C,0.100000*%
G04 APERTURE END LIST*
D10*
G36*
X120850574Y-114682817D02*
G01*
X121451136Y-114931578D01*
X121758974Y-115137269D01*
X121991630Y-115292725D01*
X122451275Y-115752370D01*
X122451277Y-115752373D01*
X122812422Y-116292864D01*
X123061183Y-116893426D01*
X123188000Y-117530978D01*
X123188000Y-118181022D01*
X123061183Y-118818574D01*
X122812422Y-119419136D01*
X122512751Y-119867625D01*
X122451275Y-119959630D01*
X121991630Y-120419275D01*
X121991627Y-120419277D01*
X121451136Y-120780422D01*
X120850574Y-121029183D01*
X120213022Y-121156000D01*
X119562978Y-121156000D01*
X118925426Y-121029183D01*
X118324864Y-120780422D01*
X117784373Y-120419277D01*
X117784370Y-120419275D01*
X117324725Y-119959630D01*
X117263249Y-119867625D01*
X116963578Y-119419136D01*
X116714817Y-118818574D01*
X116588000Y-118181022D01*
X116588000Y-117530978D01*
X116714817Y-116893426D01*
X116963578Y-116292864D01*
X117324723Y-115752373D01*
X117324725Y-115752370D01*
X117784370Y-115292725D01*
X118017026Y-115137269D01*
X118324864Y-114931578D01*
X118925426Y-114682817D01*
X119562978Y-114556000D01*
X120213022Y-114556000D01*
X120850574Y-114682817D01*
X120850574Y-114682817D01*
G37*
G36*
X28648574Y-114682817D02*
G01*
X29249136Y-114931578D01*
X29556974Y-115137269D01*
X29789630Y-115292725D01*
X30249275Y-115752370D01*
X30249277Y-115752373D01*
X30610422Y-116292864D01*
X30859183Y-116893426D01*
X30986000Y-117530978D01*
X30986000Y-118181022D01*
X30859183Y-118818574D01*
X30610422Y-119419136D01*
X30310751Y-119867625D01*
X30249275Y-119959630D01*
X29789630Y-120419275D01*
X29789627Y-120419277D01*
X29249136Y-120780422D01*
X28648574Y-121029183D01*
X28011022Y-121156000D01*
X27360978Y-121156000D01*
X26723426Y-121029183D01*
X26122864Y-120780422D01*
X25582373Y-120419277D01*
X25582370Y-120419275D01*
X25122725Y-119959630D01*
X25061249Y-119867625D01*
X24761578Y-119419136D01*
X24512817Y-118818574D01*
X24386000Y-118181022D01*
X24386000Y-117530978D01*
X24512817Y-116893426D01*
X24761578Y-116292864D01*
X25122723Y-115752373D01*
X25122725Y-115752370D01*
X25582370Y-115292725D01*
X25815026Y-115137269D01*
X26122864Y-114931578D01*
X26723426Y-114682817D01*
X27360978Y-114556000D01*
X28011022Y-114556000D01*
X28648574Y-114682817D01*
X28648574Y-114682817D01*
G37*
G36*
X45146000Y-119822000D02*
G01*
X43246000Y-119822000D01*
X43246000Y-117922000D01*
X45146000Y-117922000D01*
X45146000Y-119822000D01*
X45146000Y-119822000D01*
G37*
G36*
X46922232Y-117935746D02*
G01*
X47101308Y-117990068D01*
X47266345Y-118078282D01*
X47411001Y-118196999D01*
X47529718Y-118341655D01*
X47617932Y-118506692D01*
X47672254Y-118685768D01*
X47690596Y-118872000D01*
X47672254Y-119058232D01*
X47617932Y-119237308D01*
X47529718Y-119402345D01*
X47411001Y-119547001D01*
X47266345Y-119665718D01*
X47101308Y-119753932D01*
X46922232Y-119808254D01*
X46782665Y-119822000D01*
X46689335Y-119822000D01*
X46549768Y-119808254D01*
X46370692Y-119753932D01*
X46205655Y-119665718D01*
X46060999Y-119547001D01*
X45942282Y-119402345D01*
X45854068Y-119237308D01*
X45799746Y-119058232D01*
X45781404Y-118872000D01*
X45799746Y-118685768D01*
X45854068Y-118506692D01*
X45942282Y-118341655D01*
X46060999Y-118196999D01*
X46205655Y-118078282D01*
X46370692Y-117990068D01*
X46549768Y-117935746D01*
X46689335Y-117922000D01*
X46782665Y-117922000D01*
X46922232Y-117935746D01*
X46922232Y-117935746D01*
G37*
G36*
X112891000Y-119742000D02*
G01*
X110791000Y-119742000D01*
X110791000Y-117642000D01*
X112891000Y-117642000D01*
X112891000Y-119742000D01*
X112891000Y-119742000D01*
G37*
G36*
X109647274Y-117682350D02*
G01*
X109838362Y-117761502D01*
X109906087Y-117806754D01*
X110010340Y-117876414D01*
X110156586Y-118022660D01*
X110156588Y-118022663D01*
X110156589Y-118022664D01*
X110271498Y-118194638D01*
X110350650Y-118385726D01*
X110391000Y-118588584D01*
X110391000Y-118795416D01*
X110350650Y-118998274D01*
X110281721Y-119164681D01*
X110271498Y-119189362D01*
X110156586Y-119361340D01*
X110010340Y-119507586D01*
X110010337Y-119507588D01*
X110010336Y-119507589D01*
X109838362Y-119622498D01*
X109647274Y-119701650D01*
X109444416Y-119742000D01*
X109237584Y-119742000D01*
X109034726Y-119701650D01*
X108843638Y-119622498D01*
X108671664Y-119507589D01*
X108671663Y-119507588D01*
X108671660Y-119507586D01*
X108525414Y-119361340D01*
X108410502Y-119189362D01*
X108400279Y-119164681D01*
X108331350Y-118998274D01*
X108291000Y-118795416D01*
X108291000Y-118588584D01*
X108331350Y-118385726D01*
X108410502Y-118194638D01*
X108525411Y-118022664D01*
X108525412Y-118022663D01*
X108525414Y-118022660D01*
X108671660Y-117876414D01*
X108775914Y-117806754D01*
X108843638Y-117761502D01*
X109034726Y-117682350D01*
X109237584Y-117642000D01*
X109444416Y-117642000D01*
X109647274Y-117682350D01*
X109647274Y-117682350D01*
G37*
G36*
X107147274Y-117682350D02*
G01*
X107338362Y-117761502D01*
X107406087Y-117806754D01*
X107510340Y-117876414D01*
X107656586Y-118022660D01*
X107656588Y-118022663D01*
X107656589Y-118022664D01*
X107771498Y-118194638D01*
X107850650Y-118385726D01*
X107891000Y-118588584D01*
X107891000Y-118795416D01*
X107850650Y-118998274D01*
X107781721Y-119164681D01*
X107771498Y-119189362D01*
X107656586Y-119361340D01*
X107510340Y-119507586D01*
X107510337Y-119507588D01*
X107510336Y-119507589D01*
X107338362Y-119622498D01*
X107147274Y-119701650D01*
X106944416Y-119742000D01*
X106737584Y-119742000D01*
X106534726Y-119701650D01*
X106343638Y-119622498D01*
X106171664Y-119507589D01*
X106171663Y-119507588D01*
X106171660Y-119507586D01*
X106025414Y-119361340D01*
X105910502Y-119189362D01*
X105900279Y-119164681D01*
X105831350Y-118998274D01*
X105791000Y-118795416D01*
X105791000Y-118588584D01*
X105831350Y-118385726D01*
X105910502Y-118194638D01*
X106025411Y-118022664D01*
X106025412Y-118022663D01*
X106025414Y-118022660D01*
X106171660Y-117876414D01*
X106275914Y-117806754D01*
X106343638Y-117761502D01*
X106534726Y-117682350D01*
X106737584Y-117642000D01*
X106944416Y-117642000D01*
X107147274Y-117682350D01*
X107147274Y-117682350D01*
G37*
G36*
X93179926Y-116422339D02*
G01*
X93241106Y-116434508D01*
X93413995Y-116506121D01*
X93569591Y-116610087D01*
X93701913Y-116742409D01*
X93805879Y-116898005D01*
X93877492Y-117070894D01*
X93877492Y-117070895D01*
X93914000Y-117254433D01*
X93914000Y-117441567D01*
X93897205Y-117526000D01*
X93877492Y-117625106D01*
X93805879Y-117797995D01*
X93701913Y-117953591D01*
X93569591Y-118085913D01*
X93413995Y-118189879D01*
X93241106Y-118261492D01*
X93179926Y-118273661D01*
X93057567Y-118298000D01*
X92870433Y-118298000D01*
X92748074Y-118273661D01*
X92686894Y-118261492D01*
X92514005Y-118189879D01*
X92358409Y-118085913D01*
X92226087Y-117953591D01*
X92122121Y-117797995D01*
X92050508Y-117625106D01*
X92030795Y-117526000D01*
X92014000Y-117441567D01*
X92014000Y-117254433D01*
X92050508Y-117070895D01*
X92050508Y-117070894D01*
X92122121Y-116898005D01*
X92226087Y-116742409D01*
X92358409Y-116610087D01*
X92514005Y-116506121D01*
X92686894Y-116434508D01*
X92748074Y-116422339D01*
X92870433Y-116398000D01*
X93057567Y-116398000D01*
X93179926Y-116422339D01*
X93179926Y-116422339D01*
G37*
G36*
X85559926Y-116422339D02*
G01*
X85621106Y-116434508D01*
X85793995Y-116506121D01*
X85949591Y-116610087D01*
X86081913Y-116742409D01*
X86185879Y-116898005D01*
X86257492Y-117070894D01*
X86257492Y-117070895D01*
X86294000Y-117254433D01*
X86294000Y-117441567D01*
X86277205Y-117526000D01*
X86257492Y-117625106D01*
X86185879Y-117797995D01*
X86081913Y-117953591D01*
X85949591Y-118085913D01*
X85793995Y-118189879D01*
X85621106Y-118261492D01*
X85559926Y-118273661D01*
X85437567Y-118298000D01*
X85250433Y-118298000D01*
X85128074Y-118273661D01*
X85066894Y-118261492D01*
X84894005Y-118189879D01*
X84738409Y-118085913D01*
X84606087Y-117953591D01*
X84502121Y-117797995D01*
X84430508Y-117625106D01*
X84410795Y-117526000D01*
X84394000Y-117441567D01*
X84394000Y-117254433D01*
X84430508Y-117070895D01*
X84430508Y-117070894D01*
X84502121Y-116898005D01*
X84606087Y-116742409D01*
X84738409Y-116610087D01*
X84894005Y-116506121D01*
X85066894Y-116434508D01*
X85128074Y-116422339D01*
X85250433Y-116398000D01*
X85437567Y-116398000D01*
X85559926Y-116422339D01*
X85559926Y-116422339D01*
G37*
G36*
X88099926Y-116422339D02*
G01*
X88161106Y-116434508D01*
X88333995Y-116506121D01*
X88489591Y-116610087D01*
X88621913Y-116742409D01*
X88725879Y-116898005D01*
X88797492Y-117070894D01*
X88797492Y-117070895D01*
X88834000Y-117254433D01*
X88834000Y-117441567D01*
X88817205Y-117526000D01*
X88797492Y-117625106D01*
X88725879Y-117797995D01*
X88621913Y-117953591D01*
X88489591Y-118085913D01*
X88333995Y-118189879D01*
X88161106Y-118261492D01*
X88099926Y-118273661D01*
X87977567Y-118298000D01*
X87790433Y-118298000D01*
X87668074Y-118273661D01*
X87606894Y-118261492D01*
X87434005Y-118189879D01*
X87278409Y-118085913D01*
X87146087Y-117953591D01*
X87042121Y-117797995D01*
X86970508Y-117625106D01*
X86950795Y-117526000D01*
X86934000Y-117441567D01*
X86934000Y-117254433D01*
X86970508Y-117070895D01*
X86970508Y-117070894D01*
X87042121Y-116898005D01*
X87146087Y-116742409D01*
X87278409Y-116610087D01*
X87434005Y-116506121D01*
X87606894Y-116434508D01*
X87668074Y-116422339D01*
X87790433Y-116398000D01*
X87977567Y-116398000D01*
X88099926Y-116422339D01*
X88099926Y-116422339D01*
G37*
G36*
X90639926Y-116422339D02*
G01*
X90701106Y-116434508D01*
X90873995Y-116506121D01*
X91029591Y-116610087D01*
X91161913Y-116742409D01*
X91265879Y-116898005D01*
X91337492Y-117070894D01*
X91337492Y-117070895D01*
X91374000Y-117254433D01*
X91374000Y-117441567D01*
X91357205Y-117526000D01*
X91337492Y-117625106D01*
X91265879Y-117797995D01*
X91161913Y-117953591D01*
X91029591Y-118085913D01*
X90873995Y-118189879D01*
X90701106Y-118261492D01*
X90639926Y-118273661D01*
X90517567Y-118298000D01*
X90330433Y-118298000D01*
X90208074Y-118273661D01*
X90146894Y-118261492D01*
X89974005Y-118189879D01*
X89818409Y-118085913D01*
X89686087Y-117953591D01*
X89582121Y-117797995D01*
X89510508Y-117625106D01*
X89490795Y-117526000D01*
X89474000Y-117441567D01*
X89474000Y-117254433D01*
X89510508Y-117070895D01*
X89510508Y-117070894D01*
X89582121Y-116898005D01*
X89686087Y-116742409D01*
X89818409Y-116610087D01*
X89974005Y-116506121D01*
X90146894Y-116434508D01*
X90208074Y-116422339D01*
X90330433Y-116398000D01*
X90517567Y-116398000D01*
X90639926Y-116422339D01*
X90639926Y-116422339D01*
G37*
G36*
X95719926Y-116422339D02*
G01*
X95781106Y-116434508D01*
X95953995Y-116506121D01*
X96109591Y-116610087D01*
X96241913Y-116742409D01*
X96345879Y-116898005D01*
X96417492Y-117070894D01*
X96417492Y-117070895D01*
X96454000Y-117254433D01*
X96454000Y-117441567D01*
X96437205Y-117526000D01*
X96417492Y-117625106D01*
X96345879Y-117797995D01*
X96241913Y-117953591D01*
X96109591Y-118085913D01*
X95953995Y-118189879D01*
X95781106Y-118261492D01*
X95719926Y-118273661D01*
X95597567Y-118298000D01*
X95410433Y-118298000D01*
X95288074Y-118273661D01*
X95226894Y-118261492D01*
X95054005Y-118189879D01*
X94898409Y-118085913D01*
X94766087Y-117953591D01*
X94662121Y-117797995D01*
X94590508Y-117625106D01*
X94570795Y-117526000D01*
X94554000Y-117441567D01*
X94554000Y-117254433D01*
X94590508Y-117070895D01*
X94590508Y-117070894D01*
X94662121Y-116898005D01*
X94766087Y-116742409D01*
X94898409Y-116610087D01*
X95054005Y-116506121D01*
X95226894Y-116434508D01*
X95288074Y-116422339D01*
X95410433Y-116398000D01*
X95597567Y-116398000D01*
X95719926Y-116422339D01*
X95719926Y-116422339D01*
G37*
G36*
X66430933Y-116094054D02*
G01*
X66563785Y-116149083D01*
X66683348Y-116228972D01*
X66785028Y-116330652D01*
X66864917Y-116450215D01*
X66919946Y-116583067D01*
X66948000Y-116724101D01*
X66948000Y-116867899D01*
X66919946Y-117008933D01*
X66864917Y-117141785D01*
X66785028Y-117261348D01*
X66683348Y-117363028D01*
X66563785Y-117442917D01*
X66430933Y-117497946D01*
X66289899Y-117526000D01*
X66146101Y-117526000D01*
X66005067Y-117497946D01*
X65872215Y-117442917D01*
X65752652Y-117363028D01*
X65650972Y-117261348D01*
X65571083Y-117141785D01*
X65516054Y-117008933D01*
X65488000Y-116867899D01*
X65488000Y-116724101D01*
X65516054Y-116583067D01*
X65571083Y-116450215D01*
X65650972Y-116330652D01*
X65752652Y-116228972D01*
X65872215Y-116149083D01*
X66005067Y-116094054D01*
X66146101Y-116066000D01*
X66289899Y-116066000D01*
X66430933Y-116094054D01*
X66430933Y-116094054D01*
G37*
G36*
X61350933Y-116094054D02*
G01*
X61483785Y-116149083D01*
X61603348Y-116228972D01*
X61705028Y-116330652D01*
X61784917Y-116450215D01*
X61839946Y-116583067D01*
X61868000Y-116724101D01*
X61868000Y-116867899D01*
X61839946Y-117008933D01*
X61784917Y-117141785D01*
X61705028Y-117261348D01*
X61603348Y-117363028D01*
X61483785Y-117442917D01*
X61350933Y-117497946D01*
X61209899Y-117526000D01*
X61066101Y-117526000D01*
X60925067Y-117497946D01*
X60792215Y-117442917D01*
X60672652Y-117363028D01*
X60570972Y-117261348D01*
X60491083Y-117141785D01*
X60436054Y-117008933D01*
X60408000Y-116867899D01*
X60408000Y-116724101D01*
X60436054Y-116583067D01*
X60491083Y-116450215D01*
X60570972Y-116330652D01*
X60672652Y-116228972D01*
X60792215Y-116149083D01*
X60925067Y-116094054D01*
X61066101Y-116066000D01*
X61209899Y-116066000D01*
X61350933Y-116094054D01*
X61350933Y-116094054D01*
G37*
G36*
X76336933Y-116094054D02*
G01*
X76469785Y-116149083D01*
X76589348Y-116228972D01*
X76691028Y-116330652D01*
X76770917Y-116450215D01*
X76825946Y-116583067D01*
X76854000Y-116724101D01*
X76854000Y-116867899D01*
X76825946Y-117008933D01*
X76770917Y-117141785D01*
X76691028Y-117261348D01*
X76589348Y-117363028D01*
X76469785Y-117442917D01*
X76336933Y-117497946D01*
X76195899Y-117526000D01*
X76052101Y-117526000D01*
X75911067Y-117497946D01*
X75778215Y-117442917D01*
X75658652Y-117363028D01*
X75556972Y-117261348D01*
X75477083Y-117141785D01*
X75422054Y-117008933D01*
X75394000Y-116867899D01*
X75394000Y-116724101D01*
X75422054Y-116583067D01*
X75477083Y-116450215D01*
X75556972Y-116330652D01*
X75658652Y-116228972D01*
X75778215Y-116149083D01*
X75911067Y-116094054D01*
X76052101Y-116066000D01*
X76195899Y-116066000D01*
X76336933Y-116094054D01*
X76336933Y-116094054D01*
G37*
G36*
X71256933Y-116094054D02*
G01*
X71389785Y-116149083D01*
X71509348Y-116228972D01*
X71611028Y-116330652D01*
X71690917Y-116450215D01*
X71745946Y-116583067D01*
X71774000Y-116724101D01*
X71774000Y-116867899D01*
X71745946Y-117008933D01*
X71690917Y-117141785D01*
X71611028Y-117261348D01*
X71509348Y-117363028D01*
X71389785Y-117442917D01*
X71256933Y-117497946D01*
X71115899Y-117526000D01*
X70972101Y-117526000D01*
X70831067Y-117497946D01*
X70698215Y-117442917D01*
X70578652Y-117363028D01*
X70476972Y-117261348D01*
X70397083Y-117141785D01*
X70342054Y-117008933D01*
X70314000Y-116867899D01*
X70314000Y-116724101D01*
X70342054Y-116583067D01*
X70397083Y-116450215D01*
X70476972Y-116330652D01*
X70578652Y-116228972D01*
X70698215Y-116149083D01*
X70831067Y-116094054D01*
X70972101Y-116066000D01*
X71115899Y-116066000D01*
X71256933Y-116094054D01*
X71256933Y-116094054D01*
G37*
G36*
X56524933Y-116094054D02*
G01*
X56657785Y-116149083D01*
X56777348Y-116228972D01*
X56879028Y-116330652D01*
X56958917Y-116450215D01*
X57013946Y-116583067D01*
X57042000Y-116724101D01*
X57042000Y-116867899D01*
X57013946Y-117008933D01*
X56958917Y-117141785D01*
X56879028Y-117261348D01*
X56777348Y-117363028D01*
X56657785Y-117442917D01*
X56524933Y-117497946D01*
X56383899Y-117526000D01*
X56240101Y-117526000D01*
X56099067Y-117497946D01*
X55966215Y-117442917D01*
X55846652Y-117363028D01*
X55744972Y-117261348D01*
X55665083Y-117141785D01*
X55610054Y-117008933D01*
X55582000Y-116867899D01*
X55582000Y-116724101D01*
X55610054Y-116583067D01*
X55665083Y-116450215D01*
X55744972Y-116330652D01*
X55846652Y-116228972D01*
X55966215Y-116149083D01*
X56099067Y-116094054D01*
X56240101Y-116066000D01*
X56383899Y-116066000D01*
X56524933Y-116094054D01*
X56524933Y-116094054D01*
G37*
G36*
X51444933Y-116094054D02*
G01*
X51577785Y-116149083D01*
X51697348Y-116228972D01*
X51799028Y-116330652D01*
X51878917Y-116450215D01*
X51933946Y-116583067D01*
X51962000Y-116724101D01*
X51962000Y-116867899D01*
X51933946Y-117008933D01*
X51878917Y-117141785D01*
X51799028Y-117261348D01*
X51697348Y-117363028D01*
X51577785Y-117442917D01*
X51444933Y-117497946D01*
X51303899Y-117526000D01*
X51160101Y-117526000D01*
X51019067Y-117497946D01*
X50886215Y-117442917D01*
X50766652Y-117363028D01*
X50664972Y-117261348D01*
X50585083Y-117141785D01*
X50530054Y-117008933D01*
X50502000Y-116867899D01*
X50502000Y-116724101D01*
X50530054Y-116583067D01*
X50585083Y-116450215D01*
X50664972Y-116330652D01*
X50766652Y-116228972D01*
X50886215Y-116149083D01*
X51019067Y-116094054D01*
X51160101Y-116066000D01*
X51303899Y-116066000D01*
X51444933Y-116094054D01*
X51444933Y-116094054D01*
G37*
G36*
X38172000Y-115800000D02*
G01*
X34472000Y-115800000D01*
X34472000Y-112100000D01*
X38172000Y-112100000D01*
X38172000Y-115800000D01*
X38172000Y-115800000D01*
G37*
G36*
X88099926Y-113882339D02*
G01*
X88161106Y-113894508D01*
X88333995Y-113966121D01*
X88489591Y-114070087D01*
X88621913Y-114202409D01*
X88725879Y-114358005D01*
X88797492Y-114530894D01*
X88797492Y-114530895D01*
X88834000Y-114714433D01*
X88834000Y-114901567D01*
X88819350Y-114975215D01*
X88797492Y-115085106D01*
X88725879Y-115257995D01*
X88621913Y-115413591D01*
X88489591Y-115545913D01*
X88333995Y-115649879D01*
X88161106Y-115721492D01*
X88099926Y-115733661D01*
X87977567Y-115758000D01*
X87790433Y-115758000D01*
X87668074Y-115733661D01*
X87606894Y-115721492D01*
X87434005Y-115649879D01*
X87278409Y-115545913D01*
X87146087Y-115413591D01*
X87042121Y-115257995D01*
X86970508Y-115085106D01*
X86948650Y-114975215D01*
X86934000Y-114901567D01*
X86934000Y-114714433D01*
X86970508Y-114530895D01*
X86970508Y-114530894D01*
X87042121Y-114358005D01*
X87146087Y-114202409D01*
X87278409Y-114070087D01*
X87434005Y-113966121D01*
X87606894Y-113894508D01*
X87668074Y-113882339D01*
X87790433Y-113858000D01*
X87977567Y-113858000D01*
X88099926Y-113882339D01*
X88099926Y-113882339D01*
G37*
G36*
X90639926Y-113882339D02*
G01*
X90701106Y-113894508D01*
X90873995Y-113966121D01*
X91029591Y-114070087D01*
X91161913Y-114202409D01*
X91265879Y-114358005D01*
X91337492Y-114530894D01*
X91337492Y-114530895D01*
X91374000Y-114714433D01*
X91374000Y-114901567D01*
X91359350Y-114975215D01*
X91337492Y-115085106D01*
X91265879Y-115257995D01*
X91161913Y-115413591D01*
X91029591Y-115545913D01*
X90873995Y-115649879D01*
X90701106Y-115721492D01*
X90639926Y-115733661D01*
X90517567Y-115758000D01*
X90330433Y-115758000D01*
X90208074Y-115733661D01*
X90146894Y-115721492D01*
X89974005Y-115649879D01*
X89818409Y-115545913D01*
X89686087Y-115413591D01*
X89582121Y-115257995D01*
X89510508Y-115085106D01*
X89488650Y-114975215D01*
X89474000Y-114901567D01*
X89474000Y-114714433D01*
X89510508Y-114530895D01*
X89510508Y-114530894D01*
X89582121Y-114358005D01*
X89686087Y-114202409D01*
X89818409Y-114070087D01*
X89974005Y-113966121D01*
X90146894Y-113894508D01*
X90208074Y-113882339D01*
X90330433Y-113858000D01*
X90517567Y-113858000D01*
X90639926Y-113882339D01*
X90639926Y-113882339D01*
G37*
G36*
X96454000Y-115758000D02*
G01*
X94554000Y-115758000D01*
X94554000Y-113858000D01*
X96454000Y-113858000D01*
X96454000Y-115758000D01*
X96454000Y-115758000D01*
G37*
G36*
X93179926Y-113882339D02*
G01*
X93241106Y-113894508D01*
X93413995Y-113966121D01*
X93569591Y-114070087D01*
X93701913Y-114202409D01*
X93805879Y-114358005D01*
X93877492Y-114530894D01*
X93877492Y-114530895D01*
X93914000Y-114714433D01*
X93914000Y-114901567D01*
X93899350Y-114975215D01*
X93877492Y-115085106D01*
X93805879Y-115257995D01*
X93701913Y-115413591D01*
X93569591Y-115545913D01*
X93413995Y-115649879D01*
X93241106Y-115721492D01*
X93179926Y-115733661D01*
X93057567Y-115758000D01*
X92870433Y-115758000D01*
X92748074Y-115733661D01*
X92686894Y-115721492D01*
X92514005Y-115649879D01*
X92358409Y-115545913D01*
X92226087Y-115413591D01*
X92122121Y-115257995D01*
X92050508Y-115085106D01*
X92028650Y-114975215D01*
X92014000Y-114901567D01*
X92014000Y-114714433D01*
X92050508Y-114530895D01*
X92050508Y-114530894D01*
X92122121Y-114358005D01*
X92226087Y-114202409D01*
X92358409Y-114070087D01*
X92514005Y-113966121D01*
X92686894Y-113894508D01*
X92748074Y-113882339D01*
X92870433Y-113858000D01*
X93057567Y-113858000D01*
X93179926Y-113882339D01*
X93179926Y-113882339D01*
G37*
G36*
X85559926Y-113882339D02*
G01*
X85621106Y-113894508D01*
X85793995Y-113966121D01*
X85949591Y-114070087D01*
X86081913Y-114202409D01*
X86185879Y-114358005D01*
X86257492Y-114530894D01*
X86257492Y-114530895D01*
X86294000Y-114714433D01*
X86294000Y-114901567D01*
X86279350Y-114975215D01*
X86257492Y-115085106D01*
X86185879Y-115257995D01*
X86081913Y-115413591D01*
X85949591Y-115545913D01*
X85793995Y-115649879D01*
X85621106Y-115721492D01*
X85559926Y-115733661D01*
X85437567Y-115758000D01*
X85250433Y-115758000D01*
X85128074Y-115733661D01*
X85066894Y-115721492D01*
X84894005Y-115649879D01*
X84738409Y-115545913D01*
X84606087Y-115413591D01*
X84502121Y-115257995D01*
X84430508Y-115085106D01*
X84408650Y-114975215D01*
X84394000Y-114901567D01*
X84394000Y-114714433D01*
X84430508Y-114530895D01*
X84430508Y-114530894D01*
X84502121Y-114358005D01*
X84606087Y-114202409D01*
X84738409Y-114070087D01*
X84894005Y-113966121D01*
X85066894Y-113894508D01*
X85128074Y-113882339D01*
X85250433Y-113858000D01*
X85437567Y-113858000D01*
X85559926Y-113882339D01*
X85559926Y-113882339D01*
G37*
G36*
X53984933Y-113554054D02*
G01*
X54117785Y-113609083D01*
X54237348Y-113688972D01*
X54339028Y-113790652D01*
X54418917Y-113910215D01*
X54473946Y-114043067D01*
X54502000Y-114184101D01*
X54502000Y-114327899D01*
X54473946Y-114468933D01*
X54418917Y-114601785D01*
X54339028Y-114721348D01*
X54237348Y-114823028D01*
X54117785Y-114902917D01*
X53984933Y-114957946D01*
X53843899Y-114986000D01*
X53700101Y-114986000D01*
X53559067Y-114957946D01*
X53426215Y-114902917D01*
X53306652Y-114823028D01*
X53204972Y-114721348D01*
X53125083Y-114601785D01*
X53070054Y-114468933D01*
X53042000Y-114327899D01*
X53042000Y-114184101D01*
X53070054Y-114043067D01*
X53125083Y-113910215D01*
X53204972Y-113790652D01*
X53306652Y-113688972D01*
X53426215Y-113609083D01*
X53559067Y-113554054D01*
X53700101Y-113526000D01*
X53843899Y-113526000D01*
X53984933Y-113554054D01*
X53984933Y-113554054D01*
G37*
G36*
X63890933Y-113554054D02*
G01*
X64023785Y-113609083D01*
X64143348Y-113688972D01*
X64245028Y-113790652D01*
X64324917Y-113910215D01*
X64379946Y-114043067D01*
X64408000Y-114184101D01*
X64408000Y-114327899D01*
X64379946Y-114468933D01*
X64324917Y-114601785D01*
X64245028Y-114721348D01*
X64143348Y-114823028D01*
X64023785Y-114902917D01*
X63890933Y-114957946D01*
X63749899Y-114986000D01*
X63606101Y-114986000D01*
X63465067Y-114957946D01*
X63332215Y-114902917D01*
X63212652Y-114823028D01*
X63110972Y-114721348D01*
X63031083Y-114601785D01*
X62976054Y-114468933D01*
X62948000Y-114327899D01*
X62948000Y-114184101D01*
X62976054Y-114043067D01*
X63031083Y-113910215D01*
X63110972Y-113790652D01*
X63212652Y-113688972D01*
X63332215Y-113609083D01*
X63465067Y-113554054D01*
X63606101Y-113526000D01*
X63749899Y-113526000D01*
X63890933Y-113554054D01*
X63890933Y-113554054D01*
G37*
G36*
X73796933Y-113554054D02*
G01*
X73929785Y-113609083D01*
X74049348Y-113688972D01*
X74151028Y-113790652D01*
X74230917Y-113910215D01*
X74285946Y-114043067D01*
X74314000Y-114184101D01*
X74314000Y-114327899D01*
X74285946Y-114468933D01*
X74230917Y-114601785D01*
X74151028Y-114721348D01*
X74049348Y-114823028D01*
X73929785Y-114902917D01*
X73796933Y-114957946D01*
X73655899Y-114986000D01*
X73512101Y-114986000D01*
X73371067Y-114957946D01*
X73238215Y-114902917D01*
X73118652Y-114823028D01*
X73016972Y-114721348D01*
X72937083Y-114601785D01*
X72882054Y-114468933D01*
X72854000Y-114327899D01*
X72854000Y-114184101D01*
X72882054Y-114043067D01*
X72937083Y-113910215D01*
X73016972Y-113790652D01*
X73118652Y-113688972D01*
X73238215Y-113609083D01*
X73371067Y-113554054D01*
X73512101Y-113526000D01*
X73655899Y-113526000D01*
X73796933Y-113554054D01*
X73796933Y-113554054D01*
G37*
G36*
X42872000Y-112800000D02*
G01*
X39172000Y-112800000D01*
X39172000Y-109100000D01*
X42872000Y-109100000D01*
X42872000Y-112800000D01*
X42872000Y-112800000D01*
G37*
G36*
X120582232Y-108791746D02*
G01*
X120761308Y-108846068D01*
X120926345Y-108934282D01*
X121071001Y-109052999D01*
X121189718Y-109197655D01*
X121277932Y-109362692D01*
X121332254Y-109541768D01*
X121350596Y-109728000D01*
X121332254Y-109914232D01*
X121277932Y-110093308D01*
X121189718Y-110258345D01*
X121071001Y-110403001D01*
X120926345Y-110521718D01*
X120761308Y-110609932D01*
X120582232Y-110664254D01*
X120442665Y-110678000D01*
X120349335Y-110678000D01*
X120209768Y-110664254D01*
X120030692Y-110609932D01*
X119865655Y-110521718D01*
X119720999Y-110403001D01*
X119602282Y-110258345D01*
X119514068Y-110093308D01*
X119459746Y-109914232D01*
X119441404Y-109728000D01*
X119459746Y-109541768D01*
X119514068Y-109362692D01*
X119602282Y-109197655D01*
X119720999Y-109052999D01*
X119865655Y-108934282D01*
X120030692Y-108846068D01*
X120209768Y-108791746D01*
X120349335Y-108778000D01*
X120442665Y-108778000D01*
X120582232Y-108791746D01*
X120582232Y-108791746D01*
G37*
G36*
X38172000Y-109800000D02*
G01*
X34472000Y-109800000D01*
X34472000Y-106100000D01*
X38172000Y-106100000D01*
X38172000Y-109800000D01*
X38172000Y-109800000D01*
G37*
G36*
X65747538Y-106104419D02*
G01*
X65954793Y-106167289D01*
X66145798Y-106269384D01*
X66313218Y-106406782D01*
X66450616Y-106574202D01*
X66552711Y-106765207D01*
X66615581Y-106972462D01*
X66636809Y-107188000D01*
X66615581Y-107403538D01*
X66552711Y-107610793D01*
X66450616Y-107801798D01*
X66313218Y-107969218D01*
X66145798Y-108106616D01*
X65954793Y-108208711D01*
X65747538Y-108271581D01*
X65586008Y-108287490D01*
X65477992Y-108287490D01*
X65316462Y-108271581D01*
X65109207Y-108208711D01*
X64918202Y-108106616D01*
X64750782Y-107969218D01*
X64613384Y-107801798D01*
X64511289Y-107610793D01*
X64448419Y-107403538D01*
X64427191Y-107188000D01*
X64448419Y-106972462D01*
X64511289Y-106765207D01*
X64613384Y-106574202D01*
X64750782Y-106406782D01*
X64918202Y-106269384D01*
X65109207Y-106167289D01*
X65316462Y-106104419D01*
X65477992Y-106088510D01*
X65586008Y-106088510D01*
X65747538Y-106104419D01*
X65747538Y-106104419D01*
G37*
G36*
X74251490Y-108287490D02*
G01*
X72052510Y-108287490D01*
X72052510Y-106088510D01*
X74251490Y-106088510D01*
X74251490Y-108287490D01*
X74251490Y-108287490D01*
G37*
G36*
X70827538Y-106104419D02*
G01*
X71034793Y-106167289D01*
X71225798Y-106269384D01*
X71393218Y-106406782D01*
X71530616Y-106574202D01*
X71632711Y-106765207D01*
X71695581Y-106972462D01*
X71716809Y-107188000D01*
X71695581Y-107403538D01*
X71632711Y-107610793D01*
X71530616Y-107801798D01*
X71393218Y-107969218D01*
X71225798Y-108106616D01*
X71034793Y-108208711D01*
X70827538Y-108271581D01*
X70666008Y-108287490D01*
X70557992Y-108287490D01*
X70396462Y-108271581D01*
X70189207Y-108208711D01*
X69998202Y-108106616D01*
X69830782Y-107969218D01*
X69693384Y-107801798D01*
X69591289Y-107610793D01*
X69528419Y-107403538D01*
X69507191Y-107188000D01*
X69528419Y-106972462D01*
X69591289Y-106765207D01*
X69693384Y-106574202D01*
X69830782Y-106406782D01*
X69998202Y-106269384D01*
X70189207Y-106167289D01*
X70396462Y-106104419D01*
X70557992Y-106088510D01*
X70666008Y-106088510D01*
X70827538Y-106104419D01*
X70827538Y-106104419D01*
G37*
G36*
X68287538Y-106104419D02*
G01*
X68494793Y-106167289D01*
X68685798Y-106269384D01*
X68853218Y-106406782D01*
X68990616Y-106574202D01*
X69092711Y-106765207D01*
X69155581Y-106972462D01*
X69176809Y-107188000D01*
X69155581Y-107403538D01*
X69092711Y-107610793D01*
X68990616Y-107801798D01*
X68853218Y-107969218D01*
X68685798Y-108106616D01*
X68494793Y-108208711D01*
X68287538Y-108271581D01*
X68126008Y-108287490D01*
X68017992Y-108287490D01*
X67856462Y-108271581D01*
X67649207Y-108208711D01*
X67458202Y-108106616D01*
X67290782Y-107969218D01*
X67153384Y-107801798D01*
X67051289Y-107610793D01*
X66988419Y-107403538D01*
X66967191Y-107188000D01*
X66988419Y-106972462D01*
X67051289Y-106765207D01*
X67153384Y-106574202D01*
X67290782Y-106406782D01*
X67458202Y-106269384D01*
X67649207Y-106167289D01*
X67856462Y-106104419D01*
X68017992Y-106088510D01*
X68126008Y-106088510D01*
X68287538Y-106104419D01*
X68287538Y-106104419D01*
G37*
G36*
X63207538Y-106104419D02*
G01*
X63414793Y-106167289D01*
X63605798Y-106269384D01*
X63773218Y-106406782D01*
X63910616Y-106574202D01*
X64012711Y-106765207D01*
X64075581Y-106972462D01*
X64096809Y-107188000D01*
X64075581Y-107403538D01*
X64012711Y-107610793D01*
X63910616Y-107801798D01*
X63773218Y-107969218D01*
X63605798Y-108106616D01*
X63414793Y-108208711D01*
X63207538Y-108271581D01*
X63046008Y-108287490D01*
X62937992Y-108287490D01*
X62776462Y-108271581D01*
X62569207Y-108208711D01*
X62378202Y-108106616D01*
X62210782Y-107969218D01*
X62073384Y-107801798D01*
X61971289Y-107610793D01*
X61908419Y-107403538D01*
X61887191Y-107188000D01*
X61908419Y-106972462D01*
X61971289Y-106765207D01*
X62073384Y-106574202D01*
X62210782Y-106406782D01*
X62378202Y-106269384D01*
X62569207Y-106167289D01*
X62776462Y-106104419D01*
X62937992Y-106088510D01*
X63046008Y-106088510D01*
X63207538Y-106104419D01*
X63207538Y-106104419D01*
G37*
G36*
X60667538Y-106104419D02*
G01*
X60874793Y-106167289D01*
X61065798Y-106269384D01*
X61233218Y-106406782D01*
X61370616Y-106574202D01*
X61472711Y-106765207D01*
X61535581Y-106972462D01*
X61556809Y-107188000D01*
X61535581Y-107403538D01*
X61472711Y-107610793D01*
X61370616Y-107801798D01*
X61233218Y-107969218D01*
X61065798Y-108106616D01*
X60874793Y-108208711D01*
X60667538Y-108271581D01*
X60506008Y-108287490D01*
X60397992Y-108287490D01*
X60236462Y-108271581D01*
X60029207Y-108208711D01*
X59838202Y-108106616D01*
X59670782Y-107969218D01*
X59533384Y-107801798D01*
X59431289Y-107610793D01*
X59368419Y-107403538D01*
X59347191Y-107188000D01*
X59368419Y-106972462D01*
X59431289Y-106765207D01*
X59533384Y-106574202D01*
X59670782Y-106406782D01*
X59838202Y-106269384D01*
X60029207Y-106167289D01*
X60236462Y-106104419D01*
X60397992Y-106088510D01*
X60506008Y-106088510D01*
X60667538Y-106104419D01*
X60667538Y-106104419D01*
G37*
G36*
X100338520Y-106496586D02*
G01*
X100502310Y-106564430D01*
X100649717Y-106662924D01*
X100775076Y-106788283D01*
X100873570Y-106935690D01*
X100941414Y-107099480D01*
X100976000Y-107273358D01*
X100976000Y-107450642D01*
X100941414Y-107624520D01*
X100873570Y-107788310D01*
X100775076Y-107935717D01*
X100649717Y-108061076D01*
X100502310Y-108159570D01*
X100338520Y-108227414D01*
X100164642Y-108262000D01*
X99987358Y-108262000D01*
X99813480Y-108227414D01*
X99649690Y-108159570D01*
X99502283Y-108061076D01*
X99376924Y-107935717D01*
X99278430Y-107788310D01*
X99210586Y-107624520D01*
X99176000Y-107450642D01*
X99176000Y-107273358D01*
X99210586Y-107099480D01*
X99278430Y-106935690D01*
X99376924Y-106788283D01*
X99502283Y-106662924D01*
X99649690Y-106564430D01*
X99813480Y-106496586D01*
X99987358Y-106462000D01*
X100164642Y-106462000D01*
X100338520Y-106496586D01*
X100338520Y-106496586D01*
G37*
G36*
X121346000Y-108138000D02*
G01*
X119446000Y-108138000D01*
X119446000Y-106238000D01*
X121346000Y-106238000D01*
X121346000Y-108138000D01*
X121346000Y-108138000D01*
G37*
G36*
X100976000Y-103262000D02*
G01*
X99176000Y-103262000D01*
X99176000Y-101462000D01*
X100976000Y-101462000D01*
X100976000Y-103262000D01*
X100976000Y-103262000D01*
G37*
G36*
X120582232Y-98123746D02*
G01*
X120761308Y-98178068D01*
X120926345Y-98266282D01*
X121071001Y-98384999D01*
X121189718Y-98529655D01*
X121277932Y-98694692D01*
X121332254Y-98873768D01*
X121350596Y-99060000D01*
X121332254Y-99246232D01*
X121277932Y-99425308D01*
X121189718Y-99590345D01*
X121071001Y-99735001D01*
X120926345Y-99853718D01*
X120761308Y-99941932D01*
X120582232Y-99996254D01*
X120442665Y-100010000D01*
X120349335Y-100010000D01*
X120209768Y-99996254D01*
X120030692Y-99941932D01*
X119865655Y-99853718D01*
X119720999Y-99735001D01*
X119602282Y-99590345D01*
X119514068Y-99425308D01*
X119459746Y-99246232D01*
X119441404Y-99060000D01*
X119459746Y-98873768D01*
X119514068Y-98694692D01*
X119602282Y-98529655D01*
X119720999Y-98384999D01*
X119865655Y-98266282D01*
X120030692Y-98178068D01*
X120209768Y-98123746D01*
X120349335Y-98110000D01*
X120442665Y-98110000D01*
X120582232Y-98123746D01*
X120582232Y-98123746D01*
G37*
G36*
X121346000Y-97470000D02*
G01*
X119446000Y-97470000D01*
X119446000Y-95570000D01*
X121346000Y-95570000D01*
X121346000Y-97470000D01*
X121346000Y-97470000D01*
G37*
G36*
X117534232Y-88725746D02*
G01*
X117713308Y-88780068D01*
X117878345Y-88868282D01*
X118023001Y-88986999D01*
X118141718Y-89131655D01*
X118229932Y-89296692D01*
X118284254Y-89475768D01*
X118302596Y-89662000D01*
X118284254Y-89848232D01*
X118229932Y-90027308D01*
X118141718Y-90192345D01*
X118023001Y-90337001D01*
X117878345Y-90455718D01*
X117713308Y-90543932D01*
X117534232Y-90598254D01*
X117394665Y-90612000D01*
X117301335Y-90612000D01*
X117161768Y-90598254D01*
X116982692Y-90543932D01*
X116817655Y-90455718D01*
X116672999Y-90337001D01*
X116554282Y-90192345D01*
X116466068Y-90027308D01*
X116411746Y-89848232D01*
X116393404Y-89662000D01*
X116411746Y-89475768D01*
X116466068Y-89296692D01*
X116554282Y-89131655D01*
X116672999Y-88986999D01*
X116817655Y-88868282D01*
X116982692Y-88780068D01*
X117161768Y-88725746D01*
X117301335Y-88712000D01*
X117394665Y-88712000D01*
X117534232Y-88725746D01*
X117534232Y-88725746D01*
G37*
G36*
X115758000Y-90612000D02*
G01*
X113858000Y-90612000D01*
X113858000Y-88712000D01*
X115758000Y-88712000D01*
X115758000Y-90612000D01*
X115758000Y-90612000D01*
G37*
G36*
X39762000Y-90054000D02*
G01*
X37962000Y-90054000D01*
X37962000Y-88254000D01*
X39762000Y-88254000D01*
X39762000Y-90054000D01*
X39762000Y-90054000D01*
G37*
G36*
X76267636Y-86459565D02*
G01*
X76267639Y-86459566D01*
X76267638Y-86459566D01*
X76422326Y-86523639D01*
X76561545Y-86616663D01*
X76679937Y-86735055D01*
X76772961Y-86874274D01*
X76827651Y-87006309D01*
X76837035Y-87028964D01*
X76869700Y-87193182D01*
X76869700Y-87360618D01*
X76837035Y-87524836D01*
X76837034Y-87524838D01*
X76772961Y-87679526D01*
X76679937Y-87818745D01*
X76561545Y-87937137D01*
X76422326Y-88030161D01*
X76290291Y-88084851D01*
X76267636Y-88094235D01*
X76103418Y-88126900D01*
X75935982Y-88126900D01*
X75771764Y-88094235D01*
X75749109Y-88084851D01*
X75617074Y-88030161D01*
X75477855Y-87937137D01*
X75359463Y-87818745D01*
X75266439Y-87679526D01*
X75202366Y-87524838D01*
X75202365Y-87524836D01*
X75169700Y-87360618D01*
X75169700Y-87193182D01*
X75202365Y-87028964D01*
X75211749Y-87006309D01*
X75266439Y-86874274D01*
X75359463Y-86735055D01*
X75477855Y-86616663D01*
X75617074Y-86523639D01*
X75771762Y-86459566D01*
X75771761Y-86459566D01*
X75771764Y-86459565D01*
X75935982Y-86426900D01*
X76103418Y-86426900D01*
X76267636Y-86459565D01*
X76267636Y-86459565D01*
G37*
G36*
X115758000Y-86294000D02*
G01*
X113858000Y-86294000D01*
X113858000Y-84394000D01*
X115758000Y-84394000D01*
X115758000Y-86294000D01*
X115758000Y-86294000D01*
G37*
G36*
X117534232Y-84407746D02*
G01*
X117713308Y-84462068D01*
X117878345Y-84550282D01*
X118023001Y-84668999D01*
X118141718Y-84813655D01*
X118162789Y-84853076D01*
X118215435Y-84951569D01*
X118229932Y-84978692D01*
X118284254Y-85157768D01*
X118302596Y-85344000D01*
X118284254Y-85530232D01*
X118229932Y-85709308D01*
X118141718Y-85874345D01*
X118023001Y-86019001D01*
X117878345Y-86137718D01*
X117713308Y-86225932D01*
X117534232Y-86280254D01*
X117394665Y-86294000D01*
X117301335Y-86294000D01*
X117161768Y-86280254D01*
X116982692Y-86225932D01*
X116817655Y-86137718D01*
X116672999Y-86019001D01*
X116554282Y-85874345D01*
X116466068Y-85709308D01*
X116411746Y-85530232D01*
X116393404Y-85344000D01*
X116411746Y-85157768D01*
X116466068Y-84978692D01*
X116480566Y-84951569D01*
X116533211Y-84853076D01*
X116554282Y-84813655D01*
X116672999Y-84668999D01*
X116817655Y-84550282D01*
X116982692Y-84462068D01*
X117161768Y-84407746D01*
X117301335Y-84394000D01*
X117394665Y-84394000D01*
X117534232Y-84407746D01*
X117534232Y-84407746D01*
G37*
G36*
X39124520Y-83288586D02*
G01*
X39288310Y-83356430D01*
X39435717Y-83454924D01*
X39561076Y-83580283D01*
X39659570Y-83727690D01*
X39727414Y-83891480D01*
X39762000Y-84065358D01*
X39762000Y-84242642D01*
X39727414Y-84416520D01*
X39659570Y-84580310D01*
X39561076Y-84727717D01*
X39435717Y-84853076D01*
X39288310Y-84951570D01*
X39124520Y-85019414D01*
X38950642Y-85054000D01*
X38773358Y-85054000D01*
X38599480Y-85019414D01*
X38435690Y-84951570D01*
X38288283Y-84853076D01*
X38162924Y-84727717D01*
X38064430Y-84580310D01*
X37996586Y-84416520D01*
X37962000Y-84242642D01*
X37962000Y-84065358D01*
X37996586Y-83891480D01*
X38064430Y-83727690D01*
X38162924Y-83580283D01*
X38288283Y-83454924D01*
X38435690Y-83356430D01*
X38599480Y-83288586D01*
X38773358Y-83254000D01*
X38950642Y-83254000D01*
X39124520Y-83288586D01*
X39124520Y-83288586D01*
G37*
G36*
X76267636Y-81579565D02*
G01*
X76267639Y-81579566D01*
X76267638Y-81579566D01*
X76422326Y-81643639D01*
X76561545Y-81736663D01*
X76679937Y-81855055D01*
X76772961Y-81994274D01*
X76827651Y-82126309D01*
X76837035Y-82148964D01*
X76869700Y-82313182D01*
X76869700Y-82480618D01*
X76837035Y-82644836D01*
X76837034Y-82644838D01*
X76772961Y-82799526D01*
X76679937Y-82938745D01*
X76561545Y-83057137D01*
X76422326Y-83150161D01*
X76290291Y-83204851D01*
X76267636Y-83214235D01*
X76103418Y-83246900D01*
X75935982Y-83246900D01*
X75771764Y-83214235D01*
X75749109Y-83204851D01*
X75617074Y-83150161D01*
X75477855Y-83057137D01*
X75359463Y-82938745D01*
X75266439Y-82799526D01*
X75202366Y-82644838D01*
X75202365Y-82644836D01*
X75169700Y-82480618D01*
X75169700Y-82313182D01*
X75202365Y-82148964D01*
X75211749Y-82126309D01*
X75266439Y-81994274D01*
X75359463Y-81855055D01*
X75477855Y-81736663D01*
X75617074Y-81643639D01*
X75771762Y-81579566D01*
X75771761Y-81579566D01*
X75771764Y-81579565D01*
X75935982Y-81546900D01*
X76103418Y-81546900D01*
X76267636Y-81579565D01*
X76267636Y-81579565D01*
G37*
G36*
X119341926Y-75528339D02*
G01*
X119403106Y-75540508D01*
X119575995Y-75612121D01*
X119731591Y-75716087D01*
X119863913Y-75848409D01*
X119967879Y-76004005D01*
X120039492Y-76176894D01*
X120076000Y-76360435D01*
X120076000Y-76547565D01*
X120039492Y-76731106D01*
X119967879Y-76903995D01*
X119863913Y-77059591D01*
X119731591Y-77191913D01*
X119575995Y-77295879D01*
X119403106Y-77367492D01*
X119341926Y-77379661D01*
X119219567Y-77404000D01*
X119032433Y-77404000D01*
X118910074Y-77379661D01*
X118848894Y-77367492D01*
X118676005Y-77295879D01*
X118520409Y-77191913D01*
X118388087Y-77059591D01*
X118284121Y-76903995D01*
X118212508Y-76731106D01*
X118176000Y-76547565D01*
X118176000Y-76360435D01*
X118212508Y-76176894D01*
X118284121Y-76004005D01*
X118388087Y-75848409D01*
X118520409Y-75716087D01*
X118676005Y-75612121D01*
X118848894Y-75540508D01*
X118910074Y-75528339D01*
X119032433Y-75504000D01*
X119219567Y-75504000D01*
X119341926Y-75528339D01*
X119341926Y-75528339D01*
G37*
G36*
X116801926Y-75528339D02*
G01*
X116863106Y-75540508D01*
X117035995Y-75612121D01*
X117191591Y-75716087D01*
X117323913Y-75848409D01*
X117427879Y-76004005D01*
X117499492Y-76176894D01*
X117536000Y-76360435D01*
X117536000Y-76547565D01*
X117499492Y-76731106D01*
X117427879Y-76903995D01*
X117323913Y-77059591D01*
X117191591Y-77191913D01*
X117035995Y-77295879D01*
X116863106Y-77367492D01*
X116801926Y-77379661D01*
X116679567Y-77404000D01*
X116492433Y-77404000D01*
X116370074Y-77379661D01*
X116308894Y-77367492D01*
X116136005Y-77295879D01*
X115980409Y-77191913D01*
X115848087Y-77059591D01*
X115744121Y-76903995D01*
X115672508Y-76731106D01*
X115636000Y-76547565D01*
X115636000Y-76360435D01*
X115672508Y-76176894D01*
X115744121Y-76004005D01*
X115848087Y-75848409D01*
X115980409Y-75716087D01*
X116136005Y-75612121D01*
X116308894Y-75540508D01*
X116370074Y-75528339D01*
X116492433Y-75504000D01*
X116679567Y-75504000D01*
X116801926Y-75528339D01*
X116801926Y-75528339D01*
G37*
G36*
X38059200Y-75509026D02*
G01*
X38222990Y-75576870D01*
X38370397Y-75675364D01*
X38495756Y-75800723D01*
X38594250Y-75948130D01*
X38662094Y-76111920D01*
X38696680Y-76285798D01*
X38696680Y-76463082D01*
X38662094Y-76636960D01*
X38594250Y-76800750D01*
X38495756Y-76948157D01*
X38370397Y-77073516D01*
X38222990Y-77172010D01*
X38059200Y-77239854D01*
X37885322Y-77274440D01*
X37708038Y-77274440D01*
X37534160Y-77239854D01*
X37370370Y-77172010D01*
X37222963Y-77073516D01*
X37097604Y-76948157D01*
X36999110Y-76800750D01*
X36931266Y-76636960D01*
X36896680Y-76463082D01*
X36896680Y-76285798D01*
X36931266Y-76111920D01*
X36999110Y-75948130D01*
X37097604Y-75800723D01*
X37222963Y-75675364D01*
X37370370Y-75576870D01*
X37534160Y-75509026D01*
X37708038Y-75474440D01*
X37885322Y-75474440D01*
X38059200Y-75509026D01*
X38059200Y-75509026D01*
G37*
G36*
X33696680Y-77274440D02*
G01*
X31896680Y-77274440D01*
X31896680Y-75474440D01*
X33696680Y-75474440D01*
X33696680Y-77274440D01*
X33696680Y-77274440D01*
G37*
G36*
X119341926Y-72988339D02*
G01*
X119403106Y-73000508D01*
X119575995Y-73072121D01*
X119731591Y-73176087D01*
X119863913Y-73308409D01*
X119967879Y-73464005D01*
X120039492Y-73636894D01*
X120076000Y-73820435D01*
X120076000Y-74007565D01*
X120039492Y-74191106D01*
X119967879Y-74363995D01*
X119863913Y-74519591D01*
X119731591Y-74651913D01*
X119575995Y-74755879D01*
X119403106Y-74827492D01*
X119341926Y-74839661D01*
X119219567Y-74864000D01*
X119032433Y-74864000D01*
X118910074Y-74839661D01*
X118848894Y-74827492D01*
X118676005Y-74755879D01*
X118520409Y-74651913D01*
X118388087Y-74519591D01*
X118284121Y-74363995D01*
X118212508Y-74191106D01*
X118176000Y-74007565D01*
X118176000Y-73820435D01*
X118212508Y-73636894D01*
X118284121Y-73464005D01*
X118388087Y-73308409D01*
X118520409Y-73176087D01*
X118676005Y-73072121D01*
X118848894Y-73000508D01*
X118910074Y-72988339D01*
X119032433Y-72964000D01*
X119219567Y-72964000D01*
X119341926Y-72988339D01*
X119341926Y-72988339D01*
G37*
G36*
X116801926Y-72988339D02*
G01*
X116863106Y-73000508D01*
X117035995Y-73072121D01*
X117191591Y-73176087D01*
X117323913Y-73308409D01*
X117427879Y-73464005D01*
X117499492Y-73636894D01*
X117536000Y-73820435D01*
X117536000Y-74007565D01*
X117499492Y-74191106D01*
X117427879Y-74363995D01*
X117323913Y-74519591D01*
X117191591Y-74651913D01*
X117035995Y-74755879D01*
X116863106Y-74827492D01*
X116801926Y-74839661D01*
X116679567Y-74864000D01*
X116492433Y-74864000D01*
X116370074Y-74839661D01*
X116308894Y-74827492D01*
X116136005Y-74755879D01*
X115980409Y-74651913D01*
X115848087Y-74519591D01*
X115744121Y-74363995D01*
X115672508Y-74191106D01*
X115636000Y-74007565D01*
X115636000Y-73820435D01*
X115672508Y-73636894D01*
X115744121Y-73464005D01*
X115848087Y-73308409D01*
X115980409Y-73176087D01*
X116136005Y-73072121D01*
X116308894Y-73000508D01*
X116370074Y-72988339D01*
X116492433Y-72964000D01*
X116679567Y-72964000D01*
X116801926Y-72988339D01*
X116801926Y-72988339D01*
G37*
G36*
X119341926Y-70448339D02*
G01*
X119403106Y-70460508D01*
X119575995Y-70532121D01*
X119731591Y-70636087D01*
X119863913Y-70768409D01*
X119967879Y-70924005D01*
X120039492Y-71096894D01*
X120039492Y-71096895D01*
X120076000Y-71280433D01*
X120076000Y-71467567D01*
X120051661Y-71589926D01*
X120039492Y-71651106D01*
X119967879Y-71823995D01*
X119863913Y-71979591D01*
X119731591Y-72111913D01*
X119575995Y-72215879D01*
X119403106Y-72287492D01*
X119341926Y-72299661D01*
X119219567Y-72324000D01*
X119032433Y-72324000D01*
X118910074Y-72299661D01*
X118848894Y-72287492D01*
X118676005Y-72215879D01*
X118520409Y-72111913D01*
X118388087Y-71979591D01*
X118284121Y-71823995D01*
X118212508Y-71651106D01*
X118200339Y-71589926D01*
X118176000Y-71467567D01*
X118176000Y-71280433D01*
X118212508Y-71096895D01*
X118212508Y-71096894D01*
X118284121Y-70924005D01*
X118388087Y-70768409D01*
X118520409Y-70636087D01*
X118676005Y-70532121D01*
X118848894Y-70460508D01*
X118910074Y-70448339D01*
X119032433Y-70424000D01*
X119219567Y-70424000D01*
X119341926Y-70448339D01*
X119341926Y-70448339D01*
G37*
G36*
X116801926Y-70448339D02*
G01*
X116863106Y-70460508D01*
X117035995Y-70532121D01*
X117191591Y-70636087D01*
X117323913Y-70768409D01*
X117427879Y-70924005D01*
X117499492Y-71096894D01*
X117499492Y-71096895D01*
X117536000Y-71280433D01*
X117536000Y-71467567D01*
X117511661Y-71589926D01*
X117499492Y-71651106D01*
X117427879Y-71823995D01*
X117323913Y-71979591D01*
X117191591Y-72111913D01*
X117035995Y-72215879D01*
X116863106Y-72287492D01*
X116801926Y-72299661D01*
X116679567Y-72324000D01*
X116492433Y-72324000D01*
X116370074Y-72299661D01*
X116308894Y-72287492D01*
X116136005Y-72215879D01*
X115980409Y-72111913D01*
X115848087Y-71979591D01*
X115744121Y-71823995D01*
X115672508Y-71651106D01*
X115660339Y-71589926D01*
X115636000Y-71467567D01*
X115636000Y-71280433D01*
X115672508Y-71096895D01*
X115672508Y-71096894D01*
X115744121Y-70924005D01*
X115848087Y-70768409D01*
X115980409Y-70636087D01*
X116136005Y-70532121D01*
X116308894Y-70460508D01*
X116370074Y-70448339D01*
X116492433Y-70424000D01*
X116679567Y-70424000D01*
X116801926Y-70448339D01*
X116801926Y-70448339D01*
G37*
G36*
X109025232Y-70437746D02*
G01*
X109204308Y-70492068D01*
X109369345Y-70580282D01*
X109514001Y-70698999D01*
X109632718Y-70843655D01*
X109720932Y-71008692D01*
X109775254Y-71187768D01*
X109793596Y-71374000D01*
X109775254Y-71560232D01*
X109720932Y-71739308D01*
X109632718Y-71904345D01*
X109514001Y-72049001D01*
X109369345Y-72167718D01*
X109204308Y-72255932D01*
X109025232Y-72310254D01*
X108885665Y-72324000D01*
X108792335Y-72324000D01*
X108652768Y-72310254D01*
X108473692Y-72255932D01*
X108308655Y-72167718D01*
X108163999Y-72049001D01*
X108045282Y-71904345D01*
X107957068Y-71739308D01*
X107902746Y-71560232D01*
X107884404Y-71374000D01*
X107902746Y-71187768D01*
X107957068Y-71008692D01*
X108045282Y-70843655D01*
X108163999Y-70698999D01*
X108308655Y-70580282D01*
X108473692Y-70492068D01*
X108652768Y-70437746D01*
X108792335Y-70424000D01*
X108885665Y-70424000D01*
X109025232Y-70437746D01*
X109025232Y-70437746D01*
G37*
G36*
X106485232Y-70437746D02*
G01*
X106664308Y-70492068D01*
X106829345Y-70580282D01*
X106974001Y-70698999D01*
X107092718Y-70843655D01*
X107180932Y-71008692D01*
X107235254Y-71187768D01*
X107253596Y-71374000D01*
X107235254Y-71560232D01*
X107180932Y-71739308D01*
X107092718Y-71904345D01*
X106974001Y-72049001D01*
X106829345Y-72167718D01*
X106664308Y-72255932D01*
X106485232Y-72310254D01*
X106345665Y-72324000D01*
X106252335Y-72324000D01*
X106112768Y-72310254D01*
X105933692Y-72255932D01*
X105768655Y-72167718D01*
X105623999Y-72049001D01*
X105505282Y-71904345D01*
X105417068Y-71739308D01*
X105362746Y-71560232D01*
X105344404Y-71374000D01*
X105362746Y-71187768D01*
X105417068Y-71008692D01*
X105505282Y-70843655D01*
X105623999Y-70698999D01*
X105768655Y-70580282D01*
X105933692Y-70492068D01*
X106112768Y-70437746D01*
X106252335Y-70424000D01*
X106345665Y-70424000D01*
X106485232Y-70437746D01*
X106485232Y-70437746D01*
G37*
G36*
X106485232Y-67897746D02*
G01*
X106664308Y-67952068D01*
X106829345Y-68040282D01*
X106974001Y-68158999D01*
X107092718Y-68303655D01*
X107180932Y-68468692D01*
X107235254Y-68647768D01*
X107253596Y-68834000D01*
X107235254Y-69020232D01*
X107180932Y-69199308D01*
X107092718Y-69364345D01*
X106974001Y-69509001D01*
X106829345Y-69627718D01*
X106664308Y-69715932D01*
X106485232Y-69770254D01*
X106345665Y-69784000D01*
X106252335Y-69784000D01*
X106112768Y-69770254D01*
X105933692Y-69715932D01*
X105768655Y-69627718D01*
X105623999Y-69509001D01*
X105505282Y-69364345D01*
X105417068Y-69199308D01*
X105362746Y-69020232D01*
X105344404Y-68834000D01*
X105362746Y-68647768D01*
X105417068Y-68468692D01*
X105505282Y-68303655D01*
X105623999Y-68158999D01*
X105768655Y-68040282D01*
X105933692Y-67952068D01*
X106112768Y-67897746D01*
X106252335Y-67884000D01*
X106345665Y-67884000D01*
X106485232Y-67897746D01*
X106485232Y-67897746D01*
G37*
G36*
X109025232Y-67897746D02*
G01*
X109204308Y-67952068D01*
X109369345Y-68040282D01*
X109514001Y-68158999D01*
X109632718Y-68303655D01*
X109720932Y-68468692D01*
X109775254Y-68647768D01*
X109793596Y-68834000D01*
X109775254Y-69020232D01*
X109720932Y-69199308D01*
X109632718Y-69364345D01*
X109514001Y-69509001D01*
X109369345Y-69627718D01*
X109204308Y-69715932D01*
X109025232Y-69770254D01*
X108885665Y-69784000D01*
X108792335Y-69784000D01*
X108652768Y-69770254D01*
X108473692Y-69715932D01*
X108308655Y-69627718D01*
X108163999Y-69509001D01*
X108045282Y-69364345D01*
X107957068Y-69199308D01*
X107902746Y-69020232D01*
X107884404Y-68834000D01*
X107902746Y-68647768D01*
X107957068Y-68468692D01*
X108045282Y-68303655D01*
X108163999Y-68158999D01*
X108308655Y-68040282D01*
X108473692Y-67952068D01*
X108652768Y-67897746D01*
X108792335Y-67884000D01*
X108885665Y-67884000D01*
X109025232Y-67897746D01*
X109025232Y-67897746D01*
G37*
G36*
X119341926Y-67908339D02*
G01*
X119403106Y-67920508D01*
X119575995Y-67992121D01*
X119731591Y-68096087D01*
X119863913Y-68228409D01*
X119967879Y-68384005D01*
X120039492Y-68556894D01*
X120039492Y-68556895D01*
X120076000Y-68740433D01*
X120076000Y-68927567D01*
X120051661Y-69049926D01*
X120039492Y-69111106D01*
X119967879Y-69283995D01*
X119863913Y-69439591D01*
X119731591Y-69571913D01*
X119575995Y-69675879D01*
X119403106Y-69747492D01*
X119341926Y-69759661D01*
X119219567Y-69784000D01*
X119032433Y-69784000D01*
X118910074Y-69759661D01*
X118848894Y-69747492D01*
X118676005Y-69675879D01*
X118520409Y-69571913D01*
X118388087Y-69439591D01*
X118284121Y-69283995D01*
X118212508Y-69111106D01*
X118200339Y-69049926D01*
X118176000Y-68927567D01*
X118176000Y-68740433D01*
X118212508Y-68556895D01*
X118212508Y-68556894D01*
X118284121Y-68384005D01*
X118388087Y-68228409D01*
X118520409Y-68096087D01*
X118676005Y-67992121D01*
X118848894Y-67920508D01*
X118910074Y-67908339D01*
X119032433Y-67884000D01*
X119219567Y-67884000D01*
X119341926Y-67908339D01*
X119341926Y-67908339D01*
G37*
G36*
X116801926Y-67908339D02*
G01*
X116863106Y-67920508D01*
X117035995Y-67992121D01*
X117191591Y-68096087D01*
X117323913Y-68228409D01*
X117427879Y-68384005D01*
X117499492Y-68556894D01*
X117499492Y-68556895D01*
X117536000Y-68740433D01*
X117536000Y-68927567D01*
X117511661Y-69049926D01*
X117499492Y-69111106D01*
X117427879Y-69283995D01*
X117323913Y-69439591D01*
X117191591Y-69571913D01*
X117035995Y-69675879D01*
X116863106Y-69747492D01*
X116801926Y-69759661D01*
X116679567Y-69784000D01*
X116492433Y-69784000D01*
X116370074Y-69759661D01*
X116308894Y-69747492D01*
X116136005Y-69675879D01*
X115980409Y-69571913D01*
X115848087Y-69439591D01*
X115744121Y-69283995D01*
X115672508Y-69111106D01*
X115660339Y-69049926D01*
X115636000Y-68927567D01*
X115636000Y-68740433D01*
X115672508Y-68556895D01*
X115672508Y-68556894D01*
X115744121Y-68384005D01*
X115848087Y-68228409D01*
X115980409Y-68096087D01*
X116136005Y-67992121D01*
X116308894Y-67920508D01*
X116370074Y-67908339D01*
X116492433Y-67884000D01*
X116679567Y-67884000D01*
X116801926Y-67908339D01*
X116801926Y-67908339D01*
G37*
G36*
X106485232Y-65357746D02*
G01*
X106664308Y-65412068D01*
X106829345Y-65500282D01*
X106974001Y-65618999D01*
X107092718Y-65763655D01*
X107180932Y-65928692D01*
X107235254Y-66107768D01*
X107253596Y-66294000D01*
X107235254Y-66480232D01*
X107180932Y-66659308D01*
X107092718Y-66824345D01*
X106974001Y-66969001D01*
X106829345Y-67087718D01*
X106664308Y-67175932D01*
X106485232Y-67230254D01*
X106345665Y-67244000D01*
X106252335Y-67244000D01*
X106112768Y-67230254D01*
X105933692Y-67175932D01*
X105768655Y-67087718D01*
X105623999Y-66969001D01*
X105505282Y-66824345D01*
X105417068Y-66659308D01*
X105362746Y-66480232D01*
X105344404Y-66294000D01*
X105362746Y-66107768D01*
X105417068Y-65928692D01*
X105505282Y-65763655D01*
X105623999Y-65618999D01*
X105768655Y-65500282D01*
X105933692Y-65412068D01*
X106112768Y-65357746D01*
X106252335Y-65344000D01*
X106345665Y-65344000D01*
X106485232Y-65357746D01*
X106485232Y-65357746D01*
G37*
G36*
X116801926Y-65368339D02*
G01*
X116863106Y-65380508D01*
X117035995Y-65452121D01*
X117191591Y-65556087D01*
X117323913Y-65688409D01*
X117427879Y-65844005D01*
X117499492Y-66016894D01*
X117499492Y-66016895D01*
X117536000Y-66200433D01*
X117536000Y-66387567D01*
X117511661Y-66509926D01*
X117499492Y-66571106D01*
X117427879Y-66743995D01*
X117323913Y-66899591D01*
X117191591Y-67031913D01*
X117035995Y-67135879D01*
X116863106Y-67207492D01*
X116801926Y-67219661D01*
X116679567Y-67244000D01*
X116492433Y-67244000D01*
X116370074Y-67219661D01*
X116308894Y-67207492D01*
X116136005Y-67135879D01*
X115980409Y-67031913D01*
X115848087Y-66899591D01*
X115744121Y-66743995D01*
X115672508Y-66571106D01*
X115660339Y-66509926D01*
X115636000Y-66387567D01*
X115636000Y-66200433D01*
X115672508Y-66016895D01*
X115672508Y-66016894D01*
X115744121Y-65844005D01*
X115848087Y-65688409D01*
X115980409Y-65556087D01*
X116136005Y-65452121D01*
X116308894Y-65380508D01*
X116370074Y-65368339D01*
X116492433Y-65344000D01*
X116679567Y-65344000D01*
X116801926Y-65368339D01*
X116801926Y-65368339D01*
G37*
G36*
X119341926Y-65368339D02*
G01*
X119403106Y-65380508D01*
X119575995Y-65452121D01*
X119731591Y-65556087D01*
X119863913Y-65688409D01*
X119967879Y-65844005D01*
X120039492Y-66016894D01*
X120039492Y-66016895D01*
X120076000Y-66200433D01*
X120076000Y-66387567D01*
X120051661Y-66509926D01*
X120039492Y-66571106D01*
X119967879Y-66743995D01*
X119863913Y-66899591D01*
X119731591Y-67031913D01*
X119575995Y-67135879D01*
X119403106Y-67207492D01*
X119341926Y-67219661D01*
X119219567Y-67244000D01*
X119032433Y-67244000D01*
X118910074Y-67219661D01*
X118848894Y-67207492D01*
X118676005Y-67135879D01*
X118520409Y-67031913D01*
X118388087Y-66899591D01*
X118284121Y-66743995D01*
X118212508Y-66571106D01*
X118200339Y-66509926D01*
X118176000Y-66387567D01*
X118176000Y-66200433D01*
X118212508Y-66016895D01*
X118212508Y-66016894D01*
X118284121Y-65844005D01*
X118388087Y-65688409D01*
X118520409Y-65556087D01*
X118676005Y-65452121D01*
X118848894Y-65380508D01*
X118910074Y-65368339D01*
X119032433Y-65344000D01*
X119219567Y-65344000D01*
X119341926Y-65368339D01*
X119341926Y-65368339D01*
G37*
G36*
X109025232Y-65357746D02*
G01*
X109204308Y-65412068D01*
X109369345Y-65500282D01*
X109514001Y-65618999D01*
X109632718Y-65763655D01*
X109720932Y-65928692D01*
X109775254Y-66107768D01*
X109793596Y-66294000D01*
X109775254Y-66480232D01*
X109720932Y-66659308D01*
X109632718Y-66824345D01*
X109514001Y-66969001D01*
X109369345Y-67087718D01*
X109204308Y-67175932D01*
X109025232Y-67230254D01*
X108885665Y-67244000D01*
X108792335Y-67244000D01*
X108652768Y-67230254D01*
X108473692Y-67175932D01*
X108308655Y-67087718D01*
X108163999Y-66969001D01*
X108045282Y-66824345D01*
X107957068Y-66659308D01*
X107902746Y-66480232D01*
X107884404Y-66294000D01*
X107902746Y-66107768D01*
X107957068Y-65928692D01*
X108045282Y-65763655D01*
X108163999Y-65618999D01*
X108308655Y-65500282D01*
X108473692Y-65412068D01*
X108652768Y-65357746D01*
X108792335Y-65344000D01*
X108885665Y-65344000D01*
X109025232Y-65357746D01*
X109025232Y-65357746D01*
G37*
G36*
X106485232Y-62817746D02*
G01*
X106664308Y-62872068D01*
X106829345Y-62960282D01*
X106974001Y-63078999D01*
X107092718Y-63223655D01*
X107180932Y-63388692D01*
X107235254Y-63567768D01*
X107253596Y-63754000D01*
X107235254Y-63940232D01*
X107180932Y-64119308D01*
X107092718Y-64284345D01*
X106974001Y-64429001D01*
X106829345Y-64547718D01*
X106664308Y-64635932D01*
X106485232Y-64690254D01*
X106345665Y-64704000D01*
X106252335Y-64704000D01*
X106112768Y-64690254D01*
X105933692Y-64635932D01*
X105768655Y-64547718D01*
X105623999Y-64429001D01*
X105505282Y-64284345D01*
X105417068Y-64119308D01*
X105362746Y-63940232D01*
X105344404Y-63754000D01*
X105362746Y-63567768D01*
X105417068Y-63388692D01*
X105505282Y-63223655D01*
X105623999Y-63078999D01*
X105768655Y-62960282D01*
X105933692Y-62872068D01*
X106112768Y-62817746D01*
X106252335Y-62804000D01*
X106345665Y-62804000D01*
X106485232Y-62817746D01*
X106485232Y-62817746D01*
G37*
G36*
X109025232Y-62817746D02*
G01*
X109204308Y-62872068D01*
X109369345Y-62960282D01*
X109514001Y-63078999D01*
X109632718Y-63223655D01*
X109720932Y-63388692D01*
X109775254Y-63567768D01*
X109793596Y-63754000D01*
X109775254Y-63940232D01*
X109720932Y-64119308D01*
X109632718Y-64284345D01*
X109514001Y-64429001D01*
X109369345Y-64547718D01*
X109204308Y-64635932D01*
X109025232Y-64690254D01*
X108885665Y-64704000D01*
X108792335Y-64704000D01*
X108652768Y-64690254D01*
X108473692Y-64635932D01*
X108308655Y-64547718D01*
X108163999Y-64429001D01*
X108045282Y-64284345D01*
X107957068Y-64119308D01*
X107902746Y-63940232D01*
X107884404Y-63754000D01*
X107902746Y-63567768D01*
X107957068Y-63388692D01*
X108045282Y-63223655D01*
X108163999Y-63078999D01*
X108308655Y-62960282D01*
X108473692Y-62872068D01*
X108652768Y-62817746D01*
X108792335Y-62804000D01*
X108885665Y-62804000D01*
X109025232Y-62817746D01*
X109025232Y-62817746D01*
G37*
G36*
X116801926Y-62828339D02*
G01*
X116863106Y-62840508D01*
X117035995Y-62912121D01*
X117191591Y-63016087D01*
X117323913Y-63148409D01*
X117427879Y-63304005D01*
X117499492Y-63476894D01*
X117499492Y-63476895D01*
X117536000Y-63660433D01*
X117536000Y-63847567D01*
X117511661Y-63969926D01*
X117499492Y-64031106D01*
X117427879Y-64203995D01*
X117323913Y-64359591D01*
X117191591Y-64491913D01*
X117035995Y-64595879D01*
X116863106Y-64667492D01*
X116801926Y-64679661D01*
X116679567Y-64704000D01*
X116492433Y-64704000D01*
X116370074Y-64679661D01*
X116308894Y-64667492D01*
X116136005Y-64595879D01*
X115980409Y-64491913D01*
X115848087Y-64359591D01*
X115744121Y-64203995D01*
X115672508Y-64031106D01*
X115660339Y-63969926D01*
X115636000Y-63847567D01*
X115636000Y-63660433D01*
X115672508Y-63476895D01*
X115672508Y-63476894D01*
X115744121Y-63304005D01*
X115848087Y-63148409D01*
X115980409Y-63016087D01*
X116136005Y-62912121D01*
X116308894Y-62840508D01*
X116370074Y-62828339D01*
X116492433Y-62804000D01*
X116679567Y-62804000D01*
X116801926Y-62828339D01*
X116801926Y-62828339D01*
G37*
G36*
X119341926Y-62828339D02*
G01*
X119403106Y-62840508D01*
X119575995Y-62912121D01*
X119731591Y-63016087D01*
X119863913Y-63148409D01*
X119967879Y-63304005D01*
X120039492Y-63476894D01*
X120039492Y-63476895D01*
X120076000Y-63660433D01*
X120076000Y-63847567D01*
X120051661Y-63969926D01*
X120039492Y-64031106D01*
X119967879Y-64203995D01*
X119863913Y-64359591D01*
X119731591Y-64491913D01*
X119575995Y-64595879D01*
X119403106Y-64667492D01*
X119341926Y-64679661D01*
X119219567Y-64704000D01*
X119032433Y-64704000D01*
X118910074Y-64679661D01*
X118848894Y-64667492D01*
X118676005Y-64595879D01*
X118520409Y-64491913D01*
X118388087Y-64359591D01*
X118284121Y-64203995D01*
X118212508Y-64031106D01*
X118200339Y-63969926D01*
X118176000Y-63847567D01*
X118176000Y-63660433D01*
X118212508Y-63476895D01*
X118212508Y-63476894D01*
X118284121Y-63304005D01*
X118388087Y-63148409D01*
X118520409Y-63016087D01*
X118676005Y-62912121D01*
X118848894Y-62840508D01*
X118910074Y-62828339D01*
X119032433Y-62804000D01*
X119219567Y-62804000D01*
X119341926Y-62828339D01*
X119341926Y-62828339D01*
G37*
G36*
X119341926Y-60288339D02*
G01*
X119403106Y-60300508D01*
X119575995Y-60372121D01*
X119731591Y-60476087D01*
X119863913Y-60608409D01*
X119967879Y-60764005D01*
X120039492Y-60936894D01*
X120039492Y-60936895D01*
X120076000Y-61120433D01*
X120076000Y-61307567D01*
X120051661Y-61429926D01*
X120039492Y-61491106D01*
X119967879Y-61663995D01*
X119863913Y-61819591D01*
X119731591Y-61951913D01*
X119575995Y-62055879D01*
X119403106Y-62127492D01*
X119341926Y-62139661D01*
X119219567Y-62164000D01*
X119032433Y-62164000D01*
X118910074Y-62139661D01*
X118848894Y-62127492D01*
X118676005Y-62055879D01*
X118520409Y-61951913D01*
X118388087Y-61819591D01*
X118284121Y-61663995D01*
X118212508Y-61491106D01*
X118200339Y-61429926D01*
X118176000Y-61307567D01*
X118176000Y-61120433D01*
X118212508Y-60936895D01*
X118212508Y-60936894D01*
X118284121Y-60764005D01*
X118388087Y-60608409D01*
X118520409Y-60476087D01*
X118676005Y-60372121D01*
X118848894Y-60300508D01*
X118910074Y-60288339D01*
X119032433Y-60264000D01*
X119219567Y-60264000D01*
X119341926Y-60288339D01*
X119341926Y-60288339D01*
G37*
G36*
X116801926Y-60288339D02*
G01*
X116863106Y-60300508D01*
X117035995Y-60372121D01*
X117191591Y-60476087D01*
X117323913Y-60608409D01*
X117427879Y-60764005D01*
X117499492Y-60936894D01*
X117499492Y-60936895D01*
X117536000Y-61120433D01*
X117536000Y-61307567D01*
X117511661Y-61429926D01*
X117499492Y-61491106D01*
X117427879Y-61663995D01*
X117323913Y-61819591D01*
X117191591Y-61951913D01*
X117035995Y-62055879D01*
X116863106Y-62127492D01*
X116801926Y-62139661D01*
X116679567Y-62164000D01*
X116492433Y-62164000D01*
X116370074Y-62139661D01*
X116308894Y-62127492D01*
X116136005Y-62055879D01*
X115980409Y-61951913D01*
X115848087Y-61819591D01*
X115744121Y-61663995D01*
X115672508Y-61491106D01*
X115660339Y-61429926D01*
X115636000Y-61307567D01*
X115636000Y-61120433D01*
X115672508Y-60936895D01*
X115672508Y-60936894D01*
X115744121Y-60764005D01*
X115848087Y-60608409D01*
X115980409Y-60476087D01*
X116136005Y-60372121D01*
X116308894Y-60300508D01*
X116370074Y-60288339D01*
X116492433Y-60264000D01*
X116679567Y-60264000D01*
X116801926Y-60288339D01*
X116801926Y-60288339D01*
G37*
G36*
X109025232Y-60277746D02*
G01*
X109204308Y-60332068D01*
X109369345Y-60420282D01*
X109514001Y-60538999D01*
X109632718Y-60683655D01*
X109720932Y-60848692D01*
X109775254Y-61027768D01*
X109793596Y-61214000D01*
X109775254Y-61400232D01*
X109720932Y-61579308D01*
X109632718Y-61744345D01*
X109514001Y-61889001D01*
X109369345Y-62007718D01*
X109204308Y-62095932D01*
X109025232Y-62150254D01*
X108885665Y-62164000D01*
X108792335Y-62164000D01*
X108652768Y-62150254D01*
X108473692Y-62095932D01*
X108308655Y-62007718D01*
X108163999Y-61889001D01*
X108045282Y-61744345D01*
X107957068Y-61579308D01*
X107902746Y-61400232D01*
X107884404Y-61214000D01*
X107902746Y-61027768D01*
X107957068Y-60848692D01*
X108045282Y-60683655D01*
X108163999Y-60538999D01*
X108308655Y-60420282D01*
X108473692Y-60332068D01*
X108652768Y-60277746D01*
X108792335Y-60264000D01*
X108885665Y-60264000D01*
X109025232Y-60277746D01*
X109025232Y-60277746D01*
G37*
G36*
X106485232Y-60277746D02*
G01*
X106664308Y-60332068D01*
X106829345Y-60420282D01*
X106974001Y-60538999D01*
X107092718Y-60683655D01*
X107180932Y-60848692D01*
X107235254Y-61027768D01*
X107253596Y-61214000D01*
X107235254Y-61400232D01*
X107180932Y-61579308D01*
X107092718Y-61744345D01*
X106974001Y-61889001D01*
X106829345Y-62007718D01*
X106664308Y-62095932D01*
X106485232Y-62150254D01*
X106345665Y-62164000D01*
X106252335Y-62164000D01*
X106112768Y-62150254D01*
X105933692Y-62095932D01*
X105768655Y-62007718D01*
X105623999Y-61889001D01*
X105505282Y-61744345D01*
X105417068Y-61579308D01*
X105362746Y-61400232D01*
X105344404Y-61214000D01*
X105362746Y-61027768D01*
X105417068Y-60848692D01*
X105505282Y-60683655D01*
X105623999Y-60538999D01*
X105768655Y-60420282D01*
X105933692Y-60332068D01*
X106112768Y-60277746D01*
X106252335Y-60264000D01*
X106345665Y-60264000D01*
X106485232Y-60277746D01*
X106485232Y-60277746D01*
G37*
G36*
X109025232Y-57737746D02*
G01*
X109204308Y-57792068D01*
X109369345Y-57880282D01*
X109514001Y-57998999D01*
X109632718Y-58143655D01*
X109720932Y-58308692D01*
X109775254Y-58487768D01*
X109793596Y-58674000D01*
X109775254Y-58860232D01*
X109720932Y-59039308D01*
X109632718Y-59204345D01*
X109514001Y-59349001D01*
X109369345Y-59467718D01*
X109204308Y-59555932D01*
X109025232Y-59610254D01*
X108885665Y-59624000D01*
X108792335Y-59624000D01*
X108652768Y-59610254D01*
X108473692Y-59555932D01*
X108308655Y-59467718D01*
X108163999Y-59349001D01*
X108045282Y-59204345D01*
X107957068Y-59039308D01*
X107902746Y-58860232D01*
X107884404Y-58674000D01*
X107902746Y-58487768D01*
X107957068Y-58308692D01*
X108045282Y-58143655D01*
X108163999Y-57998999D01*
X108308655Y-57880282D01*
X108473692Y-57792068D01*
X108652768Y-57737746D01*
X108792335Y-57724000D01*
X108885665Y-57724000D01*
X109025232Y-57737746D01*
X109025232Y-57737746D01*
G37*
G36*
X106485232Y-57737746D02*
G01*
X106664308Y-57792068D01*
X106829345Y-57880282D01*
X106974001Y-57998999D01*
X107092718Y-58143655D01*
X107180932Y-58308692D01*
X107235254Y-58487768D01*
X107253596Y-58674000D01*
X107235254Y-58860232D01*
X107180932Y-59039308D01*
X107092718Y-59204345D01*
X106974001Y-59349001D01*
X106829345Y-59467718D01*
X106664308Y-59555932D01*
X106485232Y-59610254D01*
X106345665Y-59624000D01*
X106252335Y-59624000D01*
X106112768Y-59610254D01*
X105933692Y-59555932D01*
X105768655Y-59467718D01*
X105623999Y-59349001D01*
X105505282Y-59204345D01*
X105417068Y-59039308D01*
X105362746Y-58860232D01*
X105344404Y-58674000D01*
X105362746Y-58487768D01*
X105417068Y-58308692D01*
X105505282Y-58143655D01*
X105623999Y-57998999D01*
X105768655Y-57880282D01*
X105933692Y-57792068D01*
X106112768Y-57737746D01*
X106252335Y-57724000D01*
X106345665Y-57724000D01*
X106485232Y-57737746D01*
X106485232Y-57737746D01*
G37*
G36*
X119341926Y-57748339D02*
G01*
X119403106Y-57760508D01*
X119575995Y-57832121D01*
X119731591Y-57936087D01*
X119863913Y-58068409D01*
X119967879Y-58224005D01*
X120039492Y-58396894D01*
X120039492Y-58396895D01*
X120076000Y-58580433D01*
X120076000Y-58767567D01*
X120051661Y-58889926D01*
X120039492Y-58951106D01*
X119967879Y-59123995D01*
X119863913Y-59279591D01*
X119731591Y-59411913D01*
X119575995Y-59515879D01*
X119403106Y-59587492D01*
X119341926Y-59599661D01*
X119219567Y-59624000D01*
X119032433Y-59624000D01*
X118910074Y-59599661D01*
X118848894Y-59587492D01*
X118676005Y-59515879D01*
X118520409Y-59411913D01*
X118388087Y-59279591D01*
X118284121Y-59123995D01*
X118212508Y-58951106D01*
X118200339Y-58889926D01*
X118176000Y-58767567D01*
X118176000Y-58580433D01*
X118212508Y-58396895D01*
X118212508Y-58396894D01*
X118284121Y-58224005D01*
X118388087Y-58068409D01*
X118520409Y-57936087D01*
X118676005Y-57832121D01*
X118848894Y-57760508D01*
X118910074Y-57748339D01*
X119032433Y-57724000D01*
X119219567Y-57724000D01*
X119341926Y-57748339D01*
X119341926Y-57748339D01*
G37*
G36*
X116801926Y-57748339D02*
G01*
X116863106Y-57760508D01*
X117035995Y-57832121D01*
X117191591Y-57936087D01*
X117323913Y-58068409D01*
X117427879Y-58224005D01*
X117499492Y-58396894D01*
X117499492Y-58396895D01*
X117536000Y-58580433D01*
X117536000Y-58767567D01*
X117511661Y-58889926D01*
X117499492Y-58951106D01*
X117427879Y-59123995D01*
X117323913Y-59279591D01*
X117191591Y-59411913D01*
X117035995Y-59515879D01*
X116863106Y-59587492D01*
X116801926Y-59599661D01*
X116679567Y-59624000D01*
X116492433Y-59624000D01*
X116370074Y-59599661D01*
X116308894Y-59587492D01*
X116136005Y-59515879D01*
X115980409Y-59411913D01*
X115848087Y-59279591D01*
X115744121Y-59123995D01*
X115672508Y-58951106D01*
X115660339Y-58889926D01*
X115636000Y-58767567D01*
X115636000Y-58580433D01*
X115672508Y-58396895D01*
X115672508Y-58396894D01*
X115744121Y-58224005D01*
X115848087Y-58068409D01*
X115980409Y-57936087D01*
X116136005Y-57832121D01*
X116308894Y-57760508D01*
X116370074Y-57748339D01*
X116492433Y-57724000D01*
X116679567Y-57724000D01*
X116801926Y-57748339D01*
X116801926Y-57748339D01*
G37*
G36*
X109025232Y-55197746D02*
G01*
X109204308Y-55252068D01*
X109369345Y-55340282D01*
X109514001Y-55458999D01*
X109632718Y-55603655D01*
X109720932Y-55768692D01*
X109775254Y-55947768D01*
X109793596Y-56134000D01*
X109775254Y-56320232D01*
X109720932Y-56499308D01*
X109632718Y-56664345D01*
X109514001Y-56809001D01*
X109369345Y-56927718D01*
X109204308Y-57015932D01*
X109025232Y-57070254D01*
X108885665Y-57084000D01*
X108792335Y-57084000D01*
X108652768Y-57070254D01*
X108473692Y-57015932D01*
X108308655Y-56927718D01*
X108163999Y-56809001D01*
X108045282Y-56664345D01*
X107957068Y-56499308D01*
X107902746Y-56320232D01*
X107884404Y-56134000D01*
X107902746Y-55947768D01*
X107957068Y-55768692D01*
X108045282Y-55603655D01*
X108163999Y-55458999D01*
X108308655Y-55340282D01*
X108473692Y-55252068D01*
X108652768Y-55197746D01*
X108792335Y-55184000D01*
X108885665Y-55184000D01*
X109025232Y-55197746D01*
X109025232Y-55197746D01*
G37*
G36*
X106485232Y-55197746D02*
G01*
X106664308Y-55252068D01*
X106829345Y-55340282D01*
X106974001Y-55458999D01*
X107092718Y-55603655D01*
X107180932Y-55768692D01*
X107235254Y-55947768D01*
X107253596Y-56134000D01*
X107235254Y-56320232D01*
X107180932Y-56499308D01*
X107092718Y-56664345D01*
X106974001Y-56809001D01*
X106829345Y-56927718D01*
X106664308Y-57015932D01*
X106485232Y-57070254D01*
X106345665Y-57084000D01*
X106252335Y-57084000D01*
X106112768Y-57070254D01*
X105933692Y-57015932D01*
X105768655Y-56927718D01*
X105623999Y-56809001D01*
X105505282Y-56664345D01*
X105417068Y-56499308D01*
X105362746Y-56320232D01*
X105344404Y-56134000D01*
X105362746Y-55947768D01*
X105417068Y-55768692D01*
X105505282Y-55603655D01*
X105623999Y-55458999D01*
X105768655Y-55340282D01*
X105933692Y-55252068D01*
X106112768Y-55197746D01*
X106252335Y-55184000D01*
X106345665Y-55184000D01*
X106485232Y-55197746D01*
X106485232Y-55197746D01*
G37*
G36*
X119341926Y-55208339D02*
G01*
X119403106Y-55220508D01*
X119575995Y-55292121D01*
X119731591Y-55396087D01*
X119863913Y-55528409D01*
X119967879Y-55684005D01*
X120039492Y-55856894D01*
X120039492Y-55856895D01*
X120076000Y-56040433D01*
X120076000Y-56227567D01*
X120051661Y-56349926D01*
X120039492Y-56411106D01*
X119967879Y-56583995D01*
X119863913Y-56739591D01*
X119731591Y-56871913D01*
X119575995Y-56975879D01*
X119403106Y-57047492D01*
X119341926Y-57059661D01*
X119219567Y-57084000D01*
X119032433Y-57084000D01*
X118910074Y-57059661D01*
X118848894Y-57047492D01*
X118676005Y-56975879D01*
X118520409Y-56871913D01*
X118388087Y-56739591D01*
X118284121Y-56583995D01*
X118212508Y-56411106D01*
X118200339Y-56349926D01*
X118176000Y-56227567D01*
X118176000Y-56040433D01*
X118212508Y-55856895D01*
X118212508Y-55856894D01*
X118284121Y-55684005D01*
X118388087Y-55528409D01*
X118520409Y-55396087D01*
X118676005Y-55292121D01*
X118848894Y-55220508D01*
X118910074Y-55208339D01*
X119032433Y-55184000D01*
X119219567Y-55184000D01*
X119341926Y-55208339D01*
X119341926Y-55208339D01*
G37*
G36*
X116801926Y-55208339D02*
G01*
X116863106Y-55220508D01*
X117035995Y-55292121D01*
X117191591Y-55396087D01*
X117323913Y-55528409D01*
X117427879Y-55684005D01*
X117499492Y-55856894D01*
X117499492Y-55856895D01*
X117536000Y-56040433D01*
X117536000Y-56227567D01*
X117511661Y-56349926D01*
X117499492Y-56411106D01*
X117427879Y-56583995D01*
X117323913Y-56739591D01*
X117191591Y-56871913D01*
X117035995Y-56975879D01*
X116863106Y-57047492D01*
X116801926Y-57059661D01*
X116679567Y-57084000D01*
X116492433Y-57084000D01*
X116370074Y-57059661D01*
X116308894Y-57047492D01*
X116136005Y-56975879D01*
X115980409Y-56871913D01*
X115848087Y-56739591D01*
X115744121Y-56583995D01*
X115672508Y-56411106D01*
X115660339Y-56349926D01*
X115636000Y-56227567D01*
X115636000Y-56040433D01*
X115672508Y-55856895D01*
X115672508Y-55856894D01*
X115744121Y-55684005D01*
X115848087Y-55528409D01*
X115980409Y-55396087D01*
X116136005Y-55292121D01*
X116308894Y-55220508D01*
X116370074Y-55208339D01*
X116492433Y-55184000D01*
X116679567Y-55184000D01*
X116801926Y-55208339D01*
X116801926Y-55208339D01*
G37*
G36*
X109025232Y-52657746D02*
G01*
X109204308Y-52712068D01*
X109369345Y-52800282D01*
X109514001Y-52918999D01*
X109632718Y-53063655D01*
X109720932Y-53228692D01*
X109775254Y-53407768D01*
X109793596Y-53594000D01*
X109775254Y-53780232D01*
X109720932Y-53959308D01*
X109632718Y-54124345D01*
X109514001Y-54269001D01*
X109369345Y-54387718D01*
X109204308Y-54475932D01*
X109025232Y-54530254D01*
X108885665Y-54544000D01*
X108792335Y-54544000D01*
X108652768Y-54530254D01*
X108473692Y-54475932D01*
X108308655Y-54387718D01*
X108163999Y-54269001D01*
X108045282Y-54124345D01*
X107957068Y-53959308D01*
X107902746Y-53780232D01*
X107884404Y-53594000D01*
X107902746Y-53407768D01*
X107957068Y-53228692D01*
X108045282Y-53063655D01*
X108163999Y-52918999D01*
X108308655Y-52800282D01*
X108473692Y-52712068D01*
X108652768Y-52657746D01*
X108792335Y-52644000D01*
X108885665Y-52644000D01*
X109025232Y-52657746D01*
X109025232Y-52657746D01*
G37*
G36*
X107249000Y-54544000D02*
G01*
X105349000Y-54544000D01*
X105349000Y-52644000D01*
X107249000Y-52644000D01*
X107249000Y-54544000D01*
X107249000Y-54544000D01*
G37*
G36*
X119341926Y-52668339D02*
G01*
X119403106Y-52680508D01*
X119575995Y-52752121D01*
X119731591Y-52856087D01*
X119863913Y-52988409D01*
X119967879Y-53144005D01*
X120039492Y-53316894D01*
X120039492Y-53316895D01*
X120076000Y-53500433D01*
X120076000Y-53687567D01*
X120051661Y-53809926D01*
X120039492Y-53871106D01*
X119967879Y-54043995D01*
X119863913Y-54199591D01*
X119731591Y-54331913D01*
X119575995Y-54435879D01*
X119403106Y-54507492D01*
X119341926Y-54519661D01*
X119219567Y-54544000D01*
X119032433Y-54544000D01*
X118910074Y-54519661D01*
X118848894Y-54507492D01*
X118676005Y-54435879D01*
X118520409Y-54331913D01*
X118388087Y-54199591D01*
X118284121Y-54043995D01*
X118212508Y-53871106D01*
X118200339Y-53809926D01*
X118176000Y-53687567D01*
X118176000Y-53500433D01*
X118212508Y-53316895D01*
X118212508Y-53316894D01*
X118284121Y-53144005D01*
X118388087Y-52988409D01*
X118520409Y-52856087D01*
X118676005Y-52752121D01*
X118848894Y-52680508D01*
X118910074Y-52668339D01*
X119032433Y-52644000D01*
X119219567Y-52644000D01*
X119341926Y-52668339D01*
X119341926Y-52668339D01*
G37*
G36*
X117536000Y-54544000D02*
G01*
X115636000Y-54544000D01*
X115636000Y-52644000D01*
X117536000Y-52644000D01*
X117536000Y-54544000D01*
X117536000Y-54544000D01*
G37*
G36*
X45340182Y-51447901D02*
G01*
X45467574Y-51500668D01*
X45467575Y-51500669D01*
X45467578Y-51500670D01*
X45582224Y-51577274D01*
X45679726Y-51674776D01*
X45756330Y-51789422D01*
X45809099Y-51916818D01*
X45836000Y-52052058D01*
X45836000Y-52189942D01*
X45809099Y-52325182D01*
X45756330Y-52452578D01*
X45679726Y-52567224D01*
X45582224Y-52664726D01*
X45467578Y-52741330D01*
X45467575Y-52741331D01*
X45467574Y-52741332D01*
X45340182Y-52794099D01*
X45204944Y-52821000D01*
X45067056Y-52821000D01*
X44931818Y-52794099D01*
X44804426Y-52741332D01*
X44804425Y-52741331D01*
X44804422Y-52741330D01*
X44689776Y-52664726D01*
X44592274Y-52567224D01*
X44515670Y-52452578D01*
X44462901Y-52325182D01*
X44436000Y-52189942D01*
X44436000Y-52052058D01*
X44462901Y-51916818D01*
X44515670Y-51789422D01*
X44592274Y-51674776D01*
X44689776Y-51577274D01*
X44804422Y-51500670D01*
X44804425Y-51500669D01*
X44804426Y-51500668D01*
X44931818Y-51447901D01*
X45067056Y-51421000D01*
X45204944Y-51421000D01*
X45340182Y-51447901D01*
X45340182Y-51447901D01*
G37*
G36*
X45836000Y-50821000D02*
G01*
X44436000Y-50821000D01*
X44436000Y-49421000D01*
X45836000Y-49421000D01*
X45836000Y-50821000D01*
X45836000Y-50821000D01*
G37*
G36*
X49226182Y-44539101D02*
G01*
X49353574Y-44591868D01*
X49353575Y-44591869D01*
X49353578Y-44591870D01*
X49468224Y-44668474D01*
X49565726Y-44765976D01*
X49642330Y-44880622D01*
X49695099Y-45008018D01*
X49722000Y-45143258D01*
X49722000Y-45281142D01*
X49695099Y-45416382D01*
X49642330Y-45543778D01*
X49565726Y-45658424D01*
X49468224Y-45755926D01*
X49353578Y-45832530D01*
X49353575Y-45832531D01*
X49353574Y-45832532D01*
X49226182Y-45885299D01*
X49090944Y-45912200D01*
X48953056Y-45912200D01*
X48817818Y-45885299D01*
X48690426Y-45832532D01*
X48690425Y-45832531D01*
X48690422Y-45832530D01*
X48575776Y-45755926D01*
X48478274Y-45658424D01*
X48401670Y-45543778D01*
X48348901Y-45416382D01*
X48322000Y-45281142D01*
X48322000Y-45143258D01*
X48348901Y-45008018D01*
X48401670Y-44880622D01*
X48478274Y-44765976D01*
X48575776Y-44668474D01*
X48690422Y-44591870D01*
X48690425Y-44591869D01*
X48690426Y-44591868D01*
X48817818Y-44539101D01*
X48953056Y-44512200D01*
X49090944Y-44512200D01*
X49226182Y-44539101D01*
X49226182Y-44539101D01*
G37*
G36*
X49722000Y-43912200D02*
G01*
X48322000Y-43912200D01*
X48322000Y-42512200D01*
X49722000Y-42512200D01*
X49722000Y-43912200D01*
X49722000Y-43912200D01*
G37*
G36*
X63254520Y-38213186D02*
G01*
X63418310Y-38281030D01*
X63565717Y-38379524D01*
X63691076Y-38504883D01*
X63789570Y-38652290D01*
X63857414Y-38816080D01*
X63892000Y-38989958D01*
X63892000Y-39167242D01*
X63857414Y-39341120D01*
X63789570Y-39504910D01*
X63691076Y-39652317D01*
X63565717Y-39777676D01*
X63421815Y-39873828D01*
X63406605Y-39883991D01*
X63403660Y-39885565D01*
X63379414Y-39905463D01*
X63359515Y-39929708D01*
X63344729Y-39957370D01*
X63335624Y-39987384D01*
X63332549Y-40018598D01*
X63335623Y-40049813D01*
X63344727Y-40079827D01*
X63359512Y-40107489D01*
X63379410Y-40131735D01*
X63403655Y-40151634D01*
X63431317Y-40166420D01*
X63461331Y-40175525D01*
X63492548Y-40178600D01*
X63892000Y-40178600D01*
X63892000Y-41978600D01*
X62092000Y-41978600D01*
X62092000Y-40178600D01*
X62491452Y-40178600D01*
X62522666Y-40175526D01*
X62552681Y-40166421D01*
X62580343Y-40151635D01*
X62604588Y-40131737D01*
X62624486Y-40107492D01*
X62639272Y-40079830D01*
X62648377Y-40049815D01*
X62651451Y-40018601D01*
X62648377Y-39987387D01*
X62639272Y-39957372D01*
X62624486Y-39929710D01*
X62604588Y-39905465D01*
X62580343Y-39885567D01*
X62577398Y-39883993D01*
X62562185Y-39873828D01*
X62418283Y-39777676D01*
X62292924Y-39652317D01*
X62194430Y-39504910D01*
X62126586Y-39341120D01*
X62092000Y-39167242D01*
X62092000Y-38989958D01*
X62126586Y-38816080D01*
X62194430Y-38652290D01*
X62292924Y-38504883D01*
X62418283Y-38379524D01*
X62565690Y-38281030D01*
X62729480Y-38213186D01*
X62903358Y-38178600D01*
X63080642Y-38178600D01*
X63254520Y-38213186D01*
X63254520Y-38213186D01*
G37*
G36*
X94270620Y-38175086D02*
G01*
X94434410Y-38242930D01*
X94581817Y-38341424D01*
X94707176Y-38466783D01*
X94805670Y-38614190D01*
X94873514Y-38777980D01*
X94908100Y-38951858D01*
X94908100Y-39129142D01*
X94873514Y-39303020D01*
X94805670Y-39466810D01*
X94707176Y-39614217D01*
X94581817Y-39739576D01*
X94449315Y-39828111D01*
X94422705Y-39845891D01*
X94419760Y-39847465D01*
X94395514Y-39867363D01*
X94375615Y-39891608D01*
X94360829Y-39919270D01*
X94351724Y-39949284D01*
X94348649Y-39980498D01*
X94351723Y-40011713D01*
X94360827Y-40041727D01*
X94375612Y-40069389D01*
X94395510Y-40093635D01*
X94419755Y-40113534D01*
X94447417Y-40128320D01*
X94477431Y-40137425D01*
X94508648Y-40140500D01*
X94908100Y-40140500D01*
X94908100Y-41940500D01*
X93108100Y-41940500D01*
X93108100Y-40140500D01*
X93507552Y-40140500D01*
X93538766Y-40137426D01*
X93568781Y-40128321D01*
X93596443Y-40113535D01*
X93620688Y-40093637D01*
X93640586Y-40069392D01*
X93655372Y-40041730D01*
X93664477Y-40011715D01*
X93667551Y-39980501D01*
X93664477Y-39949287D01*
X93655372Y-39919272D01*
X93640586Y-39891610D01*
X93620688Y-39867365D01*
X93596443Y-39847467D01*
X93593498Y-39845893D01*
X93566885Y-39828111D01*
X93434383Y-39739576D01*
X93309024Y-39614217D01*
X93210530Y-39466810D01*
X93142686Y-39303020D01*
X93108100Y-39129142D01*
X93108100Y-38951858D01*
X93142686Y-38777980D01*
X93210530Y-38614190D01*
X93309024Y-38466783D01*
X93434383Y-38341424D01*
X93581790Y-38242930D01*
X93745580Y-38175086D01*
X93919458Y-38140500D01*
X94096742Y-38140500D01*
X94270620Y-38175086D01*
X94270620Y-38175086D01*
G37*
G36*
X85174920Y-38157306D02*
G01*
X85338710Y-38225150D01*
X85486117Y-38323644D01*
X85611476Y-38449003D01*
X85709970Y-38596410D01*
X85777814Y-38760200D01*
X85812400Y-38934078D01*
X85812400Y-39111362D01*
X85777814Y-39285240D01*
X85709970Y-39449030D01*
X85611476Y-39596437D01*
X85486117Y-39721796D01*
X85392742Y-39784187D01*
X85327005Y-39828111D01*
X85324060Y-39829685D01*
X85299814Y-39849583D01*
X85279915Y-39873828D01*
X85265129Y-39901490D01*
X85256024Y-39931504D01*
X85252949Y-39962718D01*
X85256023Y-39993933D01*
X85265127Y-40023947D01*
X85279912Y-40051609D01*
X85299810Y-40075855D01*
X85324055Y-40095754D01*
X85351717Y-40110540D01*
X85381731Y-40119645D01*
X85412948Y-40122720D01*
X85812400Y-40122720D01*
X85812400Y-41922720D01*
X84012400Y-41922720D01*
X84012400Y-40122720D01*
X84411852Y-40122720D01*
X84443066Y-40119646D01*
X84473081Y-40110541D01*
X84500743Y-40095755D01*
X84524988Y-40075857D01*
X84544886Y-40051612D01*
X84559672Y-40023950D01*
X84568777Y-39993935D01*
X84571851Y-39962721D01*
X84568777Y-39931507D01*
X84559672Y-39901492D01*
X84544886Y-39873830D01*
X84524988Y-39849585D01*
X84500743Y-39829687D01*
X84497798Y-39828113D01*
X84432058Y-39784187D01*
X84338683Y-39721796D01*
X84213324Y-39596437D01*
X84114830Y-39449030D01*
X84046986Y-39285240D01*
X84012400Y-39111362D01*
X84012400Y-38934078D01*
X84046986Y-38760200D01*
X84114830Y-38596410D01*
X84213324Y-38449003D01*
X84338683Y-38323644D01*
X84486090Y-38225150D01*
X84649880Y-38157306D01*
X84823758Y-38122720D01*
X85001042Y-38122720D01*
X85174920Y-38157306D01*
X85174920Y-38157306D01*
G37*
G36*
X117102520Y-38009986D02*
G01*
X117266310Y-38077830D01*
X117413717Y-38176324D01*
X117539076Y-38301683D01*
X117637570Y-38449090D01*
X117705414Y-38612880D01*
X117740000Y-38786758D01*
X117740000Y-38964042D01*
X117705414Y-39137920D01*
X117637570Y-39301710D01*
X117539076Y-39449117D01*
X117413717Y-39574476D01*
X117354240Y-39614217D01*
X117254605Y-39680791D01*
X117251660Y-39682365D01*
X117227414Y-39702263D01*
X117207515Y-39726508D01*
X117192729Y-39754170D01*
X117183624Y-39784184D01*
X117180549Y-39815398D01*
X117183623Y-39846613D01*
X117192727Y-39876627D01*
X117207512Y-39904289D01*
X117227410Y-39928535D01*
X117251655Y-39948434D01*
X117279317Y-39963220D01*
X117309331Y-39972325D01*
X117340548Y-39975400D01*
X117740000Y-39975400D01*
X117740000Y-41775400D01*
X115940000Y-41775400D01*
X115940000Y-39975400D01*
X116339452Y-39975400D01*
X116370666Y-39972326D01*
X116400681Y-39963221D01*
X116428343Y-39948435D01*
X116452588Y-39928537D01*
X116472486Y-39904292D01*
X116487272Y-39876630D01*
X116496377Y-39846615D01*
X116499451Y-39815401D01*
X116496377Y-39784187D01*
X116487272Y-39754172D01*
X116472486Y-39726510D01*
X116452588Y-39702265D01*
X116428343Y-39682367D01*
X116425398Y-39680793D01*
X116325760Y-39614217D01*
X116266283Y-39574476D01*
X116140924Y-39449117D01*
X116042430Y-39301710D01*
X115974586Y-39137920D01*
X115940000Y-38964042D01*
X115940000Y-38786758D01*
X115974586Y-38612880D01*
X116042430Y-38449090D01*
X116140924Y-38301683D01*
X116266283Y-38176324D01*
X116413690Y-38077830D01*
X116577480Y-38009986D01*
X116751358Y-37975400D01*
X116928642Y-37975400D01*
X117102520Y-38009986D01*
X117102520Y-38009986D01*
G37*
G36*
X28938182Y-39204901D02*
G01*
X29065574Y-39257668D01*
X29065575Y-39257669D01*
X29065578Y-39257670D01*
X29180224Y-39334274D01*
X29277726Y-39431776D01*
X29354330Y-39546422D01*
X29354331Y-39546425D01*
X29354332Y-39546426D01*
X29407099Y-39673818D01*
X29434000Y-39809056D01*
X29434000Y-39946944D01*
X29407099Y-40082182D01*
X29367162Y-40178600D01*
X29354330Y-40209578D01*
X29277726Y-40324224D01*
X29180224Y-40421726D01*
X29065578Y-40498330D01*
X29065575Y-40498331D01*
X29065574Y-40498332D01*
X28938182Y-40551099D01*
X28802944Y-40578000D01*
X28665056Y-40578000D01*
X28529818Y-40551099D01*
X28402426Y-40498332D01*
X28402425Y-40498331D01*
X28402422Y-40498330D01*
X28287776Y-40421726D01*
X28190274Y-40324224D01*
X28113670Y-40209578D01*
X28100839Y-40178600D01*
X28060901Y-40082182D01*
X28034000Y-39946944D01*
X28034000Y-39809056D01*
X28060901Y-39673818D01*
X28113668Y-39546426D01*
X28113669Y-39546425D01*
X28113670Y-39546422D01*
X28190274Y-39431776D01*
X28287776Y-39334274D01*
X28402422Y-39257670D01*
X28402425Y-39257669D01*
X28402426Y-39257668D01*
X28529818Y-39204901D01*
X28665056Y-39178000D01*
X28802944Y-39178000D01*
X28938182Y-39204901D01*
X28938182Y-39204901D01*
G37*
G36*
X31434000Y-40578000D02*
G01*
X30034000Y-40578000D01*
X30034000Y-39178000D01*
X31434000Y-39178000D01*
X31434000Y-40578000D01*
X31434000Y-40578000D01*
G37*
G36*
X50210182Y-35902901D02*
G01*
X50337574Y-35955668D01*
X50337575Y-35955669D01*
X50337578Y-35955670D01*
X50452224Y-36032274D01*
X50549726Y-36129776D01*
X50626330Y-36244422D01*
X50679099Y-36371818D01*
X50706000Y-36507058D01*
X50706000Y-36644942D01*
X50679099Y-36780182D01*
X50626330Y-36907578D01*
X50549726Y-37022224D01*
X50452224Y-37119726D01*
X50337578Y-37196330D01*
X50337575Y-37196331D01*
X50337574Y-37196332D01*
X50210182Y-37249099D01*
X50074944Y-37276000D01*
X49937056Y-37276000D01*
X49801818Y-37249099D01*
X49674426Y-37196332D01*
X49674425Y-37196331D01*
X49674422Y-37196330D01*
X49559776Y-37119726D01*
X49462274Y-37022224D01*
X49385670Y-36907578D01*
X49332901Y-36780182D01*
X49306000Y-36644942D01*
X49306000Y-36507058D01*
X49332901Y-36371818D01*
X49385670Y-36244422D01*
X49462274Y-36129776D01*
X49559776Y-36032274D01*
X49674422Y-35955670D01*
X49674425Y-35955669D01*
X49674426Y-35955668D01*
X49801818Y-35902901D01*
X49937056Y-35876000D01*
X50074944Y-35876000D01*
X50210182Y-35902901D01*
X50210182Y-35902901D01*
G37*
G36*
X48706000Y-37276000D02*
G01*
X47306000Y-37276000D01*
X47306000Y-35876000D01*
X48706000Y-35876000D01*
X48706000Y-37276000D01*
X48706000Y-37276000D01*
G37*
G36*
X52922000Y-27508000D02*
G01*
X52081999Y-27508000D01*
X52050785Y-27511074D01*
X52020770Y-27520179D01*
X51993108Y-27534965D01*
X51968863Y-27554863D01*
X51948965Y-27579108D01*
X51934179Y-27606770D01*
X51925074Y-27636785D01*
X51922000Y-27667999D01*
X51922000Y-32008000D01*
X48722000Y-32008000D01*
X48722000Y-27667999D01*
X48718926Y-27636785D01*
X48709821Y-27606770D01*
X48695035Y-27579108D01*
X48675137Y-27554863D01*
X48650892Y-27534965D01*
X48623230Y-27520179D01*
X48593215Y-27511074D01*
X48562001Y-27508000D01*
X47722000Y-27508000D01*
X47722000Y-24308000D01*
X52922000Y-24308000D01*
X52922000Y-27508000D01*
X52922000Y-27508000D01*
G37*
G36*
X85922000Y-27444000D02*
G01*
X85081999Y-27444000D01*
X85050785Y-27447074D01*
X85020770Y-27456179D01*
X84993108Y-27470965D01*
X84968863Y-27490863D01*
X84948965Y-27515108D01*
X84934179Y-27542770D01*
X84925074Y-27572785D01*
X84922000Y-27603999D01*
X84922000Y-31944000D01*
X81722000Y-31944000D01*
X81722000Y-27603999D01*
X81718926Y-27572785D01*
X81709821Y-27542770D01*
X81695035Y-27515108D01*
X81675137Y-27490863D01*
X81650892Y-27470965D01*
X81623230Y-27456179D01*
X81593215Y-27447074D01*
X81562001Y-27444000D01*
X80722000Y-27444000D01*
X80722000Y-24244000D01*
X85922000Y-24244000D01*
X85922000Y-27444000D01*
X85922000Y-27444000D01*
G37*
G36*
X71922000Y-27444000D02*
G01*
X71081999Y-27444000D01*
X71050785Y-27447074D01*
X71020770Y-27456179D01*
X70993108Y-27470965D01*
X70968863Y-27490863D01*
X70948965Y-27515108D01*
X70934179Y-27542770D01*
X70925074Y-27572785D01*
X70922000Y-27603999D01*
X70922000Y-31944000D01*
X67722000Y-31944000D01*
X67722000Y-27603999D01*
X67718926Y-27572785D01*
X67709821Y-27542770D01*
X67695035Y-27515108D01*
X67675137Y-27490863D01*
X67650892Y-27470965D01*
X67623230Y-27456179D01*
X67593215Y-27447074D01*
X67562001Y-27444000D01*
X66722000Y-27444000D01*
X66722000Y-24244000D01*
X71922000Y-24244000D01*
X71922000Y-27444000D01*
X71922000Y-27444000D01*
G37*
G36*
X38922000Y-27444000D02*
G01*
X38081999Y-27444000D01*
X38050785Y-27447074D01*
X38020770Y-27456179D01*
X37993108Y-27470965D01*
X37968863Y-27490863D01*
X37948965Y-27515108D01*
X37934179Y-27542770D01*
X37925074Y-27572785D01*
X37922000Y-27603999D01*
X37922000Y-31944000D01*
X34722000Y-31944000D01*
X34722000Y-27603999D01*
X34718926Y-27572785D01*
X34709821Y-27542770D01*
X34695035Y-27515108D01*
X34675137Y-27490863D01*
X34650892Y-27470965D01*
X34623230Y-27456179D01*
X34593215Y-27447074D01*
X34562001Y-27444000D01*
X33722000Y-27444000D01*
X33722000Y-24244000D01*
X38922000Y-24244000D01*
X38922000Y-27444000D01*
X38922000Y-27444000D01*
G37*
G36*
X99922000Y-27444000D02*
G01*
X99081999Y-27444000D01*
X99050785Y-27447074D01*
X99020770Y-27456179D01*
X98993108Y-27470965D01*
X98968863Y-27490863D01*
X98948965Y-27515108D01*
X98934179Y-27542770D01*
X98925074Y-27572785D01*
X98922000Y-27603999D01*
X98922000Y-31944000D01*
X95722000Y-31944000D01*
X95722000Y-27603999D01*
X95718926Y-27572785D01*
X95709821Y-27542770D01*
X95695035Y-27515108D01*
X95675137Y-27490863D01*
X95650892Y-27470965D01*
X95623230Y-27456179D01*
X95593215Y-27447074D01*
X95562001Y-27444000D01*
X94722000Y-27444000D01*
X94722000Y-24244000D01*
X99922000Y-24244000D01*
X99922000Y-27444000D01*
X99922000Y-27444000D01*
G37*
G36*
X113922000Y-27444000D02*
G01*
X113081999Y-27444000D01*
X113050785Y-27447074D01*
X113020770Y-27456179D01*
X112993108Y-27470965D01*
X112968863Y-27490863D01*
X112948965Y-27515108D01*
X112934179Y-27542770D01*
X112925074Y-27572785D01*
X112922000Y-27603999D01*
X112922000Y-31944000D01*
X109722000Y-31944000D01*
X109722000Y-27603999D01*
X109718926Y-27572785D01*
X109709821Y-27542770D01*
X109695035Y-27515108D01*
X109675137Y-27490863D01*
X109650892Y-27470965D01*
X109623230Y-27456179D01*
X109593215Y-27447074D01*
X109562001Y-27444000D01*
X108722000Y-27444000D01*
X108722000Y-24244000D01*
X113922000Y-24244000D01*
X113922000Y-27444000D01*
X113922000Y-27444000D01*
G37*
G36*
X28394574Y-22226817D02*
G01*
X28995136Y-22475578D01*
X28995137Y-22475579D01*
X29535630Y-22836725D01*
X29995275Y-23296370D01*
X29995277Y-23296373D01*
X30356422Y-23836864D01*
X30605183Y-24437426D01*
X30732000Y-25074978D01*
X30732000Y-25725022D01*
X30605183Y-26362574D01*
X30356422Y-26963136D01*
X30356421Y-26963137D01*
X29995275Y-27503630D01*
X29535630Y-27963275D01*
X29535627Y-27963277D01*
X28995136Y-28324422D01*
X28394574Y-28573183D01*
X27757022Y-28700000D01*
X27106978Y-28700000D01*
X26469426Y-28573183D01*
X25868864Y-28324422D01*
X25328373Y-27963277D01*
X25328370Y-27963275D01*
X24868725Y-27503630D01*
X24507579Y-26963137D01*
X24507578Y-26963136D01*
X24258817Y-26362574D01*
X24132000Y-25725022D01*
X24132000Y-25074978D01*
X24258817Y-24437426D01*
X24507578Y-23836864D01*
X24868723Y-23296373D01*
X24868725Y-23296370D01*
X25328370Y-22836725D01*
X25868863Y-22475579D01*
X25868864Y-22475578D01*
X26469426Y-22226817D01*
X27106978Y-22100000D01*
X27757022Y-22100000D01*
X28394574Y-22226817D01*
X28394574Y-22226817D01*
G37*
G36*
X121104574Y-22226817D02*
G01*
X121705136Y-22475578D01*
X121705137Y-22475579D01*
X122245630Y-22836725D01*
X122705275Y-23296370D01*
X122705277Y-23296373D01*
X123066422Y-23836864D01*
X123315183Y-24437426D01*
X123442000Y-25074978D01*
X123442000Y-25725022D01*
X123315183Y-26362574D01*
X123066422Y-26963136D01*
X123066421Y-26963137D01*
X122705275Y-27503630D01*
X122245630Y-27963275D01*
X122245627Y-27963277D01*
X121705136Y-28324422D01*
X121104574Y-28573183D01*
X120467022Y-28700000D01*
X119816978Y-28700000D01*
X119179426Y-28573183D01*
X118578864Y-28324422D01*
X118038373Y-27963277D01*
X118038370Y-27963275D01*
X117578725Y-27503630D01*
X117217579Y-26963137D01*
X117217578Y-26963136D01*
X116968817Y-26362574D01*
X116842000Y-25725022D01*
X116842000Y-25074978D01*
X116968817Y-24437426D01*
X117217578Y-23836864D01*
X117578723Y-23296373D01*
X117578725Y-23296370D01*
X118038370Y-22836725D01*
X118578863Y-22475579D01*
X118578864Y-22475578D01*
X119179426Y-22226817D01*
X119816978Y-22100000D01*
X120467022Y-22100000D01*
X121104574Y-22226817D01*
X121104574Y-22226817D01*
G37*
G36*
X54768033Y-20922470D02*
G01*
X54956534Y-20979651D01*
X55130258Y-21072508D01*
X55282528Y-21197472D01*
X55407492Y-21349742D01*
X55500349Y-21523465D01*
X55557530Y-21711966D01*
X55572000Y-21858880D01*
X55572000Y-22857119D01*
X55557530Y-23004034D01*
X55500349Y-23192535D01*
X55407492Y-23366258D01*
X55282528Y-23518528D01*
X55130258Y-23643492D01*
X54956535Y-23736349D01*
X54768034Y-23793530D01*
X54572000Y-23812838D01*
X54375967Y-23793530D01*
X54187466Y-23736349D01*
X54013743Y-23643492D01*
X53861473Y-23518528D01*
X53736509Y-23366258D01*
X53736508Y-23366257D01*
X53736506Y-23366254D01*
X53643653Y-23192539D01*
X53586470Y-23004034D01*
X53577375Y-22911689D01*
X53572000Y-22857120D01*
X53572000Y-21858881D01*
X53586470Y-21711967D01*
X53643651Y-21523466D01*
X53736508Y-21349742D01*
X53861472Y-21197472D01*
X54013742Y-21072508D01*
X54187465Y-20979651D01*
X54375966Y-20922470D01*
X54572000Y-20903162D01*
X54768033Y-20922470D01*
X54768033Y-20922470D01*
G37*
G36*
X46268033Y-20922470D02*
G01*
X46456534Y-20979651D01*
X46630258Y-21072508D01*
X46782528Y-21197472D01*
X46907492Y-21349742D01*
X47000349Y-21523465D01*
X47057530Y-21711966D01*
X47072000Y-21858880D01*
X47072000Y-22857119D01*
X47057530Y-23004034D01*
X47000349Y-23192535D01*
X46907492Y-23366258D01*
X46782528Y-23518528D01*
X46630258Y-23643492D01*
X46456535Y-23736349D01*
X46268034Y-23793530D01*
X46072000Y-23812838D01*
X45875967Y-23793530D01*
X45687466Y-23736349D01*
X45513743Y-23643492D01*
X45361473Y-23518528D01*
X45236509Y-23366258D01*
X45236508Y-23366257D01*
X45236506Y-23366254D01*
X45143653Y-23192539D01*
X45086470Y-23004034D01*
X45077375Y-22911689D01*
X45072000Y-22857120D01*
X45072000Y-21858881D01*
X45086470Y-21711967D01*
X45143651Y-21523466D01*
X45236508Y-21349742D01*
X45361472Y-21197472D01*
X45513742Y-21072508D01*
X45687465Y-20979651D01*
X45875966Y-20922470D01*
X46072000Y-20903162D01*
X46268033Y-20922470D01*
X46268033Y-20922470D01*
G37*
G36*
X73768033Y-20858470D02*
G01*
X73956534Y-20915651D01*
X74130258Y-21008508D01*
X74282528Y-21133472D01*
X74407492Y-21285742D01*
X74500349Y-21459465D01*
X74557530Y-21647966D01*
X74572000Y-21794880D01*
X74572000Y-22793119D01*
X74557530Y-22940034D01*
X74500349Y-23128535D01*
X74407492Y-23302258D01*
X74282528Y-23454528D01*
X74130258Y-23579492D01*
X73956535Y-23672349D01*
X73768034Y-23729530D01*
X73572000Y-23748838D01*
X73375967Y-23729530D01*
X73187466Y-23672349D01*
X73013743Y-23579492D01*
X72861473Y-23454528D01*
X72736509Y-23302258D01*
X72736508Y-23302257D01*
X72736506Y-23302254D01*
X72643653Y-23128539D01*
X72586470Y-22940034D01*
X72576295Y-22836723D01*
X72572000Y-22793120D01*
X72572000Y-21794881D01*
X72586470Y-21647967D01*
X72643651Y-21459466D01*
X72736508Y-21285742D01*
X72861472Y-21133472D01*
X73013742Y-21008508D01*
X73187465Y-20915651D01*
X73375966Y-20858470D01*
X73572000Y-20839162D01*
X73768033Y-20858470D01*
X73768033Y-20858470D01*
G37*
G36*
X79268033Y-20858470D02*
G01*
X79456534Y-20915651D01*
X79630258Y-21008508D01*
X79782528Y-21133472D01*
X79907492Y-21285742D01*
X80000349Y-21459465D01*
X80057530Y-21647966D01*
X80072000Y-21794880D01*
X80072000Y-22793119D01*
X80057530Y-22940034D01*
X80000349Y-23128535D01*
X79907492Y-23302258D01*
X79782528Y-23454528D01*
X79630258Y-23579492D01*
X79456535Y-23672349D01*
X79268034Y-23729530D01*
X79072000Y-23748838D01*
X78875967Y-23729530D01*
X78687466Y-23672349D01*
X78513743Y-23579492D01*
X78361473Y-23454528D01*
X78236509Y-23302258D01*
X78236508Y-23302257D01*
X78236506Y-23302254D01*
X78143653Y-23128539D01*
X78086470Y-22940034D01*
X78076295Y-22836723D01*
X78072000Y-22793120D01*
X78072000Y-21794881D01*
X78086470Y-21647967D01*
X78143651Y-21459466D01*
X78236508Y-21285742D01*
X78361472Y-21133472D01*
X78513742Y-21008508D01*
X78687465Y-20915651D01*
X78875966Y-20858470D01*
X79072000Y-20839162D01*
X79268033Y-20858470D01*
X79268033Y-20858470D01*
G37*
G36*
X87768033Y-20858470D02*
G01*
X87956534Y-20915651D01*
X88130258Y-21008508D01*
X88282528Y-21133472D01*
X88407492Y-21285742D01*
X88500349Y-21459465D01*
X88557530Y-21647966D01*
X88572000Y-21794880D01*
X88572000Y-22793119D01*
X88557530Y-22940034D01*
X88500349Y-23128535D01*
X88407492Y-23302258D01*
X88282528Y-23454528D01*
X88130258Y-23579492D01*
X87956535Y-23672349D01*
X87768034Y-23729530D01*
X87572000Y-23748838D01*
X87375967Y-23729530D01*
X87187466Y-23672349D01*
X87013743Y-23579492D01*
X86861473Y-23454528D01*
X86736509Y-23302258D01*
X86736508Y-23302257D01*
X86736506Y-23302254D01*
X86643653Y-23128539D01*
X86586470Y-22940034D01*
X86576295Y-22836723D01*
X86572000Y-22793120D01*
X86572000Y-21794881D01*
X86586470Y-21647967D01*
X86643651Y-21459466D01*
X86736508Y-21285742D01*
X86861472Y-21133472D01*
X87013742Y-21008508D01*
X87187465Y-20915651D01*
X87375966Y-20858470D01*
X87572000Y-20839162D01*
X87768033Y-20858470D01*
X87768033Y-20858470D01*
G37*
G36*
X93268033Y-20858470D02*
G01*
X93456534Y-20915651D01*
X93630258Y-21008508D01*
X93782528Y-21133472D01*
X93907492Y-21285742D01*
X94000349Y-21459465D01*
X94057530Y-21647966D01*
X94072000Y-21794880D01*
X94072000Y-22793119D01*
X94057530Y-22940034D01*
X94000349Y-23128535D01*
X93907492Y-23302258D01*
X93782528Y-23454528D01*
X93630258Y-23579492D01*
X93456535Y-23672349D01*
X93268034Y-23729530D01*
X93072000Y-23748838D01*
X92875967Y-23729530D01*
X92687466Y-23672349D01*
X92513743Y-23579492D01*
X92361473Y-23454528D01*
X92236509Y-23302258D01*
X92236508Y-23302257D01*
X92236506Y-23302254D01*
X92143653Y-23128539D01*
X92086470Y-22940034D01*
X92076295Y-22836723D01*
X92072000Y-22793120D01*
X92072000Y-21794881D01*
X92086470Y-21647967D01*
X92143651Y-21459466D01*
X92236508Y-21285742D01*
X92361472Y-21133472D01*
X92513742Y-21008508D01*
X92687465Y-20915651D01*
X92875966Y-20858470D01*
X93072000Y-20839162D01*
X93268033Y-20858470D01*
X93268033Y-20858470D01*
G37*
G36*
X101768033Y-20858470D02*
G01*
X101956534Y-20915651D01*
X102130258Y-21008508D01*
X102282528Y-21133472D01*
X102407492Y-21285742D01*
X102500349Y-21459465D01*
X102557530Y-21647966D01*
X102572000Y-21794880D01*
X102572000Y-22793119D01*
X102557530Y-22940034D01*
X102500349Y-23128535D01*
X102407492Y-23302258D01*
X102282528Y-23454528D01*
X102130258Y-23579492D01*
X101956535Y-23672349D01*
X101768034Y-23729530D01*
X101572000Y-23748838D01*
X101375967Y-23729530D01*
X101187466Y-23672349D01*
X101013743Y-23579492D01*
X100861473Y-23454528D01*
X100736509Y-23302258D01*
X100736508Y-23302257D01*
X100736506Y-23302254D01*
X100643653Y-23128539D01*
X100586470Y-22940034D01*
X100576295Y-22836723D01*
X100572000Y-22793120D01*
X100572000Y-21794881D01*
X100586470Y-21647967D01*
X100643651Y-21459466D01*
X100736508Y-21285742D01*
X100861472Y-21133472D01*
X101013742Y-21008508D01*
X101187465Y-20915651D01*
X101375966Y-20858470D01*
X101572000Y-20839162D01*
X101768033Y-20858470D01*
X101768033Y-20858470D01*
G37*
G36*
X32268033Y-20858470D02*
G01*
X32456534Y-20915651D01*
X32630258Y-21008508D01*
X32782528Y-21133472D01*
X32907492Y-21285742D01*
X33000349Y-21459465D01*
X33057530Y-21647966D01*
X33072000Y-21794880D01*
X33072000Y-22793119D01*
X33057530Y-22940034D01*
X33000349Y-23128535D01*
X32907492Y-23302258D01*
X32782528Y-23454528D01*
X32630258Y-23579492D01*
X32456535Y-23672349D01*
X32268034Y-23729530D01*
X32072000Y-23748838D01*
X31875967Y-23729530D01*
X31687466Y-23672349D01*
X31513743Y-23579492D01*
X31361473Y-23454528D01*
X31236509Y-23302258D01*
X31236508Y-23302257D01*
X31236506Y-23302254D01*
X31143653Y-23128539D01*
X31086470Y-22940034D01*
X31076295Y-22836723D01*
X31072000Y-22793120D01*
X31072000Y-21794881D01*
X31086470Y-21647967D01*
X31143651Y-21459466D01*
X31236508Y-21285742D01*
X31361472Y-21133472D01*
X31513742Y-21008508D01*
X31687465Y-20915651D01*
X31875966Y-20858470D01*
X32072000Y-20839162D01*
X32268033Y-20858470D01*
X32268033Y-20858470D01*
G37*
G36*
X40768033Y-20858470D02*
G01*
X40956534Y-20915651D01*
X41130258Y-21008508D01*
X41282528Y-21133472D01*
X41407492Y-21285742D01*
X41500349Y-21459465D01*
X41557530Y-21647966D01*
X41572000Y-21794880D01*
X41572000Y-22793119D01*
X41557530Y-22940034D01*
X41500349Y-23128535D01*
X41407492Y-23302258D01*
X41282528Y-23454528D01*
X41130258Y-23579492D01*
X40956535Y-23672349D01*
X40768034Y-23729530D01*
X40572000Y-23748838D01*
X40375967Y-23729530D01*
X40187466Y-23672349D01*
X40013743Y-23579492D01*
X39861473Y-23454528D01*
X39736509Y-23302258D01*
X39736508Y-23302257D01*
X39736506Y-23302254D01*
X39643653Y-23128539D01*
X39586470Y-22940034D01*
X39576295Y-22836723D01*
X39572000Y-22793120D01*
X39572000Y-21794881D01*
X39586470Y-21647967D01*
X39643651Y-21459466D01*
X39736508Y-21285742D01*
X39861472Y-21133472D01*
X40013742Y-21008508D01*
X40187465Y-20915651D01*
X40375966Y-20858470D01*
X40572000Y-20839162D01*
X40768033Y-20858470D01*
X40768033Y-20858470D01*
G37*
G36*
X115768033Y-20858470D02*
G01*
X115956534Y-20915651D01*
X116130258Y-21008508D01*
X116282528Y-21133472D01*
X116407492Y-21285742D01*
X116500349Y-21459465D01*
X116557530Y-21647966D01*
X116572000Y-21794880D01*
X116572000Y-22793119D01*
X116557530Y-22940034D01*
X116500349Y-23128535D01*
X116407492Y-23302258D01*
X116282528Y-23454528D01*
X116130258Y-23579492D01*
X115956535Y-23672349D01*
X115768034Y-23729530D01*
X115572000Y-23748838D01*
X115375967Y-23729530D01*
X115187466Y-23672349D01*
X115013743Y-23579492D01*
X114861473Y-23454528D01*
X114736509Y-23302258D01*
X114736508Y-23302257D01*
X114736506Y-23302254D01*
X114643653Y-23128539D01*
X114586470Y-22940034D01*
X114576295Y-22836723D01*
X114572000Y-22793120D01*
X114572000Y-21794881D01*
X114586470Y-21647967D01*
X114643651Y-21459466D01*
X114736508Y-21285742D01*
X114861472Y-21133472D01*
X115013742Y-21008508D01*
X115187465Y-20915651D01*
X115375966Y-20858470D01*
X115572000Y-20839162D01*
X115768033Y-20858470D01*
X115768033Y-20858470D01*
G37*
G36*
X107268033Y-20858470D02*
G01*
X107456534Y-20915651D01*
X107630258Y-21008508D01*
X107782528Y-21133472D01*
X107907492Y-21285742D01*
X108000349Y-21459465D01*
X108057530Y-21647966D01*
X108072000Y-21794880D01*
X108072000Y-22793119D01*
X108057530Y-22940034D01*
X108000349Y-23128535D01*
X107907492Y-23302258D01*
X107782528Y-23454528D01*
X107630258Y-23579492D01*
X107456535Y-23672349D01*
X107268034Y-23729530D01*
X107072000Y-23748838D01*
X106875967Y-23729530D01*
X106687466Y-23672349D01*
X106513743Y-23579492D01*
X106361473Y-23454528D01*
X106236509Y-23302258D01*
X106236508Y-23302257D01*
X106236506Y-23302254D01*
X106143653Y-23128539D01*
X106086470Y-22940034D01*
X106076295Y-22836723D01*
X106072000Y-22793120D01*
X106072000Y-21794881D01*
X106086470Y-21647967D01*
X106143651Y-21459466D01*
X106236508Y-21285742D01*
X106361472Y-21133472D01*
X106513742Y-21008508D01*
X106687465Y-20915651D01*
X106875966Y-20858470D01*
X107072000Y-20839162D01*
X107268033Y-20858470D01*
X107268033Y-20858470D01*
G37*
G36*
X65268033Y-20858470D02*
G01*
X65456534Y-20915651D01*
X65630258Y-21008508D01*
X65782528Y-21133472D01*
X65907492Y-21285742D01*
X66000349Y-21459465D01*
X66057530Y-21647966D01*
X66072000Y-21794880D01*
X66072000Y-22793119D01*
X66057530Y-22940034D01*
X66000349Y-23128535D01*
X65907492Y-23302258D01*
X65782528Y-23454528D01*
X65630258Y-23579492D01*
X65456535Y-23672349D01*
X65268034Y-23729530D01*
X65072000Y-23748838D01*
X64875967Y-23729530D01*
X64687466Y-23672349D01*
X64513743Y-23579492D01*
X64361473Y-23454528D01*
X64236509Y-23302258D01*
X64236508Y-23302257D01*
X64236506Y-23302254D01*
X64143653Y-23128539D01*
X64086470Y-22940034D01*
X64076295Y-22836723D01*
X64072000Y-22793120D01*
X64072000Y-21794881D01*
X64086470Y-21647967D01*
X64143651Y-21459466D01*
X64236508Y-21285742D01*
X64361472Y-21133472D01*
X64513742Y-21008508D01*
X64687465Y-20915651D01*
X64875966Y-20858470D01*
X65072000Y-20839162D01*
X65268033Y-20858470D01*
X65268033Y-20858470D01*
G37*
M02*
