G04 #@! TF.GenerationSoftware,KiCad,Pcbnew,(5.1.0-0)*
G04 #@! TF.CreationDate,2019-04-20T13:38:53+09:00*
G04 #@! TF.ProjectId,FreeDSP_SMD_AB,46726565-4453-4505-9f53-4d445f41422e,rev?*
G04 #@! TF.SameCoordinates,Original*
G04 #@! TF.FileFunction,Legend,Bot*
G04 #@! TF.FilePolarity,Positive*
%FSLAX46Y46*%
G04 Gerber Fmt 4.6, Leading zero omitted, Abs format (unit mm)*
G04 Created by KiCad (PCBNEW (5.1.0-0)) date 2019-04-20 13:38:53*
%MOMM*%
%LPD*%
G04 APERTURE LIST*
%ADD10C,0.300000*%
%ADD11C,0.150000*%
%ADD12C,0.200000*%
%ADD13C,0.010000*%
G04 APERTURE END LIST*
D10*
X112865514Y-111764731D02*
X112865514Y-110264731D01*
X112294085Y-110264731D01*
X112151228Y-110336160D01*
X112079800Y-110407588D01*
X112008371Y-110550445D01*
X112008371Y-110764731D01*
X112079800Y-110907588D01*
X112151228Y-110979017D01*
X112294085Y-111050445D01*
X112865514Y-111050445D01*
X110508371Y-111764731D02*
X111008371Y-111050445D01*
X111365514Y-111764731D02*
X111365514Y-110264731D01*
X110794085Y-110264731D01*
X110651228Y-110336160D01*
X110579800Y-110407588D01*
X110508371Y-110550445D01*
X110508371Y-110764731D01*
X110579800Y-110907588D01*
X110651228Y-110979017D01*
X110794085Y-111050445D01*
X111365514Y-111050445D01*
X109579800Y-110264731D02*
X109294085Y-110264731D01*
X109151228Y-110336160D01*
X109008371Y-110479017D01*
X108936942Y-110764731D01*
X108936942Y-111264731D01*
X109008371Y-111550445D01*
X109151228Y-111693302D01*
X109294085Y-111764731D01*
X109579800Y-111764731D01*
X109722657Y-111693302D01*
X109865514Y-111550445D01*
X109936942Y-111264731D01*
X109936942Y-110764731D01*
X109865514Y-110479017D01*
X109722657Y-110336160D01*
X109579800Y-110264731D01*
X107508371Y-110336160D02*
X107651228Y-110264731D01*
X107865514Y-110264731D01*
X108079800Y-110336160D01*
X108222657Y-110479017D01*
X108294085Y-110621874D01*
X108365514Y-110907588D01*
X108365514Y-111121874D01*
X108294085Y-111407588D01*
X108222657Y-111550445D01*
X108079800Y-111693302D01*
X107865514Y-111764731D01*
X107722657Y-111764731D01*
X107508371Y-111693302D01*
X107436942Y-111621874D01*
X107436942Y-111121874D01*
X107722657Y-111121874D01*
X106794085Y-111621874D02*
X106722657Y-111693302D01*
X106794085Y-111764731D01*
X106865514Y-111693302D01*
X106794085Y-111621874D01*
X106794085Y-111764731D01*
X113544085Y-114243302D02*
X113329800Y-114314731D01*
X112972657Y-114314731D01*
X112829800Y-114243302D01*
X112758371Y-114171874D01*
X112686942Y-114029017D01*
X112686942Y-113886160D01*
X112758371Y-113743302D01*
X112829800Y-113671874D01*
X112972657Y-113600445D01*
X113258371Y-113529017D01*
X113401228Y-113457588D01*
X113472657Y-113386160D01*
X113544085Y-113243302D01*
X113544085Y-113100445D01*
X113472657Y-112957588D01*
X113401228Y-112886160D01*
X113258371Y-112814731D01*
X112901228Y-112814731D01*
X112686942Y-112886160D01*
X112044085Y-113529017D02*
X111544085Y-113529017D01*
X111329800Y-114314731D02*
X112044085Y-114314731D01*
X112044085Y-112814731D01*
X111329800Y-112814731D01*
X109972657Y-114314731D02*
X110686942Y-114314731D01*
X110686942Y-112814731D01*
X109472657Y-113529017D02*
X108972657Y-113529017D01*
X108758371Y-114314731D02*
X109472657Y-114314731D01*
X109472657Y-112814731D01*
X108758371Y-112814731D01*
X107258371Y-114171874D02*
X107329800Y-114243302D01*
X107544085Y-114314731D01*
X107686942Y-114314731D01*
X107901228Y-114243302D01*
X108044085Y-114100445D01*
X108115514Y-113957588D01*
X108186942Y-113671874D01*
X108186942Y-113457588D01*
X108115514Y-113171874D01*
X108044085Y-113029017D01*
X107901228Y-112886160D01*
X107686942Y-112814731D01*
X107544085Y-112814731D01*
X107329800Y-112886160D01*
X107258371Y-112957588D01*
X106829800Y-112814731D02*
X105972657Y-112814731D01*
X106401228Y-114314731D02*
X106401228Y-112814731D01*
D11*
X42004180Y-113925800D02*
X48758040Y-113849600D01*
D12*
X120607020Y-57819740D02*
X122656800Y-57819740D01*
X109972040Y-68101660D02*
X110375900Y-68101660D01*
X110387308Y-68854777D02*
X110120641Y-68854777D01*
X110006356Y-69273824D02*
X110387308Y-69273824D01*
X110387308Y-68473824D01*
X110006356Y-68473824D01*
X109651923Y-50457600D02*
X109728114Y-50419504D01*
X109842400Y-50419504D01*
X109956685Y-50457600D01*
X110032876Y-50533790D01*
X110070971Y-50609980D01*
X110109066Y-50762361D01*
X110109066Y-50876647D01*
X110070971Y-51029028D01*
X110032876Y-51105219D01*
X109956685Y-51181409D01*
X109842400Y-51219504D01*
X109766209Y-51219504D01*
X109651923Y-51181409D01*
X109613828Y-51143314D01*
X109613828Y-50876647D01*
X109766209Y-50876647D01*
X109270971Y-51219504D02*
X109270971Y-50419504D01*
X108813828Y-51219504D01*
X108813828Y-50419504D01*
X108432876Y-51219504D02*
X108432876Y-50419504D01*
X108242400Y-50419504D01*
X108128114Y-50457600D01*
X108051923Y-50533790D01*
X108013828Y-50609980D01*
X107975733Y-50762361D01*
X107975733Y-50876647D01*
X108013828Y-51029028D01*
X108051923Y-51105219D01*
X108128114Y-51181409D01*
X108242400Y-51219504D01*
X108432876Y-51219504D01*
X109956723Y-73647800D02*
X110032914Y-73609704D01*
X110147200Y-73609704D01*
X110261485Y-73647800D01*
X110337676Y-73723990D01*
X110375771Y-73800180D01*
X110413866Y-73952561D01*
X110413866Y-74066847D01*
X110375771Y-74219228D01*
X110337676Y-74295419D01*
X110261485Y-74371609D01*
X110147200Y-74409704D01*
X110071009Y-74409704D01*
X109956723Y-74371609D01*
X109918628Y-74333514D01*
X109918628Y-74066847D01*
X110071009Y-74066847D01*
X109575771Y-74409704D02*
X109575771Y-73609704D01*
X109118628Y-74409704D01*
X109118628Y-73609704D01*
X108737676Y-74409704D02*
X108737676Y-73609704D01*
X108547200Y-73609704D01*
X108432914Y-73647800D01*
X108356723Y-73723990D01*
X108318628Y-73800180D01*
X108280533Y-73952561D01*
X108280533Y-74066847D01*
X108318628Y-74219228D01*
X108356723Y-74295419D01*
X108432914Y-74371609D01*
X108547200Y-74409704D01*
X108737676Y-74409704D01*
X110642600Y-73133400D02*
X108026400Y-73133400D01*
X110642600Y-51822800D02*
X110642600Y-73133400D01*
X107924800Y-51873600D02*
X110642600Y-51873600D01*
X123495000Y-67570800D02*
X117805400Y-67570800D01*
X117805400Y-77527600D02*
X123495000Y-77527600D01*
X111836400Y-77527600D02*
X117805400Y-77527600D01*
X117805400Y-80499400D02*
X117805400Y-67570800D01*
X122478876Y-63398904D02*
X121983638Y-63398904D01*
X122250304Y-63703666D01*
X122136019Y-63703666D01*
X122059828Y-63741761D01*
X122021733Y-63779857D01*
X121983638Y-63856047D01*
X121983638Y-64046523D01*
X122021733Y-64122714D01*
X122059828Y-64160809D01*
X122136019Y-64198904D01*
X122364590Y-64198904D01*
X122440780Y-64160809D01*
X122478876Y-64122714D01*
X121755066Y-63398904D02*
X121488400Y-64198904D01*
X121221733Y-63398904D01*
X121031257Y-63398904D02*
X120536019Y-63398904D01*
X120802685Y-63703666D01*
X120688400Y-63703666D01*
X120612209Y-63741761D01*
X120574114Y-63779857D01*
X120536019Y-63856047D01*
X120536019Y-64046523D01*
X120574114Y-64122714D01*
X120612209Y-64160809D01*
X120688400Y-64198904D01*
X120916971Y-64198904D01*
X120993161Y-64160809D01*
X121031257Y-64122714D01*
X121234276Y-79159533D02*
X120853323Y-79159533D01*
X121310466Y-79388104D02*
X121043800Y-78588104D01*
X120777133Y-79388104D01*
X120510466Y-79388104D02*
X120510466Y-78588104D01*
X120319990Y-78588104D01*
X120205704Y-78626200D01*
X120129514Y-78702390D01*
X120091419Y-78778580D01*
X120053323Y-78930961D01*
X120053323Y-79045247D01*
X120091419Y-79197628D01*
X120129514Y-79273819D01*
X120205704Y-79350009D01*
X120319990Y-79388104D01*
X120510466Y-79388104D01*
X119253323Y-79311914D02*
X119291419Y-79350009D01*
X119405704Y-79388104D01*
X119481895Y-79388104D01*
X119596180Y-79350009D01*
X119672371Y-79273819D01*
X119710466Y-79197628D01*
X119748561Y-79045247D01*
X119748561Y-78930961D01*
X119710466Y-78778580D01*
X119672371Y-78702390D01*
X119596180Y-78626200D01*
X119481895Y-78588104D01*
X119405704Y-78588104D01*
X119291419Y-78626200D01*
X119253323Y-78664295D01*
X116268580Y-79362704D02*
X116268580Y-78562704D01*
X116078104Y-78562704D01*
X115963819Y-78600800D01*
X115887628Y-78676990D01*
X115849533Y-78753180D01*
X115811438Y-78905561D01*
X115811438Y-79019847D01*
X115849533Y-79172228D01*
X115887628Y-79248419D01*
X115963819Y-79324609D01*
X116078104Y-79362704D01*
X116268580Y-79362704D01*
X115506676Y-79134133D02*
X115125723Y-79134133D01*
X115582866Y-79362704D02*
X115316200Y-78562704D01*
X115049533Y-79362704D01*
X114325723Y-79286514D02*
X114363819Y-79324609D01*
X114478104Y-79362704D01*
X114554295Y-79362704D01*
X114668580Y-79324609D01*
X114744771Y-79248419D01*
X114782866Y-79172228D01*
X114820961Y-79019847D01*
X114820961Y-78905561D01*
X114782866Y-78753180D01*
X114744771Y-78676990D01*
X114668580Y-78600800D01*
X114554295Y-78562704D01*
X114478104Y-78562704D01*
X114363819Y-78600800D01*
X114325723Y-78638895D01*
X117348000Y-90932000D02*
X117094000Y-91186000D01*
X117348000Y-90932000D02*
X117602000Y-91186000D01*
X117348000Y-91694000D02*
X117348000Y-90932000D01*
X114808000Y-91694000D02*
X117348000Y-91694000D01*
X114808000Y-90932000D02*
X114808000Y-91694000D01*
X117094000Y-83820000D02*
X117348000Y-84074000D01*
X117348000Y-84074000D02*
X117602000Y-83820000D01*
X117348000Y-83058000D02*
X117348000Y-84074000D01*
X114808000Y-83058000D02*
X117348000Y-83058000D01*
X114808000Y-84074000D02*
X114808000Y-83058000D01*
X111675904Y-88709619D02*
X110875904Y-88709619D01*
X110875904Y-88900095D01*
X110914000Y-89014380D01*
X110990190Y-89090571D01*
X111066380Y-89128666D01*
X111218761Y-89166761D01*
X111333047Y-89166761D01*
X111485428Y-89128666D01*
X111561619Y-89090571D01*
X111637809Y-89014380D01*
X111675904Y-88900095D01*
X111675904Y-88709619D01*
X111447333Y-89471523D02*
X111447333Y-89852476D01*
X111675904Y-89395333D02*
X110875904Y-89662000D01*
X111675904Y-89928666D01*
X111599714Y-90652476D02*
X111637809Y-90614380D01*
X111675904Y-90500095D01*
X111675904Y-90423904D01*
X111637809Y-90309619D01*
X111561619Y-90233428D01*
X111485428Y-90195333D01*
X111333047Y-90157238D01*
X111218761Y-90157238D01*
X111066380Y-90195333D01*
X110990190Y-90233428D01*
X110914000Y-90309619D01*
X110875904Y-90423904D01*
X110875904Y-90500095D01*
X110914000Y-90614380D01*
X110952095Y-90652476D01*
X112656857Y-88595333D02*
X112694952Y-88709619D01*
X112733047Y-88747714D01*
X112809238Y-88785809D01*
X112923523Y-88785809D01*
X112999714Y-88747714D01*
X113037809Y-88709619D01*
X113075904Y-88633428D01*
X113075904Y-88328666D01*
X112275904Y-88328666D01*
X112275904Y-88595333D01*
X112314000Y-88671523D01*
X112352095Y-88709619D01*
X112428285Y-88747714D01*
X112504476Y-88747714D01*
X112580666Y-88709619D01*
X112618761Y-88671523D01*
X112656857Y-88595333D01*
X112656857Y-88328666D01*
X112999714Y-89585809D02*
X113037809Y-89547714D01*
X113075904Y-89433428D01*
X113075904Y-89357238D01*
X113037809Y-89242952D01*
X112961619Y-89166761D01*
X112885428Y-89128666D01*
X112733047Y-89090571D01*
X112618761Y-89090571D01*
X112466380Y-89128666D01*
X112390190Y-89166761D01*
X112314000Y-89242952D01*
X112275904Y-89357238D01*
X112275904Y-89433428D01*
X112314000Y-89547714D01*
X112352095Y-89585809D01*
X113075904Y-90309619D02*
X113075904Y-89928666D01*
X112275904Y-89928666D01*
X113075904Y-90576285D02*
X112275904Y-90576285D01*
X113075904Y-91033428D02*
X112618761Y-90690571D01*
X112275904Y-91033428D02*
X112733047Y-90576285D01*
X111929904Y-84264619D02*
X111129904Y-84264619D01*
X111129904Y-84455095D01*
X111168000Y-84569380D01*
X111244190Y-84645571D01*
X111320380Y-84683666D01*
X111472761Y-84721761D01*
X111587047Y-84721761D01*
X111739428Y-84683666D01*
X111815619Y-84645571D01*
X111891809Y-84569380D01*
X111929904Y-84455095D01*
X111929904Y-84264619D01*
X111701333Y-85026523D02*
X111701333Y-85407476D01*
X111929904Y-84950333D02*
X111129904Y-85217000D01*
X111929904Y-85483666D01*
X111853714Y-86207476D02*
X111891809Y-86169380D01*
X111929904Y-86055095D01*
X111929904Y-85978904D01*
X111891809Y-85864619D01*
X111815619Y-85788428D01*
X111739428Y-85750333D01*
X111587047Y-85712238D01*
X111472761Y-85712238D01*
X111320380Y-85750333D01*
X111244190Y-85788428D01*
X111168000Y-85864619D01*
X111129904Y-85978904D01*
X111129904Y-86055095D01*
X111168000Y-86169380D01*
X111206095Y-86207476D01*
X113329904Y-83940809D02*
X113329904Y-83559857D01*
X112529904Y-83559857D01*
X113329904Y-84664619D02*
X112948952Y-84397952D01*
X113329904Y-84207476D02*
X112529904Y-84207476D01*
X112529904Y-84512238D01*
X112568000Y-84588428D01*
X112606095Y-84626523D01*
X112682285Y-84664619D01*
X112796571Y-84664619D01*
X112872761Y-84626523D01*
X112910857Y-84588428D01*
X112948952Y-84512238D01*
X112948952Y-84207476D01*
X113253714Y-85464619D02*
X113291809Y-85426523D01*
X113329904Y-85312238D01*
X113329904Y-85236047D01*
X113291809Y-85121761D01*
X113215619Y-85045571D01*
X113139428Y-85007476D01*
X112987047Y-84969380D01*
X112872761Y-84969380D01*
X112720380Y-85007476D01*
X112644190Y-85045571D01*
X112568000Y-85121761D01*
X112529904Y-85236047D01*
X112529904Y-85312238D01*
X112568000Y-85426523D01*
X112606095Y-85464619D01*
X113329904Y-86188428D02*
X113329904Y-85807476D01*
X112529904Y-85807476D01*
X113329904Y-86455095D02*
X112529904Y-86455095D01*
X113329904Y-86912238D02*
X112872761Y-86569380D01*
X112529904Y-86912238D02*
X112987047Y-86455095D01*
X123177142Y-77069904D02*
X123177142Y-76269904D01*
X122910476Y-76841333D01*
X122643809Y-76269904D01*
X122643809Y-77069904D01*
X121805714Y-76993714D02*
X121843809Y-77031809D01*
X121958095Y-77069904D01*
X122034285Y-77069904D01*
X122148571Y-77031809D01*
X122224761Y-76955619D01*
X122262857Y-76879428D01*
X122300952Y-76727047D01*
X122300952Y-76612761D01*
X122262857Y-76460380D01*
X122224761Y-76384190D01*
X122148571Y-76308000D01*
X122034285Y-76269904D01*
X121958095Y-76269904D01*
X121843809Y-76308000D01*
X121805714Y-76346095D01*
X121462857Y-77069904D02*
X121462857Y-76269904D01*
X121005714Y-77069904D02*
X121348571Y-76612761D01*
X121005714Y-76269904D02*
X121462857Y-76727047D01*
X120662857Y-77069904D02*
X120662857Y-76269904D01*
X122618380Y-74529904D02*
X122999333Y-74529904D01*
X122999333Y-73729904D01*
X121894571Y-74529904D02*
X122161238Y-74148952D01*
X122351714Y-74529904D02*
X122351714Y-73729904D01*
X122046952Y-73729904D01*
X121970761Y-73768000D01*
X121932666Y-73806095D01*
X121894571Y-73882285D01*
X121894571Y-73996571D01*
X121932666Y-74072761D01*
X121970761Y-74110857D01*
X122046952Y-74148952D01*
X122351714Y-74148952D01*
X121094571Y-74453714D02*
X121132666Y-74491809D01*
X121246952Y-74529904D01*
X121323142Y-74529904D01*
X121437428Y-74491809D01*
X121513619Y-74415619D01*
X121551714Y-74339428D01*
X121589809Y-74187047D01*
X121589809Y-74072761D01*
X121551714Y-73920380D01*
X121513619Y-73844190D01*
X121437428Y-73768000D01*
X121323142Y-73729904D01*
X121246952Y-73729904D01*
X121132666Y-73768000D01*
X121094571Y-73806095D01*
X120751714Y-74529904D02*
X120751714Y-73729904D01*
X120294571Y-74529904D02*
X120637428Y-74072761D01*
X120294571Y-73729904D02*
X120751714Y-74187047D01*
X122732666Y-71570857D02*
X122618380Y-71608952D01*
X122580285Y-71647047D01*
X122542190Y-71723238D01*
X122542190Y-71837523D01*
X122580285Y-71913714D01*
X122618380Y-71951809D01*
X122694571Y-71989904D01*
X122999333Y-71989904D01*
X122999333Y-71189904D01*
X122732666Y-71189904D01*
X122656476Y-71228000D01*
X122618380Y-71266095D01*
X122580285Y-71342285D01*
X122580285Y-71418476D01*
X122618380Y-71494666D01*
X122656476Y-71532761D01*
X122732666Y-71570857D01*
X122999333Y-71570857D01*
X121742190Y-71913714D02*
X121780285Y-71951809D01*
X121894571Y-71989904D01*
X121970761Y-71989904D01*
X122085047Y-71951809D01*
X122161238Y-71875619D01*
X122199333Y-71799428D01*
X122237428Y-71647047D01*
X122237428Y-71532761D01*
X122199333Y-71380380D01*
X122161238Y-71304190D01*
X122085047Y-71228000D01*
X121970761Y-71189904D01*
X121894571Y-71189904D01*
X121780285Y-71228000D01*
X121742190Y-71266095D01*
X121018380Y-71989904D02*
X121399333Y-71989904D01*
X121399333Y-71189904D01*
X120751714Y-71989904D02*
X120751714Y-71189904D01*
X120294571Y-71989904D02*
X120637428Y-71532761D01*
X120294571Y-71189904D02*
X120751714Y-71647047D01*
X115128040Y-60690760D02*
X113096040Y-60690760D01*
X122682000Y-65532000D02*
X120650000Y-65532000D01*
X122656476Y-66236857D02*
X122389809Y-66236857D01*
X122275523Y-66655904D02*
X122656476Y-66655904D01*
X122656476Y-65855904D01*
X122275523Y-65855904D01*
X121932666Y-66655904D02*
X121932666Y-65855904D01*
X121475523Y-66655904D01*
X121475523Y-65855904D01*
X120827904Y-66236857D02*
X120713619Y-66274952D01*
X120675523Y-66313047D01*
X120637428Y-66389238D01*
X120637428Y-66503523D01*
X120675523Y-66579714D01*
X120713619Y-66617809D01*
X120789809Y-66655904D01*
X121094571Y-66655904D01*
X121094571Y-65855904D01*
X120827904Y-65855904D01*
X120751714Y-65894000D01*
X120713619Y-65932095D01*
X120675523Y-66008285D01*
X120675523Y-66084476D01*
X120713619Y-66160666D01*
X120751714Y-66198761D01*
X120827904Y-66236857D01*
X121094571Y-66236857D01*
X122999333Y-61575904D02*
X122999333Y-60775904D01*
X122808857Y-60775904D01*
X122694571Y-60814000D01*
X122618380Y-60890190D01*
X122580285Y-60966380D01*
X122542190Y-61118761D01*
X122542190Y-61233047D01*
X122580285Y-61385428D01*
X122618380Y-61461619D01*
X122694571Y-61537809D01*
X122808857Y-61575904D01*
X122999333Y-61575904D01*
X122237428Y-61347333D02*
X121856476Y-61347333D01*
X122313619Y-61575904D02*
X122046952Y-60775904D01*
X121780285Y-61575904D01*
X121056476Y-61499714D02*
X121094571Y-61537809D01*
X121208857Y-61575904D01*
X121285047Y-61575904D01*
X121399333Y-61537809D01*
X121475523Y-61461619D01*
X121513619Y-61385428D01*
X121551714Y-61233047D01*
X121551714Y-61118761D01*
X121513619Y-60966380D01*
X121475523Y-60890190D01*
X121399333Y-60814000D01*
X121285047Y-60775904D01*
X121208857Y-60775904D01*
X121094571Y-60814000D01*
X121056476Y-60852095D01*
X120294571Y-61575904D02*
X120751714Y-61575904D01*
X120523142Y-61575904D02*
X120523142Y-60775904D01*
X120599333Y-60890190D01*
X120675523Y-60966380D01*
X120751714Y-61004476D01*
X115191573Y-59123984D02*
X115191573Y-58323984D01*
X115001097Y-58323984D01*
X114886811Y-58362080D01*
X114810620Y-58438270D01*
X114772525Y-58514460D01*
X114734430Y-58666841D01*
X114734430Y-58781127D01*
X114772525Y-58933508D01*
X114810620Y-59009699D01*
X114886811Y-59085889D01*
X115001097Y-59123984D01*
X115191573Y-59123984D01*
X114429668Y-58895413D02*
X114048716Y-58895413D01*
X114505859Y-59123984D02*
X114239192Y-58323984D01*
X113972525Y-59123984D01*
X113248716Y-59047794D02*
X113286811Y-59085889D01*
X113401097Y-59123984D01*
X113477287Y-59123984D01*
X113591573Y-59085889D01*
X113667763Y-59009699D01*
X113705859Y-58933508D01*
X113743954Y-58781127D01*
X113743954Y-58666841D01*
X113705859Y-58514460D01*
X113667763Y-58438270D01*
X113591573Y-58362080D01*
X113477287Y-58323984D01*
X113401097Y-58323984D01*
X113286811Y-58362080D01*
X113248716Y-58400175D01*
X112753478Y-58323984D02*
X112677287Y-58323984D01*
X112601097Y-58362080D01*
X112563001Y-58400175D01*
X112524906Y-58476365D01*
X112486811Y-58628746D01*
X112486811Y-58819222D01*
X112524906Y-58971603D01*
X112563001Y-59047794D01*
X112601097Y-59085889D01*
X112677287Y-59123984D01*
X112753478Y-59123984D01*
X112829668Y-59085889D01*
X112867763Y-59047794D01*
X112905859Y-58971603D01*
X112943954Y-58819222D01*
X112943954Y-58628746D01*
X112905859Y-58476365D01*
X112867763Y-58400175D01*
X112829668Y-58362080D01*
X112753478Y-58323984D01*
X122402476Y-68967333D02*
X122021523Y-68967333D01*
X122478666Y-69195904D02*
X122212000Y-68395904D01*
X121945333Y-69195904D01*
X121678666Y-69195904D02*
X121678666Y-68395904D01*
X121488190Y-68395904D01*
X121373904Y-68434000D01*
X121297714Y-68510190D01*
X121259619Y-68586380D01*
X121221523Y-68738761D01*
X121221523Y-68853047D01*
X121259619Y-69005428D01*
X121297714Y-69081619D01*
X121373904Y-69157809D01*
X121488190Y-69195904D01*
X121678666Y-69195904D01*
X120421523Y-69119714D02*
X120459619Y-69157809D01*
X120573904Y-69195904D01*
X120650095Y-69195904D01*
X120764380Y-69157809D01*
X120840571Y-69081619D01*
X120878666Y-69005428D01*
X120916761Y-68853047D01*
X120916761Y-68738761D01*
X120878666Y-68586380D01*
X120840571Y-68510190D01*
X120764380Y-68434000D01*
X120650095Y-68395904D01*
X120573904Y-68395904D01*
X120459619Y-68434000D01*
X120421523Y-68472095D01*
X122154857Y-55695904D02*
X121964380Y-56495904D01*
X121812000Y-55924476D01*
X121659619Y-56495904D01*
X121469142Y-55695904D01*
X120897714Y-56076857D02*
X120783428Y-56114952D01*
X120745333Y-56153047D01*
X120707238Y-56229238D01*
X120707238Y-56343523D01*
X120745333Y-56419714D01*
X120783428Y-56457809D01*
X120859619Y-56495904D01*
X121164380Y-56495904D01*
X121164380Y-55695904D01*
X120897714Y-55695904D01*
X120821523Y-55734000D01*
X120783428Y-55772095D01*
X120745333Y-55848285D01*
X120745333Y-55924476D01*
X120783428Y-56000666D01*
X120821523Y-56038761D01*
X120897714Y-56076857D01*
X121164380Y-56076857D01*
X122021523Y-53194000D02*
X122097714Y-53155904D01*
X122212000Y-53155904D01*
X122326285Y-53194000D01*
X122402476Y-53270190D01*
X122440571Y-53346380D01*
X122478666Y-53498761D01*
X122478666Y-53613047D01*
X122440571Y-53765428D01*
X122402476Y-53841619D01*
X122326285Y-53917809D01*
X122212000Y-53955904D01*
X122135809Y-53955904D01*
X122021523Y-53917809D01*
X121983428Y-53879714D01*
X121983428Y-53613047D01*
X122135809Y-53613047D01*
X121640571Y-53955904D02*
X121640571Y-53155904D01*
X121183428Y-53955904D01*
X121183428Y-53155904D01*
X120802476Y-53955904D02*
X120802476Y-53155904D01*
X120612000Y-53155904D01*
X120497714Y-53194000D01*
X120421523Y-53270190D01*
X120383428Y-53346380D01*
X120345333Y-53498761D01*
X120345333Y-53613047D01*
X120383428Y-53765428D01*
X120421523Y-53841619D01*
X120497714Y-53917809D01*
X120612000Y-53955904D01*
X120802476Y-53955904D01*
X122161238Y-59035904D02*
X122427904Y-58654952D01*
X122618380Y-59035904D02*
X122618380Y-58235904D01*
X122313619Y-58235904D01*
X122237428Y-58274000D01*
X122199333Y-58312095D01*
X122161238Y-58388285D01*
X122161238Y-58502571D01*
X122199333Y-58578761D01*
X122237428Y-58616857D01*
X122313619Y-58654952D01*
X122618380Y-58654952D01*
X121818380Y-58616857D02*
X121551714Y-58616857D01*
X121437428Y-59035904D02*
X121818380Y-59035904D01*
X121818380Y-58235904D01*
X121437428Y-58235904D01*
X121132666Y-58997809D02*
X121018380Y-59035904D01*
X120827904Y-59035904D01*
X120751714Y-58997809D01*
X120713619Y-58959714D01*
X120675523Y-58883523D01*
X120675523Y-58807333D01*
X120713619Y-58731142D01*
X120751714Y-58693047D01*
X120827904Y-58654952D01*
X120980285Y-58616857D01*
X121056476Y-58578761D01*
X121094571Y-58540666D01*
X121132666Y-58464476D01*
X121132666Y-58388285D01*
X121094571Y-58312095D01*
X121056476Y-58274000D01*
X120980285Y-58235904D01*
X120789809Y-58235904D01*
X120675523Y-58274000D01*
X115102516Y-61814664D02*
X115102516Y-61014664D01*
X114835849Y-61586093D01*
X114569182Y-61014664D01*
X114569182Y-61814664D01*
X114188230Y-61014664D02*
X114188230Y-61662283D01*
X114150135Y-61738474D01*
X114112040Y-61776569D01*
X114035849Y-61814664D01*
X113883468Y-61814664D01*
X113807278Y-61776569D01*
X113769182Y-61738474D01*
X113731087Y-61662283D01*
X113731087Y-61014664D01*
X113464420Y-61014664D02*
X113007278Y-61014664D01*
X113235849Y-61814664D02*
X113235849Y-61014664D01*
X115277714Y-76815904D02*
X115277714Y-76015904D01*
X115011047Y-76587333D01*
X114744380Y-76015904D01*
X114744380Y-76815904D01*
X113906285Y-76739714D02*
X113944380Y-76777809D01*
X114058666Y-76815904D01*
X114134857Y-76815904D01*
X114249142Y-76777809D01*
X114325333Y-76701619D01*
X114363428Y-76625428D01*
X114401523Y-76473047D01*
X114401523Y-76358761D01*
X114363428Y-76206380D01*
X114325333Y-76130190D01*
X114249142Y-76054000D01*
X114134857Y-76015904D01*
X114058666Y-76015904D01*
X113944380Y-76054000D01*
X113906285Y-76092095D01*
X113563428Y-76815904D02*
X113563428Y-76015904D01*
X113106285Y-76815904D02*
X113449142Y-76358761D01*
X113106285Y-76015904D02*
X113563428Y-76473047D01*
X112611047Y-76015904D02*
X112458666Y-76015904D01*
X112382476Y-76054000D01*
X112306285Y-76130190D01*
X112268190Y-76282571D01*
X112268190Y-76549238D01*
X112306285Y-76701619D01*
X112382476Y-76777809D01*
X112458666Y-76815904D01*
X112611047Y-76815904D01*
X112687238Y-76777809D01*
X112763428Y-76701619D01*
X112801523Y-76549238D01*
X112801523Y-76282571D01*
X112763428Y-76130190D01*
X112687238Y-76054000D01*
X112611047Y-76015904D01*
X114744380Y-74529904D02*
X115125333Y-74529904D01*
X115125333Y-73729904D01*
X114020571Y-74529904D02*
X114287238Y-74148952D01*
X114477714Y-74529904D02*
X114477714Y-73729904D01*
X114172952Y-73729904D01*
X114096761Y-73768000D01*
X114058666Y-73806095D01*
X114020571Y-73882285D01*
X114020571Y-73996571D01*
X114058666Y-74072761D01*
X114096761Y-74110857D01*
X114172952Y-74148952D01*
X114477714Y-74148952D01*
X113220571Y-74453714D02*
X113258666Y-74491809D01*
X113372952Y-74529904D01*
X113449142Y-74529904D01*
X113563428Y-74491809D01*
X113639619Y-74415619D01*
X113677714Y-74339428D01*
X113715809Y-74187047D01*
X113715809Y-74072761D01*
X113677714Y-73920380D01*
X113639619Y-73844190D01*
X113563428Y-73768000D01*
X113449142Y-73729904D01*
X113372952Y-73729904D01*
X113258666Y-73768000D01*
X113220571Y-73806095D01*
X112877714Y-74529904D02*
X112877714Y-73729904D01*
X112420571Y-74529904D02*
X112763428Y-74072761D01*
X112420571Y-73729904D02*
X112877714Y-74187047D01*
X114858666Y-71570857D02*
X114744380Y-71608952D01*
X114706285Y-71647047D01*
X114668190Y-71723238D01*
X114668190Y-71837523D01*
X114706285Y-71913714D01*
X114744380Y-71951809D01*
X114820571Y-71989904D01*
X115125333Y-71989904D01*
X115125333Y-71189904D01*
X114858666Y-71189904D01*
X114782476Y-71228000D01*
X114744380Y-71266095D01*
X114706285Y-71342285D01*
X114706285Y-71418476D01*
X114744380Y-71494666D01*
X114782476Y-71532761D01*
X114858666Y-71570857D01*
X115125333Y-71570857D01*
X113868190Y-71913714D02*
X113906285Y-71951809D01*
X114020571Y-71989904D01*
X114096761Y-71989904D01*
X114211047Y-71951809D01*
X114287238Y-71875619D01*
X114325333Y-71799428D01*
X114363428Y-71647047D01*
X114363428Y-71532761D01*
X114325333Y-71380380D01*
X114287238Y-71304190D01*
X114211047Y-71228000D01*
X114096761Y-71189904D01*
X114020571Y-71189904D01*
X113906285Y-71228000D01*
X113868190Y-71266095D01*
X113144380Y-71989904D02*
X113525333Y-71989904D01*
X113525333Y-71189904D01*
X112877714Y-71989904D02*
X112877714Y-71189904D01*
X112420571Y-71989904D02*
X112763428Y-71532761D01*
X112420571Y-71189904D02*
X112877714Y-71647047D01*
X115125333Y-69195904D02*
X115125333Y-68395904D01*
X114934857Y-68395904D01*
X114820571Y-68434000D01*
X114744380Y-68510190D01*
X114706285Y-68586380D01*
X114668190Y-68738761D01*
X114668190Y-68853047D01*
X114706285Y-69005428D01*
X114744380Y-69081619D01*
X114820571Y-69157809D01*
X114934857Y-69195904D01*
X115125333Y-69195904D01*
X114363428Y-68967333D02*
X113982476Y-68967333D01*
X114439619Y-69195904D02*
X114172952Y-68395904D01*
X113906285Y-69195904D01*
X113182476Y-69119714D02*
X113220571Y-69157809D01*
X113334857Y-69195904D01*
X113411047Y-69195904D01*
X113525333Y-69157809D01*
X113601523Y-69081619D01*
X113639619Y-69005428D01*
X113677714Y-68853047D01*
X113677714Y-68738761D01*
X113639619Y-68586380D01*
X113601523Y-68510190D01*
X113525333Y-68434000D01*
X113411047Y-68395904D01*
X113334857Y-68395904D01*
X113220571Y-68434000D01*
X113182476Y-68472095D01*
X112877714Y-68472095D02*
X112839619Y-68434000D01*
X112763428Y-68395904D01*
X112572952Y-68395904D01*
X112496761Y-68434000D01*
X112458666Y-68472095D01*
X112420571Y-68548285D01*
X112420571Y-68624476D01*
X112458666Y-68738761D01*
X112915809Y-69195904D01*
X112420571Y-69195904D01*
X114655523Y-66148000D02*
X114731714Y-66109904D01*
X114846000Y-66109904D01*
X114960285Y-66148000D01*
X115036476Y-66224190D01*
X115074571Y-66300380D01*
X115112666Y-66452761D01*
X115112666Y-66567047D01*
X115074571Y-66719428D01*
X115036476Y-66795619D01*
X114960285Y-66871809D01*
X114846000Y-66909904D01*
X114769809Y-66909904D01*
X114655523Y-66871809D01*
X114617428Y-66833714D01*
X114617428Y-66567047D01*
X114769809Y-66567047D01*
X114274571Y-66909904D02*
X114274571Y-66109904D01*
X113817428Y-66909904D01*
X113817428Y-66109904D01*
X113436476Y-66909904D02*
X113436476Y-66109904D01*
X113246000Y-66109904D01*
X113131714Y-66148000D01*
X113055523Y-66224190D01*
X113017428Y-66300380D01*
X112979333Y-66452761D01*
X112979333Y-66567047D01*
X113017428Y-66719428D01*
X113055523Y-66795619D01*
X113131714Y-66871809D01*
X113246000Y-66909904D01*
X113436476Y-66909904D01*
X115036476Y-63569904D02*
X114541238Y-63569904D01*
X114807904Y-63874666D01*
X114693619Y-63874666D01*
X114617428Y-63912761D01*
X114579333Y-63950857D01*
X114541238Y-64027047D01*
X114541238Y-64217523D01*
X114579333Y-64293714D01*
X114617428Y-64331809D01*
X114693619Y-64369904D01*
X114922190Y-64369904D01*
X114998380Y-64331809D01*
X115036476Y-64293714D01*
X114312666Y-63569904D02*
X114046000Y-64369904D01*
X113779333Y-63569904D01*
X113588857Y-63569904D02*
X113093619Y-63569904D01*
X113360285Y-63874666D01*
X113246000Y-63874666D01*
X113169809Y-63912761D01*
X113131714Y-63950857D01*
X113093619Y-64027047D01*
X113093619Y-64217523D01*
X113131714Y-64293714D01*
X113169809Y-64331809D01*
X113246000Y-64369904D01*
X113474571Y-64369904D01*
X113550761Y-64331809D01*
X113588857Y-64293714D01*
X115252380Y-56711809D02*
X115138095Y-56749904D01*
X114947619Y-56749904D01*
X114871428Y-56711809D01*
X114833333Y-56673714D01*
X114795238Y-56597523D01*
X114795238Y-56521333D01*
X114833333Y-56445142D01*
X114871428Y-56407047D01*
X114947619Y-56368952D01*
X115100000Y-56330857D01*
X115176190Y-56292761D01*
X115214285Y-56254666D01*
X115252380Y-56178476D01*
X115252380Y-56102285D01*
X115214285Y-56026095D01*
X115176190Y-55988000D01*
X115100000Y-55949904D01*
X114909523Y-55949904D01*
X114795238Y-55988000D01*
X113995238Y-56673714D02*
X114033333Y-56711809D01*
X114147619Y-56749904D01*
X114223809Y-56749904D01*
X114338095Y-56711809D01*
X114414285Y-56635619D01*
X114452380Y-56559428D01*
X114490476Y-56407047D01*
X114490476Y-56292761D01*
X114452380Y-56140380D01*
X114414285Y-56064190D01*
X114338095Y-55988000D01*
X114223809Y-55949904D01*
X114147619Y-55949904D01*
X114033333Y-55988000D01*
X113995238Y-56026095D01*
X113271428Y-56749904D02*
X113652380Y-56749904D01*
X113652380Y-55949904D01*
X115271428Y-54171809D02*
X115157142Y-54209904D01*
X114966666Y-54209904D01*
X114890476Y-54171809D01*
X114852380Y-54133714D01*
X114814285Y-54057523D01*
X114814285Y-53981333D01*
X114852380Y-53905142D01*
X114890476Y-53867047D01*
X114966666Y-53828952D01*
X115119047Y-53790857D01*
X115195238Y-53752761D01*
X115233333Y-53714666D01*
X115271428Y-53638476D01*
X115271428Y-53562285D01*
X115233333Y-53486095D01*
X115195238Y-53448000D01*
X115119047Y-53409904D01*
X114928571Y-53409904D01*
X114814285Y-53448000D01*
X114471428Y-54209904D02*
X114471428Y-53409904D01*
X114280952Y-53409904D01*
X114166666Y-53448000D01*
X114090476Y-53524190D01*
X114052380Y-53600380D01*
X114014285Y-53752761D01*
X114014285Y-53867047D01*
X114052380Y-54019428D01*
X114090476Y-54095619D01*
X114166666Y-54171809D01*
X114280952Y-54209904D01*
X114471428Y-54209904D01*
X113709523Y-53981333D02*
X113328571Y-53981333D01*
X113785714Y-54209904D02*
X113519047Y-53409904D01*
X113252380Y-54209904D01*
X104768476Y-71735904D02*
X104768476Y-70935904D01*
X104501809Y-71507333D01*
X104235142Y-70935904D01*
X104235142Y-71735904D01*
X103397047Y-71659714D02*
X103435142Y-71697809D01*
X103549428Y-71735904D01*
X103625619Y-71735904D01*
X103739904Y-71697809D01*
X103816095Y-71621619D01*
X103854190Y-71545428D01*
X103892285Y-71393047D01*
X103892285Y-71278761D01*
X103854190Y-71126380D01*
X103816095Y-71050190D01*
X103739904Y-70974000D01*
X103625619Y-70935904D01*
X103549428Y-70935904D01*
X103435142Y-70974000D01*
X103397047Y-71012095D01*
X102673238Y-71735904D02*
X103054190Y-71735904D01*
X103054190Y-70935904D01*
X102406571Y-71735904D02*
X102406571Y-70935904D01*
X101949428Y-71735904D02*
X102292285Y-71278761D01*
X101949428Y-70935904D02*
X102406571Y-71393047D01*
X105060476Y-56521333D02*
X104679523Y-56521333D01*
X105136666Y-56749904D02*
X104870000Y-55949904D01*
X104603333Y-56749904D01*
X104336666Y-56749904D02*
X104336666Y-55949904D01*
X104146190Y-55949904D01*
X104031904Y-55988000D01*
X103955714Y-56064190D01*
X103917619Y-56140380D01*
X103879523Y-56292761D01*
X103879523Y-56407047D01*
X103917619Y-56559428D01*
X103955714Y-56635619D01*
X104031904Y-56711809D01*
X104146190Y-56749904D01*
X104336666Y-56749904D01*
X103079523Y-56673714D02*
X103117619Y-56711809D01*
X103231904Y-56749904D01*
X103308095Y-56749904D01*
X103422380Y-56711809D01*
X103498571Y-56635619D01*
X103536666Y-56559428D01*
X103574761Y-56407047D01*
X103574761Y-56292761D01*
X103536666Y-56140380D01*
X103498571Y-56064190D01*
X103422380Y-55988000D01*
X103308095Y-55949904D01*
X103231904Y-55949904D01*
X103117619Y-55988000D01*
X103079523Y-56026095D01*
X102736666Y-56445142D02*
X102127142Y-56445142D01*
X101746190Y-56749904D02*
X101746190Y-55949904D01*
X101555714Y-55949904D01*
X101441428Y-55988000D01*
X101365238Y-56064190D01*
X101327142Y-56140380D01*
X101289047Y-56292761D01*
X101289047Y-56407047D01*
X101327142Y-56559428D01*
X101365238Y-56635619D01*
X101441428Y-56711809D01*
X101555714Y-56749904D01*
X101746190Y-56749904D01*
X101060476Y-55949904D02*
X100603333Y-55949904D01*
X100831904Y-56749904D02*
X100831904Y-55949904D01*
X104533523Y-53651142D02*
X103924000Y-53651142D01*
X104228761Y-53955904D02*
X104228761Y-53346380D01*
X103124000Y-53955904D02*
X103581142Y-53955904D01*
X103352571Y-53955904D02*
X103352571Y-53155904D01*
X103428761Y-53270190D01*
X103504952Y-53346380D01*
X103581142Y-53384476D01*
X102819238Y-53232095D02*
X102781142Y-53194000D01*
X102704952Y-53155904D01*
X102514476Y-53155904D01*
X102438285Y-53194000D01*
X102400190Y-53232095D01*
X102362095Y-53308285D01*
X102362095Y-53384476D01*
X102400190Y-53498761D01*
X102857333Y-53955904D01*
X102362095Y-53955904D01*
X102133523Y-53155904D02*
X101866857Y-53955904D01*
X101600190Y-53155904D01*
X105022380Y-59035904D02*
X105022380Y-58235904D01*
X104831904Y-58235904D01*
X104717619Y-58274000D01*
X104641428Y-58350190D01*
X104603333Y-58426380D01*
X104565238Y-58578761D01*
X104565238Y-58693047D01*
X104603333Y-58845428D01*
X104641428Y-58921619D01*
X104717619Y-58997809D01*
X104831904Y-59035904D01*
X105022380Y-59035904D01*
X104260476Y-58807333D02*
X103879523Y-58807333D01*
X104336666Y-59035904D02*
X104070000Y-58235904D01*
X103803333Y-59035904D01*
X103079523Y-58959714D02*
X103117619Y-58997809D01*
X103231904Y-59035904D01*
X103308095Y-59035904D01*
X103422380Y-58997809D01*
X103498571Y-58921619D01*
X103536666Y-58845428D01*
X103574761Y-58693047D01*
X103574761Y-58578761D01*
X103536666Y-58426380D01*
X103498571Y-58350190D01*
X103422380Y-58274000D01*
X103308095Y-58235904D01*
X103231904Y-58235904D01*
X103117619Y-58274000D01*
X103079523Y-58312095D01*
X102736666Y-58731142D02*
X102127142Y-58731142D01*
X101746190Y-59035904D02*
X101746190Y-58235904D01*
X101555714Y-58235904D01*
X101441428Y-58274000D01*
X101365238Y-58350190D01*
X101327142Y-58426380D01*
X101289047Y-58578761D01*
X101289047Y-58693047D01*
X101327142Y-58845428D01*
X101365238Y-58921619D01*
X101441428Y-58997809D01*
X101555714Y-59035904D01*
X101746190Y-59035904D01*
X101060476Y-58235904D02*
X100603333Y-58235904D01*
X100831904Y-59035904D02*
X100831904Y-58235904D01*
X104698666Y-61156857D02*
X104584380Y-61194952D01*
X104546285Y-61233047D01*
X104508190Y-61309238D01*
X104508190Y-61423523D01*
X104546285Y-61499714D01*
X104584380Y-61537809D01*
X104660571Y-61575904D01*
X104965333Y-61575904D01*
X104965333Y-60775904D01*
X104698666Y-60775904D01*
X104622476Y-60814000D01*
X104584380Y-60852095D01*
X104546285Y-60928285D01*
X104546285Y-61004476D01*
X104584380Y-61080666D01*
X104622476Y-61118761D01*
X104698666Y-61156857D01*
X104965333Y-61156857D01*
X103708190Y-61499714D02*
X103746285Y-61537809D01*
X103860571Y-61575904D01*
X103936761Y-61575904D01*
X104051047Y-61537809D01*
X104127238Y-61461619D01*
X104165333Y-61385428D01*
X104203428Y-61233047D01*
X104203428Y-61118761D01*
X104165333Y-60966380D01*
X104127238Y-60890190D01*
X104051047Y-60814000D01*
X103936761Y-60775904D01*
X103860571Y-60775904D01*
X103746285Y-60814000D01*
X103708190Y-60852095D01*
X102984380Y-61575904D02*
X103365333Y-61575904D01*
X103365333Y-60775904D01*
X102717714Y-61575904D02*
X102717714Y-60775904D01*
X102260571Y-61575904D02*
X102603428Y-61118761D01*
X102260571Y-60775904D02*
X102717714Y-61233047D01*
X104584380Y-64369904D02*
X104965333Y-64369904D01*
X104965333Y-63569904D01*
X103860571Y-64369904D02*
X104127238Y-63988952D01*
X104317714Y-64369904D02*
X104317714Y-63569904D01*
X104012952Y-63569904D01*
X103936761Y-63608000D01*
X103898666Y-63646095D01*
X103860571Y-63722285D01*
X103860571Y-63836571D01*
X103898666Y-63912761D01*
X103936761Y-63950857D01*
X104012952Y-63988952D01*
X104317714Y-63988952D01*
X103060571Y-64293714D02*
X103098666Y-64331809D01*
X103212952Y-64369904D01*
X103289142Y-64369904D01*
X103403428Y-64331809D01*
X103479619Y-64255619D01*
X103517714Y-64179428D01*
X103555809Y-64027047D01*
X103555809Y-63912761D01*
X103517714Y-63760380D01*
X103479619Y-63684190D01*
X103403428Y-63608000D01*
X103289142Y-63569904D01*
X103212952Y-63569904D01*
X103098666Y-63608000D01*
X103060571Y-63646095D01*
X102717714Y-64369904D02*
X102717714Y-63569904D01*
X102260571Y-64369904D02*
X102603428Y-63912761D01*
X102260571Y-63569904D02*
X102717714Y-64027047D01*
X104349428Y-66617809D02*
X104235142Y-66655904D01*
X104044666Y-66655904D01*
X103968476Y-66617809D01*
X103930380Y-66579714D01*
X103892285Y-66503523D01*
X103892285Y-66427333D01*
X103930380Y-66351142D01*
X103968476Y-66313047D01*
X104044666Y-66274952D01*
X104197047Y-66236857D01*
X104273238Y-66198761D01*
X104311333Y-66160666D01*
X104349428Y-66084476D01*
X104349428Y-66008285D01*
X104311333Y-65932095D01*
X104273238Y-65894000D01*
X104197047Y-65855904D01*
X104006571Y-65855904D01*
X103892285Y-65894000D01*
X103549428Y-66655904D02*
X103549428Y-65855904D01*
X103358952Y-65855904D01*
X103244666Y-65894000D01*
X103168476Y-65970190D01*
X103130380Y-66046380D01*
X103092285Y-66198761D01*
X103092285Y-66313047D01*
X103130380Y-66465428D01*
X103168476Y-66541619D01*
X103244666Y-66617809D01*
X103358952Y-66655904D01*
X103549428Y-66655904D01*
X102787523Y-66427333D02*
X102406571Y-66427333D01*
X102863714Y-66655904D02*
X102597047Y-65855904D01*
X102330380Y-66655904D01*
X104330380Y-69157809D02*
X104216095Y-69195904D01*
X104025619Y-69195904D01*
X103949428Y-69157809D01*
X103911333Y-69119714D01*
X103873238Y-69043523D01*
X103873238Y-68967333D01*
X103911333Y-68891142D01*
X103949428Y-68853047D01*
X104025619Y-68814952D01*
X104178000Y-68776857D01*
X104254190Y-68738761D01*
X104292285Y-68700666D01*
X104330380Y-68624476D01*
X104330380Y-68548285D01*
X104292285Y-68472095D01*
X104254190Y-68434000D01*
X104178000Y-68395904D01*
X103987523Y-68395904D01*
X103873238Y-68434000D01*
X103073238Y-69119714D02*
X103111333Y-69157809D01*
X103225619Y-69195904D01*
X103301809Y-69195904D01*
X103416095Y-69157809D01*
X103492285Y-69081619D01*
X103530380Y-69005428D01*
X103568476Y-68853047D01*
X103568476Y-68738761D01*
X103530380Y-68586380D01*
X103492285Y-68510190D01*
X103416095Y-68434000D01*
X103301809Y-68395904D01*
X103225619Y-68395904D01*
X103111333Y-68434000D01*
X103073238Y-68472095D01*
X102349428Y-69195904D02*
X102730380Y-69195904D01*
X102730380Y-68395904D01*
X74529904Y-82404285D02*
X74529904Y-81947142D01*
X74529904Y-82175714D02*
X73729904Y-82175714D01*
X73844190Y-82099523D01*
X73920380Y-82023333D01*
X73958476Y-81947142D01*
X73806095Y-82709047D02*
X73768000Y-82747142D01*
X73729904Y-82823333D01*
X73729904Y-83013809D01*
X73768000Y-83090000D01*
X73806095Y-83128095D01*
X73882285Y-83166190D01*
X73958476Y-83166190D01*
X74072761Y-83128095D01*
X74529904Y-82670952D01*
X74529904Y-83166190D01*
X74453714Y-83509047D02*
X74491809Y-83547142D01*
X74529904Y-83509047D01*
X74491809Y-83470952D01*
X74453714Y-83509047D01*
X74529904Y-83509047D01*
X73806095Y-83851904D02*
X73768000Y-83890000D01*
X73729904Y-83966190D01*
X73729904Y-84156666D01*
X73768000Y-84232857D01*
X73806095Y-84270952D01*
X73882285Y-84309047D01*
X73958476Y-84309047D01*
X74072761Y-84270952D01*
X74529904Y-83813809D01*
X74529904Y-84309047D01*
X74072761Y-84766190D02*
X74034666Y-84690000D01*
X73996571Y-84651904D01*
X73920380Y-84613809D01*
X73882285Y-84613809D01*
X73806095Y-84651904D01*
X73768000Y-84690000D01*
X73729904Y-84766190D01*
X73729904Y-84918571D01*
X73768000Y-84994761D01*
X73806095Y-85032857D01*
X73882285Y-85070952D01*
X73920380Y-85070952D01*
X73996571Y-85032857D01*
X74034666Y-84994761D01*
X74072761Y-84918571D01*
X74072761Y-84766190D01*
X74110857Y-84690000D01*
X74148952Y-84651904D01*
X74225142Y-84613809D01*
X74377523Y-84613809D01*
X74453714Y-84651904D01*
X74491809Y-84690000D01*
X74529904Y-84766190D01*
X74529904Y-84918571D01*
X74491809Y-84994761D01*
X74453714Y-85032857D01*
X74377523Y-85070952D01*
X74225142Y-85070952D01*
X74148952Y-85032857D01*
X74110857Y-84994761D01*
X74072761Y-84918571D01*
X74072761Y-85528095D02*
X74034666Y-85451904D01*
X73996571Y-85413809D01*
X73920380Y-85375714D01*
X73882285Y-85375714D01*
X73806095Y-85413809D01*
X73768000Y-85451904D01*
X73729904Y-85528095D01*
X73729904Y-85680476D01*
X73768000Y-85756666D01*
X73806095Y-85794761D01*
X73882285Y-85832857D01*
X73920380Y-85832857D01*
X73996571Y-85794761D01*
X74034666Y-85756666D01*
X74072761Y-85680476D01*
X74072761Y-85528095D01*
X74110857Y-85451904D01*
X74148952Y-85413809D01*
X74225142Y-85375714D01*
X74377523Y-85375714D01*
X74453714Y-85413809D01*
X74491809Y-85451904D01*
X74529904Y-85528095D01*
X74529904Y-85680476D01*
X74491809Y-85756666D01*
X74453714Y-85794761D01*
X74377523Y-85832857D01*
X74225142Y-85832857D01*
X74148952Y-85794761D01*
X74110857Y-85756666D01*
X74072761Y-85680476D01*
X74529904Y-86175714D02*
X73729904Y-86175714D01*
X74301333Y-86442380D01*
X73729904Y-86709047D01*
X74529904Y-86709047D01*
X74529904Y-87090000D02*
X73729904Y-87090000D01*
X74110857Y-87090000D02*
X74110857Y-87547142D01*
X74529904Y-87547142D02*
X73729904Y-87547142D01*
X73996571Y-87851904D02*
X73996571Y-88270952D01*
X74529904Y-87851904D01*
X74529904Y-88270952D01*
X90785904Y-119392761D02*
X90404952Y-119126095D01*
X90785904Y-118935619D02*
X89985904Y-118935619D01*
X89985904Y-119240380D01*
X90024000Y-119316571D01*
X90062095Y-119354666D01*
X90138285Y-119392761D01*
X90252571Y-119392761D01*
X90328761Y-119354666D01*
X90366857Y-119316571D01*
X90404952Y-119240380D01*
X90404952Y-118935619D01*
X90366857Y-119735619D02*
X90366857Y-120002285D01*
X90785904Y-120116571D02*
X90785904Y-119735619D01*
X89985904Y-119735619D01*
X89985904Y-120116571D01*
X90747809Y-120421333D02*
X90785904Y-120535619D01*
X90785904Y-120726095D01*
X90747809Y-120802285D01*
X90709714Y-120840380D01*
X90633523Y-120878476D01*
X90557333Y-120878476D01*
X90481142Y-120840380D01*
X90443047Y-120802285D01*
X90404952Y-120726095D01*
X90366857Y-120573714D01*
X90328761Y-120497523D01*
X90290666Y-120459428D01*
X90214476Y-120421333D01*
X90138285Y-120421333D01*
X90062095Y-120459428D01*
X90024000Y-120497523D01*
X89985904Y-120573714D01*
X89985904Y-120764190D01*
X90024000Y-120878476D01*
X84944000Y-119278476D02*
X84905904Y-119202285D01*
X84905904Y-119088000D01*
X84944000Y-118973714D01*
X85020190Y-118897523D01*
X85096380Y-118859428D01*
X85248761Y-118821333D01*
X85363047Y-118821333D01*
X85515428Y-118859428D01*
X85591619Y-118897523D01*
X85667809Y-118973714D01*
X85705904Y-119088000D01*
X85705904Y-119164190D01*
X85667809Y-119278476D01*
X85629714Y-119316571D01*
X85363047Y-119316571D01*
X85363047Y-119164190D01*
X85705904Y-119659428D02*
X84905904Y-119659428D01*
X85705904Y-120116571D01*
X84905904Y-120116571D01*
X85705904Y-120497523D02*
X84905904Y-120497523D01*
X84905904Y-120688000D01*
X84944000Y-120802285D01*
X85020190Y-120878476D01*
X85096380Y-120916571D01*
X85248761Y-120954666D01*
X85363047Y-120954666D01*
X85515428Y-120916571D01*
X85591619Y-120878476D01*
X85667809Y-120802285D01*
X85705904Y-120688000D01*
X85705904Y-120497523D01*
X93287809Y-111296571D02*
X93325904Y-111410857D01*
X93325904Y-111601333D01*
X93287809Y-111677523D01*
X93249714Y-111715619D01*
X93173523Y-111753714D01*
X93097333Y-111753714D01*
X93021142Y-111715619D01*
X92983047Y-111677523D01*
X92944952Y-111601333D01*
X92906857Y-111448952D01*
X92868761Y-111372761D01*
X92830666Y-111334666D01*
X92754476Y-111296571D01*
X92678285Y-111296571D01*
X92602095Y-111334666D01*
X92564000Y-111372761D01*
X92525904Y-111448952D01*
X92525904Y-111639428D01*
X92564000Y-111753714D01*
X93325904Y-112096571D02*
X92525904Y-112096571D01*
X92525904Y-112287047D01*
X92564000Y-112401333D01*
X92640190Y-112477523D01*
X92716380Y-112515619D01*
X92868761Y-112553714D01*
X92983047Y-112553714D01*
X93135428Y-112515619D01*
X93211619Y-112477523D01*
X93287809Y-112401333D01*
X93325904Y-112287047D01*
X93325904Y-112096571D01*
X93097333Y-112858476D02*
X93097333Y-113239428D01*
X93325904Y-112782285D02*
X92525904Y-113048952D01*
X93325904Y-113315619D01*
X95827809Y-111061619D02*
X95865904Y-111175904D01*
X95865904Y-111366380D01*
X95827809Y-111442571D01*
X95789714Y-111480666D01*
X95713523Y-111518761D01*
X95637333Y-111518761D01*
X95561142Y-111480666D01*
X95523047Y-111442571D01*
X95484952Y-111366380D01*
X95446857Y-111214000D01*
X95408761Y-111137809D01*
X95370666Y-111099714D01*
X95294476Y-111061619D01*
X95218285Y-111061619D01*
X95142095Y-111099714D01*
X95104000Y-111137809D01*
X95065904Y-111214000D01*
X95065904Y-111404476D01*
X95104000Y-111518761D01*
X95789714Y-112318761D02*
X95827809Y-112280666D01*
X95865904Y-112166380D01*
X95865904Y-112090190D01*
X95827809Y-111975904D01*
X95751619Y-111899714D01*
X95675428Y-111861619D01*
X95523047Y-111823523D01*
X95408761Y-111823523D01*
X95256380Y-111861619D01*
X95180190Y-111899714D01*
X95104000Y-111975904D01*
X95065904Y-112090190D01*
X95065904Y-112166380D01*
X95104000Y-112280666D01*
X95142095Y-112318761D01*
X95865904Y-113042571D02*
X95865904Y-112661619D01*
X95065904Y-112661619D01*
X46736000Y-116586000D02*
X46736000Y-117348000D01*
X44196000Y-116586000D02*
X46736000Y-116586000D01*
X44196000Y-117348000D02*
X44196000Y-116586000D01*
D10*
X47644571Y-115994571D02*
X48144571Y-115280285D01*
X48501714Y-115994571D02*
X48501714Y-114494571D01*
X47930285Y-114494571D01*
X47787428Y-114566000D01*
X47716000Y-114637428D01*
X47644571Y-114780285D01*
X47644571Y-114994571D01*
X47716000Y-115137428D01*
X47787428Y-115208857D01*
X47930285Y-115280285D01*
X48501714Y-115280285D01*
X47001714Y-115208857D02*
X46501714Y-115208857D01*
X46287428Y-115994571D02*
X47001714Y-115994571D01*
X47001714Y-114494571D01*
X46287428Y-114494571D01*
X45716000Y-115923142D02*
X45501714Y-115994571D01*
X45144571Y-115994571D01*
X45001714Y-115923142D01*
X44930285Y-115851714D01*
X44858857Y-115708857D01*
X44858857Y-115566000D01*
X44930285Y-115423142D01*
X45001714Y-115351714D01*
X45144571Y-115280285D01*
X45430285Y-115208857D01*
X45573142Y-115137428D01*
X45644571Y-115066000D01*
X45716000Y-114923142D01*
X45716000Y-114780285D01*
X45644571Y-114637428D01*
X45573142Y-114566000D01*
X45430285Y-114494571D01*
X45073142Y-114494571D01*
X44858857Y-114566000D01*
X44216000Y-115208857D02*
X43716000Y-115208857D01*
X43501714Y-115994571D02*
X44216000Y-115994571D01*
X44216000Y-114494571D01*
X43501714Y-114494571D01*
X43073142Y-114494571D02*
X42216000Y-114494571D01*
X42644571Y-115994571D02*
X42644571Y-114494571D01*
D12*
X72744857Y-109607333D02*
X72363904Y-109607333D01*
X72821047Y-109835904D02*
X72554380Y-109035904D01*
X72287714Y-109835904D01*
X72021047Y-109035904D02*
X72021047Y-109683523D01*
X71982952Y-109759714D01*
X71944857Y-109797809D01*
X71868666Y-109835904D01*
X71716285Y-109835904D01*
X71640095Y-109797809D01*
X71602000Y-109759714D01*
X71563904Y-109683523D01*
X71563904Y-109035904D01*
X71259142Y-109035904D02*
X70725809Y-109835904D01*
X70725809Y-109035904D02*
X71259142Y-109835904D01*
X69811523Y-109835904D02*
X69811523Y-109035904D01*
X68859142Y-108997809D02*
X69544857Y-110026380D01*
X68440095Y-109035904D02*
X68287714Y-109035904D01*
X68211523Y-109074000D01*
X68135333Y-109150190D01*
X68097238Y-109302571D01*
X68097238Y-109569238D01*
X68135333Y-109721619D01*
X68211523Y-109797809D01*
X68287714Y-109835904D01*
X68440095Y-109835904D01*
X68516285Y-109797809D01*
X68592476Y-109721619D01*
X68630571Y-109569238D01*
X68630571Y-109302571D01*
X68592476Y-109150190D01*
X68516285Y-109074000D01*
X68440095Y-109035904D01*
X67144857Y-109416857D02*
X66878190Y-109416857D01*
X66763904Y-109835904D02*
X67144857Y-109835904D01*
X67144857Y-109035904D01*
X66763904Y-109035904D01*
X66497238Y-109035904D02*
X65963904Y-109835904D01*
X65963904Y-109035904D02*
X66497238Y-109835904D01*
X65659142Y-109835904D02*
X65659142Y-109035904D01*
X65354380Y-109035904D01*
X65278190Y-109074000D01*
X65240095Y-109112095D01*
X65202000Y-109188285D01*
X65202000Y-109302571D01*
X65240095Y-109378761D01*
X65278190Y-109416857D01*
X65354380Y-109454952D01*
X65659142Y-109454952D01*
X64897238Y-109607333D02*
X64516285Y-109607333D01*
X64973428Y-109835904D02*
X64706761Y-109035904D01*
X64440095Y-109835904D01*
X64173428Y-109835904D02*
X64173428Y-109035904D01*
X63716285Y-109835904D01*
X63716285Y-109035904D01*
X63373428Y-109797809D02*
X63259142Y-109835904D01*
X63068666Y-109835904D01*
X62992476Y-109797809D01*
X62954380Y-109759714D01*
X62916285Y-109683523D01*
X62916285Y-109607333D01*
X62954380Y-109531142D01*
X62992476Y-109493047D01*
X63068666Y-109454952D01*
X63221047Y-109416857D01*
X63297238Y-109378761D01*
X63335333Y-109340666D01*
X63373428Y-109264476D01*
X63373428Y-109188285D01*
X63335333Y-109112095D01*
X63297238Y-109074000D01*
X63221047Y-109035904D01*
X63030571Y-109035904D01*
X62916285Y-109074000D01*
X62573428Y-109835904D02*
X62573428Y-109035904D01*
X62040095Y-109035904D02*
X61887714Y-109035904D01*
X61811523Y-109074000D01*
X61735333Y-109150190D01*
X61697238Y-109302571D01*
X61697238Y-109569238D01*
X61735333Y-109721619D01*
X61811523Y-109797809D01*
X61887714Y-109835904D01*
X62040095Y-109835904D01*
X62116285Y-109797809D01*
X62192476Y-109721619D01*
X62230571Y-109569238D01*
X62230571Y-109302571D01*
X62192476Y-109150190D01*
X62116285Y-109074000D01*
X62040095Y-109035904D01*
X61354380Y-109835904D02*
X61354380Y-109035904D01*
X60897238Y-109835904D01*
X60897238Y-109035904D01*
X111760000Y-116586000D02*
X111760000Y-117094000D01*
X109982000Y-116586000D02*
X111760000Y-116586000D01*
X109982000Y-117094000D02*
X109982000Y-116586000D01*
X108966000Y-116586000D02*
X108966000Y-117094000D01*
X106934000Y-116586000D02*
X108966000Y-116586000D01*
X106934000Y-117094000D02*
X106934000Y-116586000D01*
X109003809Y-116185904D02*
X109003809Y-115385904D01*
X108699047Y-115385904D01*
X108622857Y-115424000D01*
X108584761Y-115462095D01*
X108546666Y-115538285D01*
X108546666Y-115652571D01*
X108584761Y-115728761D01*
X108622857Y-115766857D01*
X108699047Y-115804952D01*
X109003809Y-115804952D01*
X107746666Y-116185904D02*
X108013333Y-115804952D01*
X108203809Y-116185904D02*
X108203809Y-115385904D01*
X107899047Y-115385904D01*
X107822857Y-115424000D01*
X107784761Y-115462095D01*
X107746666Y-115538285D01*
X107746666Y-115652571D01*
X107784761Y-115728761D01*
X107822857Y-115766857D01*
X107899047Y-115804952D01*
X108203809Y-115804952D01*
X107251428Y-115385904D02*
X107099047Y-115385904D01*
X107022857Y-115424000D01*
X106946666Y-115500190D01*
X106908571Y-115652571D01*
X106908571Y-115919238D01*
X106946666Y-116071619D01*
X107022857Y-116147809D01*
X107099047Y-116185904D01*
X107251428Y-116185904D01*
X107327619Y-116147809D01*
X107403809Y-116071619D01*
X107441904Y-115919238D01*
X107441904Y-115652571D01*
X107403809Y-115500190D01*
X107327619Y-115424000D01*
X107251428Y-115385904D01*
X106146666Y-115424000D02*
X106222857Y-115385904D01*
X106337142Y-115385904D01*
X106451428Y-115424000D01*
X106527619Y-115500190D01*
X106565714Y-115576380D01*
X106603809Y-115728761D01*
X106603809Y-115843047D01*
X106565714Y-115995428D01*
X106527619Y-116071619D01*
X106451428Y-116147809D01*
X106337142Y-116185904D01*
X106260952Y-116185904D01*
X106146666Y-116147809D01*
X106108571Y-116109714D01*
X106108571Y-115843047D01*
X106260952Y-115843047D01*
X105765714Y-115881142D02*
X105156190Y-115881142D01*
X104508571Y-115766857D02*
X104394285Y-115804952D01*
X104356190Y-115843047D01*
X104318095Y-115919238D01*
X104318095Y-116033523D01*
X104356190Y-116109714D01*
X104394285Y-116147809D01*
X104470476Y-116185904D01*
X104775238Y-116185904D01*
X104775238Y-115385904D01*
X104508571Y-115385904D01*
X104432380Y-115424000D01*
X104394285Y-115462095D01*
X104356190Y-115538285D01*
X104356190Y-115614476D01*
X104394285Y-115690666D01*
X104432380Y-115728761D01*
X104508571Y-115766857D01*
X104775238Y-115766857D01*
X114534666Y-116185904D02*
X114534666Y-115385904D01*
X114229904Y-115385904D01*
X114153714Y-115424000D01*
X114115619Y-115462095D01*
X114077523Y-115538285D01*
X114077523Y-115652571D01*
X114115619Y-115728761D01*
X114153714Y-115766857D01*
X114229904Y-115804952D01*
X114534666Y-115804952D01*
X113277523Y-116185904D02*
X113544190Y-115804952D01*
X113734666Y-116185904D02*
X113734666Y-115385904D01*
X113429904Y-115385904D01*
X113353714Y-115424000D01*
X113315619Y-115462095D01*
X113277523Y-115538285D01*
X113277523Y-115652571D01*
X113315619Y-115728761D01*
X113353714Y-115766857D01*
X113429904Y-115804952D01*
X113734666Y-115804952D01*
X112782285Y-115385904D02*
X112629904Y-115385904D01*
X112553714Y-115424000D01*
X112477523Y-115500190D01*
X112439428Y-115652571D01*
X112439428Y-115919238D01*
X112477523Y-116071619D01*
X112553714Y-116147809D01*
X112629904Y-116185904D01*
X112782285Y-116185904D01*
X112858476Y-116147809D01*
X112934666Y-116071619D01*
X112972761Y-115919238D01*
X112972761Y-115652571D01*
X112934666Y-115500190D01*
X112858476Y-115424000D01*
X112782285Y-115385904D01*
X111677523Y-115424000D02*
X111753714Y-115385904D01*
X111868000Y-115385904D01*
X111982285Y-115424000D01*
X112058476Y-115500190D01*
X112096571Y-115576380D01*
X112134666Y-115728761D01*
X112134666Y-115843047D01*
X112096571Y-115995428D01*
X112058476Y-116071619D01*
X111982285Y-116147809D01*
X111868000Y-116185904D01*
X111791809Y-116185904D01*
X111677523Y-116147809D01*
X111639428Y-116109714D01*
X111639428Y-115843047D01*
X111791809Y-115843047D01*
X111296571Y-115881142D02*
X110687047Y-115881142D01*
X110344190Y-115957333D02*
X109963238Y-115957333D01*
X110420380Y-116185904D02*
X110153714Y-115385904D01*
X109887047Y-116185904D01*
X117441904Y-104890190D02*
X116641904Y-104890190D01*
X116641904Y-105194952D01*
X116680000Y-105271142D01*
X116718095Y-105309238D01*
X116794285Y-105347333D01*
X116908571Y-105347333D01*
X116984761Y-105309238D01*
X117022857Y-105271142D01*
X117060952Y-105194952D01*
X117060952Y-104890190D01*
X117441904Y-106147333D02*
X117060952Y-105880666D01*
X117441904Y-105690190D02*
X116641904Y-105690190D01*
X116641904Y-105994952D01*
X116680000Y-106071142D01*
X116718095Y-106109238D01*
X116794285Y-106147333D01*
X116908571Y-106147333D01*
X116984761Y-106109238D01*
X117022857Y-106071142D01*
X117060952Y-105994952D01*
X117060952Y-105690190D01*
X116641904Y-106642571D02*
X116641904Y-106794952D01*
X116680000Y-106871142D01*
X116756190Y-106947333D01*
X116908571Y-106985428D01*
X117175238Y-106985428D01*
X117327619Y-106947333D01*
X117403809Y-106871142D01*
X117441904Y-106794952D01*
X117441904Y-106642571D01*
X117403809Y-106566380D01*
X117327619Y-106490190D01*
X117175238Y-106452095D01*
X116908571Y-106452095D01*
X116756190Y-106490190D01*
X116680000Y-106566380D01*
X116641904Y-106642571D01*
X116680000Y-107747333D02*
X116641904Y-107671142D01*
X116641904Y-107556857D01*
X116680000Y-107442571D01*
X116756190Y-107366380D01*
X116832380Y-107328285D01*
X116984761Y-107290190D01*
X117099047Y-107290190D01*
X117251428Y-107328285D01*
X117327619Y-107366380D01*
X117403809Y-107442571D01*
X117441904Y-107556857D01*
X117441904Y-107633047D01*
X117403809Y-107747333D01*
X117365714Y-107785428D01*
X117099047Y-107785428D01*
X117099047Y-107633047D01*
X117441904Y-108585428D02*
X117060952Y-108318761D01*
X117441904Y-108128285D02*
X116641904Y-108128285D01*
X116641904Y-108433047D01*
X116680000Y-108509238D01*
X116718095Y-108547333D01*
X116794285Y-108585428D01*
X116908571Y-108585428D01*
X116984761Y-108547333D01*
X117022857Y-108509238D01*
X117060952Y-108433047D01*
X117060952Y-108128285D01*
X117213333Y-108890190D02*
X117213333Y-109271142D01*
X117441904Y-108814000D02*
X116641904Y-109080666D01*
X117441904Y-109347333D01*
X117441904Y-109614000D02*
X116641904Y-109614000D01*
X117213333Y-109880666D01*
X116641904Y-110147333D01*
X117441904Y-110147333D01*
X117137142Y-110528285D02*
X117137142Y-111137809D01*
X117022857Y-111785428D02*
X117060952Y-111899714D01*
X117099047Y-111937809D01*
X117175238Y-111975904D01*
X117289523Y-111975904D01*
X117365714Y-111937809D01*
X117403809Y-111899714D01*
X117441904Y-111823523D01*
X117441904Y-111518761D01*
X116641904Y-111518761D01*
X116641904Y-111785428D01*
X116680000Y-111861619D01*
X116718095Y-111899714D01*
X116794285Y-111937809D01*
X116870476Y-111937809D01*
X116946666Y-111899714D01*
X116984761Y-111861619D01*
X117022857Y-111785428D01*
X117022857Y-111518761D01*
X118041904Y-104299714D02*
X118841904Y-104490190D01*
X118270476Y-104642571D01*
X118841904Y-104794952D01*
X118041904Y-104985428D01*
X118841904Y-105747333D02*
X118460952Y-105480666D01*
X118841904Y-105290190D02*
X118041904Y-105290190D01*
X118041904Y-105594952D01*
X118080000Y-105671142D01*
X118118095Y-105709238D01*
X118194285Y-105747333D01*
X118308571Y-105747333D01*
X118384761Y-105709238D01*
X118422857Y-105671142D01*
X118460952Y-105594952D01*
X118460952Y-105290190D01*
X118841904Y-106090190D02*
X118041904Y-106090190D01*
X118041904Y-106356857D02*
X118041904Y-106814000D01*
X118841904Y-106585428D02*
X118041904Y-106585428D01*
X118422857Y-107080666D02*
X118422857Y-107347333D01*
X118841904Y-107461619D02*
X118841904Y-107080666D01*
X118041904Y-107080666D01*
X118041904Y-107461619D01*
X118422857Y-108414000D02*
X118422857Y-108680666D01*
X118841904Y-108794952D02*
X118841904Y-108414000D01*
X118041904Y-108414000D01*
X118041904Y-108794952D01*
X118841904Y-109137809D02*
X118041904Y-109137809D01*
X118841904Y-109594952D01*
X118041904Y-109594952D01*
X118613333Y-109937809D02*
X118613333Y-110318761D01*
X118841904Y-109861619D02*
X118041904Y-110128285D01*
X118841904Y-110394952D01*
X118422857Y-110928285D02*
X118460952Y-111042571D01*
X118499047Y-111080666D01*
X118575238Y-111118761D01*
X118689523Y-111118761D01*
X118765714Y-111080666D01*
X118803809Y-111042571D01*
X118841904Y-110966380D01*
X118841904Y-110661619D01*
X118041904Y-110661619D01*
X118041904Y-110928285D01*
X118080000Y-111004476D01*
X118118095Y-111042571D01*
X118194285Y-111080666D01*
X118270476Y-111080666D01*
X118346666Y-111042571D01*
X118384761Y-111004476D01*
X118422857Y-110928285D01*
X118422857Y-110661619D01*
X118841904Y-111842571D02*
X118841904Y-111461619D01*
X118041904Y-111461619D01*
X118422857Y-112109238D02*
X118422857Y-112375904D01*
X118841904Y-112490190D02*
X118841904Y-112109238D01*
X118041904Y-112109238D01*
X118041904Y-112490190D01*
X117517904Y-93815333D02*
X116717904Y-93815333D01*
X116717904Y-94120095D01*
X116756000Y-94196285D01*
X116794095Y-94234380D01*
X116870285Y-94272476D01*
X116984571Y-94272476D01*
X117060761Y-94234380D01*
X117098857Y-94196285D01*
X117136952Y-94120095D01*
X117136952Y-93815333D01*
X117517904Y-95072476D02*
X117136952Y-94805809D01*
X117517904Y-94615333D02*
X116717904Y-94615333D01*
X116717904Y-94920095D01*
X116756000Y-94996285D01*
X116794095Y-95034380D01*
X116870285Y-95072476D01*
X116984571Y-95072476D01*
X117060761Y-95034380D01*
X117098857Y-94996285D01*
X117136952Y-94920095D01*
X117136952Y-94615333D01*
X116717904Y-95567714D02*
X116717904Y-95720095D01*
X116756000Y-95796285D01*
X116832190Y-95872476D01*
X116984571Y-95910571D01*
X117251238Y-95910571D01*
X117403619Y-95872476D01*
X117479809Y-95796285D01*
X117517904Y-95720095D01*
X117517904Y-95567714D01*
X117479809Y-95491523D01*
X117403619Y-95415333D01*
X117251238Y-95377238D01*
X116984571Y-95377238D01*
X116832190Y-95415333D01*
X116756000Y-95491523D01*
X116717904Y-95567714D01*
X116756000Y-96672476D02*
X116717904Y-96596285D01*
X116717904Y-96482000D01*
X116756000Y-96367714D01*
X116832190Y-96291523D01*
X116908380Y-96253428D01*
X117060761Y-96215333D01*
X117175047Y-96215333D01*
X117327428Y-96253428D01*
X117403619Y-96291523D01*
X117479809Y-96367714D01*
X117517904Y-96482000D01*
X117517904Y-96558190D01*
X117479809Y-96672476D01*
X117441714Y-96710571D01*
X117175047Y-96710571D01*
X117175047Y-96558190D01*
X117517904Y-97510571D02*
X117136952Y-97243904D01*
X117517904Y-97053428D02*
X116717904Y-97053428D01*
X116717904Y-97358190D01*
X116756000Y-97434380D01*
X116794095Y-97472476D01*
X116870285Y-97510571D01*
X116984571Y-97510571D01*
X117060761Y-97472476D01*
X117098857Y-97434380D01*
X117136952Y-97358190D01*
X117136952Y-97053428D01*
X117289333Y-97815333D02*
X117289333Y-98196285D01*
X117517904Y-97739142D02*
X116717904Y-98005809D01*
X117517904Y-98272476D01*
X117517904Y-98539142D02*
X116717904Y-98539142D01*
X117289333Y-98805809D01*
X116717904Y-99072476D01*
X117517904Y-99072476D01*
X117213142Y-99453428D02*
X117213142Y-100062952D01*
X117289333Y-100405809D02*
X117289333Y-100786761D01*
X117517904Y-100329619D02*
X116717904Y-100596285D01*
X117517904Y-100862952D01*
X118117904Y-93167714D02*
X118917904Y-93358190D01*
X118346476Y-93510571D01*
X118917904Y-93662952D01*
X118117904Y-93853428D01*
X118917904Y-94615333D02*
X118536952Y-94348666D01*
X118917904Y-94158190D02*
X118117904Y-94158190D01*
X118117904Y-94462952D01*
X118156000Y-94539142D01*
X118194095Y-94577238D01*
X118270285Y-94615333D01*
X118384571Y-94615333D01*
X118460761Y-94577238D01*
X118498857Y-94539142D01*
X118536952Y-94462952D01*
X118536952Y-94158190D01*
X118917904Y-94958190D02*
X118117904Y-94958190D01*
X118117904Y-95224857D02*
X118117904Y-95682000D01*
X118917904Y-95453428D02*
X118117904Y-95453428D01*
X118498857Y-95948666D02*
X118498857Y-96215333D01*
X118917904Y-96329619D02*
X118917904Y-95948666D01*
X118117904Y-95948666D01*
X118117904Y-96329619D01*
X118498857Y-97282000D02*
X118498857Y-97548666D01*
X118917904Y-97662952D02*
X118917904Y-97282000D01*
X118117904Y-97282000D01*
X118117904Y-97662952D01*
X118917904Y-98005809D02*
X118117904Y-98005809D01*
X118917904Y-98462952D01*
X118117904Y-98462952D01*
X118689333Y-98805809D02*
X118689333Y-99186761D01*
X118917904Y-98729619D02*
X118117904Y-98996285D01*
X118917904Y-99262952D01*
X118498857Y-99796285D02*
X118536952Y-99910571D01*
X118575047Y-99948666D01*
X118651238Y-99986761D01*
X118765523Y-99986761D01*
X118841714Y-99948666D01*
X118879809Y-99910571D01*
X118917904Y-99834380D01*
X118917904Y-99529619D01*
X118117904Y-99529619D01*
X118117904Y-99796285D01*
X118156000Y-99872476D01*
X118194095Y-99910571D01*
X118270285Y-99948666D01*
X118346476Y-99948666D01*
X118422666Y-99910571D01*
X118460761Y-99872476D01*
X118498857Y-99796285D01*
X118498857Y-99529619D01*
X118917904Y-100710571D02*
X118917904Y-100329619D01*
X118117904Y-100329619D01*
X118498857Y-100977238D02*
X118498857Y-101243904D01*
X118917904Y-101358190D02*
X118917904Y-100977238D01*
X118117904Y-100977238D01*
X118117904Y-101358190D01*
D10*
X33146857Y-113296000D02*
X33289714Y-113224571D01*
X33504000Y-113224571D01*
X33718285Y-113296000D01*
X33861142Y-113438857D01*
X33932571Y-113581714D01*
X34004000Y-113867428D01*
X34004000Y-114081714D01*
X33932571Y-114367428D01*
X33861142Y-114510285D01*
X33718285Y-114653142D01*
X33504000Y-114724571D01*
X33361142Y-114724571D01*
X33146857Y-114653142D01*
X33075428Y-114581714D01*
X33075428Y-114081714D01*
X33361142Y-114081714D01*
X32432571Y-114724571D02*
X32432571Y-113224571D01*
X31575428Y-114724571D01*
X31575428Y-113224571D01*
X30861142Y-114724571D02*
X30861142Y-113224571D01*
X30504000Y-113224571D01*
X30289714Y-113296000D01*
X30146857Y-113438857D01*
X30075428Y-113581714D01*
X30004000Y-113867428D01*
X30004000Y-114081714D01*
X30075428Y-114367428D01*
X30146857Y-114510285D01*
X30289714Y-114653142D01*
X30504000Y-114724571D01*
X30861142Y-114724571D01*
X33440285Y-108882571D02*
X33440285Y-107382571D01*
X33083142Y-107382571D01*
X32868857Y-107454000D01*
X32726000Y-107596857D01*
X32654571Y-107739714D01*
X32583142Y-108025428D01*
X32583142Y-108239714D01*
X32654571Y-108525428D01*
X32726000Y-108668285D01*
X32868857Y-108811142D01*
X33083142Y-108882571D01*
X33440285Y-108882571D01*
X31083142Y-108739714D02*
X31154571Y-108811142D01*
X31368857Y-108882571D01*
X31511714Y-108882571D01*
X31726000Y-108811142D01*
X31868857Y-108668285D01*
X31940285Y-108525428D01*
X32011714Y-108239714D01*
X32011714Y-108025428D01*
X31940285Y-107739714D01*
X31868857Y-107596857D01*
X31726000Y-107454000D01*
X31511714Y-107382571D01*
X31368857Y-107382571D01*
X31154571Y-107454000D01*
X31083142Y-107525428D01*
X29654571Y-108882571D02*
X30511714Y-108882571D01*
X30083142Y-108882571D02*
X30083142Y-107382571D01*
X30226000Y-107596857D01*
X30368857Y-107739714D01*
X30511714Y-107811142D01*
X29083142Y-107525428D02*
X29011714Y-107454000D01*
X28868857Y-107382571D01*
X28511714Y-107382571D01*
X28368857Y-107454000D01*
X28297428Y-107525428D01*
X28226000Y-107668285D01*
X28226000Y-107811142D01*
X28297428Y-108025428D01*
X29154571Y-108882571D01*
X28226000Y-108882571D01*
X27797428Y-107382571D02*
X27297428Y-108882571D01*
X26797428Y-107382571D01*
D12*
X73006000Y-103784476D02*
X72967904Y-103708285D01*
X72967904Y-103594000D01*
X73006000Y-103479714D01*
X73082190Y-103403523D01*
X73158380Y-103365428D01*
X73310761Y-103327333D01*
X73425047Y-103327333D01*
X73577428Y-103365428D01*
X73653619Y-103403523D01*
X73729809Y-103479714D01*
X73767904Y-103594000D01*
X73767904Y-103670190D01*
X73729809Y-103784476D01*
X73691714Y-103822571D01*
X73425047Y-103822571D01*
X73425047Y-103670190D01*
X73767904Y-104165428D02*
X72967904Y-104165428D01*
X73767904Y-104622571D01*
X72967904Y-104622571D01*
X73767904Y-105003523D02*
X72967904Y-105003523D01*
X72967904Y-105194000D01*
X73006000Y-105308285D01*
X73082190Y-105384476D01*
X73158380Y-105422571D01*
X73310761Y-105460666D01*
X73425047Y-105460666D01*
X73577428Y-105422571D01*
X73653619Y-105384476D01*
X73729809Y-105308285D01*
X73767904Y-105194000D01*
X73767904Y-105003523D01*
X70973904Y-103346380D02*
X70173904Y-103346380D01*
X70745333Y-103613047D01*
X70173904Y-103879714D01*
X70973904Y-103879714D01*
X70973904Y-104260666D02*
X70173904Y-104260666D01*
X70173904Y-104565428D01*
X70212000Y-104641619D01*
X70250095Y-104679714D01*
X70326285Y-104717809D01*
X70440571Y-104717809D01*
X70516761Y-104679714D01*
X70554857Y-104641619D01*
X70592952Y-104565428D01*
X70592952Y-104260666D01*
X70973904Y-105098761D02*
X70973904Y-105251142D01*
X70935809Y-105327333D01*
X70897714Y-105365428D01*
X70783428Y-105441619D01*
X70631047Y-105479714D01*
X70326285Y-105479714D01*
X70250095Y-105441619D01*
X70212000Y-105403523D01*
X70173904Y-105327333D01*
X70173904Y-105174952D01*
X70212000Y-105098761D01*
X70250095Y-105060666D01*
X70326285Y-105022571D01*
X70516761Y-105022571D01*
X70592952Y-105060666D01*
X70631047Y-105098761D01*
X70669142Y-105174952D01*
X70669142Y-105327333D01*
X70631047Y-105403523D01*
X70592952Y-105441619D01*
X70516761Y-105479714D01*
X68433904Y-103346380D02*
X67633904Y-103346380D01*
X68205333Y-103613047D01*
X67633904Y-103879714D01*
X68433904Y-103879714D01*
X68433904Y-104260666D02*
X67633904Y-104260666D01*
X67633904Y-104565428D01*
X67672000Y-104641619D01*
X67710095Y-104679714D01*
X67786285Y-104717809D01*
X67900571Y-104717809D01*
X67976761Y-104679714D01*
X68014857Y-104641619D01*
X68052952Y-104565428D01*
X68052952Y-104260666D01*
X67633904Y-104984476D02*
X67633904Y-105479714D01*
X67938666Y-105213047D01*
X67938666Y-105327333D01*
X67976761Y-105403523D01*
X68014857Y-105441619D01*
X68091047Y-105479714D01*
X68281523Y-105479714D01*
X68357714Y-105441619D01*
X68395809Y-105403523D01*
X68433904Y-105327333D01*
X68433904Y-105098761D01*
X68395809Y-105022571D01*
X68357714Y-104984476D01*
X65893904Y-103346380D02*
X65093904Y-103346380D01*
X65665333Y-103613047D01*
X65093904Y-103879714D01*
X65893904Y-103879714D01*
X65893904Y-104260666D02*
X65093904Y-104260666D01*
X65093904Y-104565428D01*
X65132000Y-104641619D01*
X65170095Y-104679714D01*
X65246285Y-104717809D01*
X65360571Y-104717809D01*
X65436761Y-104679714D01*
X65474857Y-104641619D01*
X65512952Y-104565428D01*
X65512952Y-104260666D01*
X65170095Y-105022571D02*
X65132000Y-105060666D01*
X65093904Y-105136857D01*
X65093904Y-105327333D01*
X65132000Y-105403523D01*
X65170095Y-105441619D01*
X65246285Y-105479714D01*
X65322476Y-105479714D01*
X65436761Y-105441619D01*
X65893904Y-104984476D01*
X65893904Y-105479714D01*
X63353904Y-103346380D02*
X62553904Y-103346380D01*
X63125333Y-103613047D01*
X62553904Y-103879714D01*
X63353904Y-103879714D01*
X63353904Y-104260666D02*
X62553904Y-104260666D01*
X62553904Y-104565428D01*
X62592000Y-104641619D01*
X62630095Y-104679714D01*
X62706285Y-104717809D01*
X62820571Y-104717809D01*
X62896761Y-104679714D01*
X62934857Y-104641619D01*
X62972952Y-104565428D01*
X62972952Y-104260666D01*
X62553904Y-105213047D02*
X62553904Y-105289238D01*
X62592000Y-105365428D01*
X62630095Y-105403523D01*
X62706285Y-105441619D01*
X62858666Y-105479714D01*
X63049142Y-105479714D01*
X63201523Y-105441619D01*
X63277714Y-105403523D01*
X63315809Y-105365428D01*
X63353904Y-105289238D01*
X63353904Y-105213047D01*
X63315809Y-105136857D01*
X63277714Y-105098761D01*
X63201523Y-105060666D01*
X63049142Y-105022571D01*
X62858666Y-105022571D01*
X62706285Y-105060666D01*
X62630095Y-105098761D01*
X62592000Y-105136857D01*
X62553904Y-105213047D01*
X60013904Y-103441619D02*
X60013904Y-103936857D01*
X60318666Y-103670190D01*
X60318666Y-103784476D01*
X60356761Y-103860666D01*
X60394857Y-103898761D01*
X60471047Y-103936857D01*
X60661523Y-103936857D01*
X60737714Y-103898761D01*
X60775809Y-103860666D01*
X60813904Y-103784476D01*
X60813904Y-103555904D01*
X60775809Y-103479714D01*
X60737714Y-103441619D01*
X60280571Y-104203523D02*
X60813904Y-104394000D01*
X60280571Y-104584476D01*
X60013904Y-105041619D02*
X60013904Y-105117809D01*
X60052000Y-105194000D01*
X60090095Y-105232095D01*
X60166285Y-105270190D01*
X60318666Y-105308285D01*
X60509142Y-105308285D01*
X60661523Y-105270190D01*
X60737714Y-105232095D01*
X60775809Y-105194000D01*
X60813904Y-105117809D01*
X60813904Y-105041619D01*
X60775809Y-104965428D01*
X60737714Y-104927333D01*
X60661523Y-104889238D01*
X60509142Y-104851142D01*
X60318666Y-104851142D01*
X60166285Y-104889238D01*
X60090095Y-104927333D01*
X60052000Y-104965428D01*
X60013904Y-105041619D01*
D10*
X57119600Y-119865400D02*
X56405314Y-119865400D01*
X57262457Y-120293971D02*
X56762457Y-118793971D01*
X56262457Y-120293971D01*
X55762457Y-118793971D02*
X55762457Y-120008257D01*
X55691028Y-120151114D01*
X55619600Y-120222542D01*
X55476742Y-120293971D01*
X55191028Y-120293971D01*
X55048171Y-120222542D01*
X54976742Y-120151114D01*
X54905314Y-120008257D01*
X54905314Y-118793971D01*
X54333885Y-118793971D02*
X53333885Y-120293971D01*
X53333885Y-118793971D02*
X54333885Y-120293971D01*
X52762457Y-119722542D02*
X51619600Y-119722542D01*
X50619600Y-118793971D02*
X50476742Y-118793971D01*
X50333885Y-118865400D01*
X50262457Y-118936828D01*
X50191028Y-119079685D01*
X50119600Y-119365400D01*
X50119600Y-119722542D01*
X50191028Y-120008257D01*
X50262457Y-120151114D01*
X50333885Y-120222542D01*
X50476742Y-120293971D01*
X50619600Y-120293971D01*
X50762457Y-120222542D01*
X50833885Y-120151114D01*
X50905314Y-120008257D01*
X50976742Y-119722542D01*
X50976742Y-119365400D01*
X50905314Y-119079685D01*
X50833885Y-118936828D01*
X50762457Y-118865400D01*
X50619600Y-118793971D01*
X66924000Y-119916200D02*
X66209714Y-119916200D01*
X67066857Y-120344771D02*
X66566857Y-118844771D01*
X66066857Y-120344771D01*
X65566857Y-118844771D02*
X65566857Y-120059057D01*
X65495428Y-120201914D01*
X65424000Y-120273342D01*
X65281142Y-120344771D01*
X64995428Y-120344771D01*
X64852571Y-120273342D01*
X64781142Y-120201914D01*
X64709714Y-120059057D01*
X64709714Y-118844771D01*
X64138285Y-118844771D02*
X63138285Y-120344771D01*
X63138285Y-118844771D02*
X64138285Y-120344771D01*
X62566857Y-119773342D02*
X61424000Y-119773342D01*
X59924000Y-120344771D02*
X60781142Y-120344771D01*
X60352571Y-120344771D02*
X60352571Y-118844771D01*
X60495428Y-119059057D01*
X60638285Y-119201914D01*
X60781142Y-119273342D01*
X77084000Y-119941600D02*
X76369714Y-119941600D01*
X77226857Y-120370171D02*
X76726857Y-118870171D01*
X76226857Y-120370171D01*
X75726857Y-118870171D02*
X75726857Y-120084457D01*
X75655428Y-120227314D01*
X75584000Y-120298742D01*
X75441142Y-120370171D01*
X75155428Y-120370171D01*
X75012571Y-120298742D01*
X74941142Y-120227314D01*
X74869714Y-120084457D01*
X74869714Y-118870171D01*
X74298285Y-118870171D02*
X73298285Y-120370171D01*
X73298285Y-118870171D02*
X74298285Y-120370171D01*
X72726857Y-119798742D02*
X71584000Y-119798742D01*
X70941142Y-119013028D02*
X70869714Y-118941600D01*
X70726857Y-118870171D01*
X70369714Y-118870171D01*
X70226857Y-118941600D01*
X70155428Y-119013028D01*
X70084000Y-119155885D01*
X70084000Y-119298742D01*
X70155428Y-119513028D01*
X71012571Y-120370171D01*
X70084000Y-120370171D01*
X114753197Y-32952131D02*
X114467482Y-32952131D01*
X114324625Y-33023560D01*
X114181768Y-33166417D01*
X114110340Y-33452131D01*
X114110340Y-33952131D01*
X114181768Y-34237845D01*
X114324625Y-34380702D01*
X114467482Y-34452131D01*
X114753197Y-34452131D01*
X114896054Y-34380702D01*
X115038911Y-34237845D01*
X115110340Y-33952131D01*
X115110340Y-33452131D01*
X115038911Y-33166417D01*
X114896054Y-33023560D01*
X114753197Y-32952131D01*
X113467482Y-32952131D02*
X113467482Y-34166417D01*
X113396054Y-34309274D01*
X113324625Y-34380702D01*
X113181768Y-34452131D01*
X112896054Y-34452131D01*
X112753197Y-34380702D01*
X112681768Y-34309274D01*
X112610340Y-34166417D01*
X112610340Y-32952131D01*
X112110340Y-32952131D02*
X111253197Y-32952131D01*
X111681768Y-34452131D02*
X111681768Y-32952131D01*
X110753197Y-33880702D02*
X109610340Y-33880702D01*
X109038911Y-32952131D02*
X108110340Y-32952131D01*
X108610340Y-33523560D01*
X108396054Y-33523560D01*
X108253197Y-33594988D01*
X108181768Y-33666417D01*
X108110340Y-33809274D01*
X108110340Y-34166417D01*
X108181768Y-34309274D01*
X108253197Y-34380702D01*
X108396054Y-34452131D01*
X108824625Y-34452131D01*
X108967482Y-34380702D01*
X109038911Y-34309274D01*
X101062597Y-32952131D02*
X100776882Y-32952131D01*
X100634025Y-33023560D01*
X100491168Y-33166417D01*
X100419740Y-33452131D01*
X100419740Y-33952131D01*
X100491168Y-34237845D01*
X100634025Y-34380702D01*
X100776882Y-34452131D01*
X101062597Y-34452131D01*
X101205454Y-34380702D01*
X101348311Y-34237845D01*
X101419740Y-33952131D01*
X101419740Y-33452131D01*
X101348311Y-33166417D01*
X101205454Y-33023560D01*
X101062597Y-32952131D01*
X99776882Y-32952131D02*
X99776882Y-34166417D01*
X99705454Y-34309274D01*
X99634025Y-34380702D01*
X99491168Y-34452131D01*
X99205454Y-34452131D01*
X99062597Y-34380702D01*
X98991168Y-34309274D01*
X98919740Y-34166417D01*
X98919740Y-32952131D01*
X98419740Y-32952131D02*
X97562597Y-32952131D01*
X97991168Y-34452131D02*
X97991168Y-32952131D01*
X97062597Y-33880702D02*
X95919740Y-33880702D01*
X95276882Y-33094988D02*
X95205454Y-33023560D01*
X95062597Y-32952131D01*
X94705454Y-32952131D01*
X94562597Y-33023560D01*
X94491168Y-33094988D01*
X94419740Y-33237845D01*
X94419740Y-33380702D01*
X94491168Y-33594988D01*
X95348311Y-34452131D01*
X94419740Y-34452131D01*
X86630317Y-32865771D02*
X86344602Y-32865771D01*
X86201745Y-32937200D01*
X86058888Y-33080057D01*
X85987460Y-33365771D01*
X85987460Y-33865771D01*
X86058888Y-34151485D01*
X86201745Y-34294342D01*
X86344602Y-34365771D01*
X86630317Y-34365771D01*
X86773174Y-34294342D01*
X86916031Y-34151485D01*
X86987460Y-33865771D01*
X86987460Y-33365771D01*
X86916031Y-33080057D01*
X86773174Y-32937200D01*
X86630317Y-32865771D01*
X85344602Y-32865771D02*
X85344602Y-34080057D01*
X85273174Y-34222914D01*
X85201745Y-34294342D01*
X85058888Y-34365771D01*
X84773174Y-34365771D01*
X84630317Y-34294342D01*
X84558888Y-34222914D01*
X84487460Y-34080057D01*
X84487460Y-32865771D01*
X83987460Y-32865771D02*
X83130317Y-32865771D01*
X83558888Y-34365771D02*
X83558888Y-32865771D01*
X82630317Y-33794342D02*
X81487460Y-33794342D01*
X79987460Y-34365771D02*
X80844602Y-34365771D01*
X80416031Y-34365771D02*
X80416031Y-32865771D01*
X80558888Y-33080057D01*
X80701745Y-33222914D01*
X80844602Y-33294342D01*
X72711117Y-32952131D02*
X72425402Y-32952131D01*
X72282545Y-33023560D01*
X72139688Y-33166417D01*
X72068260Y-33452131D01*
X72068260Y-33952131D01*
X72139688Y-34237845D01*
X72282545Y-34380702D01*
X72425402Y-34452131D01*
X72711117Y-34452131D01*
X72853974Y-34380702D01*
X72996831Y-34237845D01*
X73068260Y-33952131D01*
X73068260Y-33452131D01*
X72996831Y-33166417D01*
X72853974Y-33023560D01*
X72711117Y-32952131D01*
X71425402Y-32952131D02*
X71425402Y-34166417D01*
X71353974Y-34309274D01*
X71282545Y-34380702D01*
X71139688Y-34452131D01*
X70853974Y-34452131D01*
X70711117Y-34380702D01*
X70639688Y-34309274D01*
X70568260Y-34166417D01*
X70568260Y-32952131D01*
X70068260Y-32952131D02*
X69211117Y-32952131D01*
X69639688Y-34452131D02*
X69639688Y-32952131D01*
X68711117Y-33880702D02*
X67568260Y-33880702D01*
X66568260Y-32952131D02*
X66425402Y-32952131D01*
X66282545Y-33023560D01*
X66211117Y-33094988D01*
X66139688Y-33237845D01*
X66068260Y-33523560D01*
X66068260Y-33880702D01*
X66139688Y-34166417D01*
X66211117Y-34309274D01*
X66282545Y-34380702D01*
X66425402Y-34452131D01*
X66568260Y-34452131D01*
X66711117Y-34380702D01*
X66782545Y-34309274D01*
X66853974Y-34166417D01*
X66925402Y-33880702D01*
X66925402Y-33523560D01*
X66853974Y-33237845D01*
X66782545Y-33094988D01*
X66711117Y-33023560D01*
X66568260Y-32952131D01*
X52753791Y-34281951D02*
X52753791Y-32781951D01*
X52039505Y-34281951D02*
X52039505Y-32781951D01*
X51182362Y-34281951D01*
X51182362Y-32781951D01*
X50468077Y-33710522D02*
X49325220Y-33710522D01*
X47825220Y-34281951D02*
X48682362Y-34281951D01*
X48253791Y-34281951D02*
X48253791Y-32781951D01*
X48396648Y-32996237D01*
X48539505Y-33139094D01*
X48682362Y-33210522D01*
D12*
X119575333Y-88671523D02*
X119575333Y-89052476D01*
X119803904Y-88595333D02*
X119003904Y-88862000D01*
X119803904Y-89128666D01*
X119803904Y-89395333D02*
X119003904Y-89395333D01*
X119003904Y-89585809D01*
X119042000Y-89700095D01*
X119118190Y-89776285D01*
X119194380Y-89814380D01*
X119346761Y-89852476D01*
X119461047Y-89852476D01*
X119613428Y-89814380D01*
X119689619Y-89776285D01*
X119765809Y-89700095D01*
X119803904Y-89585809D01*
X119803904Y-89395333D01*
X119727714Y-90652476D02*
X119765809Y-90614380D01*
X119803904Y-90500095D01*
X119803904Y-90423904D01*
X119765809Y-90309619D01*
X119689619Y-90233428D01*
X119613428Y-90195333D01*
X119461047Y-90157238D01*
X119346761Y-90157238D01*
X119194380Y-90195333D01*
X119118190Y-90233428D01*
X119042000Y-90309619D01*
X119003904Y-90423904D01*
X119003904Y-90500095D01*
X119042000Y-90614380D01*
X119080095Y-90652476D01*
X120784857Y-88595333D02*
X120822952Y-88709619D01*
X120861047Y-88747714D01*
X120937238Y-88785809D01*
X121051523Y-88785809D01*
X121127714Y-88747714D01*
X121165809Y-88709619D01*
X121203904Y-88633428D01*
X121203904Y-88328666D01*
X120403904Y-88328666D01*
X120403904Y-88595333D01*
X120442000Y-88671523D01*
X120480095Y-88709619D01*
X120556285Y-88747714D01*
X120632476Y-88747714D01*
X120708666Y-88709619D01*
X120746761Y-88671523D01*
X120784857Y-88595333D01*
X120784857Y-88328666D01*
X121127714Y-89585809D02*
X121165809Y-89547714D01*
X121203904Y-89433428D01*
X121203904Y-89357238D01*
X121165809Y-89242952D01*
X121089619Y-89166761D01*
X121013428Y-89128666D01*
X120861047Y-89090571D01*
X120746761Y-89090571D01*
X120594380Y-89128666D01*
X120518190Y-89166761D01*
X120442000Y-89242952D01*
X120403904Y-89357238D01*
X120403904Y-89433428D01*
X120442000Y-89547714D01*
X120480095Y-89585809D01*
X121203904Y-90309619D02*
X121203904Y-89928666D01*
X120403904Y-89928666D01*
X121203904Y-90576285D02*
X120403904Y-90576285D01*
X121203904Y-91033428D02*
X120746761Y-90690571D01*
X120403904Y-91033428D02*
X120861047Y-90576285D01*
X119575333Y-84226523D02*
X119575333Y-84607476D01*
X119803904Y-84150333D02*
X119003904Y-84417000D01*
X119803904Y-84683666D01*
X119803904Y-84950333D02*
X119003904Y-84950333D01*
X119003904Y-85140809D01*
X119042000Y-85255095D01*
X119118190Y-85331285D01*
X119194380Y-85369380D01*
X119346761Y-85407476D01*
X119461047Y-85407476D01*
X119613428Y-85369380D01*
X119689619Y-85331285D01*
X119765809Y-85255095D01*
X119803904Y-85140809D01*
X119803904Y-84950333D01*
X119727714Y-86207476D02*
X119765809Y-86169380D01*
X119803904Y-86055095D01*
X119803904Y-85978904D01*
X119765809Y-85864619D01*
X119689619Y-85788428D01*
X119613428Y-85750333D01*
X119461047Y-85712238D01*
X119346761Y-85712238D01*
X119194380Y-85750333D01*
X119118190Y-85788428D01*
X119042000Y-85864619D01*
X119003904Y-85978904D01*
X119003904Y-86055095D01*
X119042000Y-86169380D01*
X119080095Y-86207476D01*
X121203904Y-83940809D02*
X121203904Y-83559857D01*
X120403904Y-83559857D01*
X121203904Y-84664619D02*
X120822952Y-84397952D01*
X121203904Y-84207476D02*
X120403904Y-84207476D01*
X120403904Y-84512238D01*
X120442000Y-84588428D01*
X120480095Y-84626523D01*
X120556285Y-84664619D01*
X120670571Y-84664619D01*
X120746761Y-84626523D01*
X120784857Y-84588428D01*
X120822952Y-84512238D01*
X120822952Y-84207476D01*
X121127714Y-85464619D02*
X121165809Y-85426523D01*
X121203904Y-85312238D01*
X121203904Y-85236047D01*
X121165809Y-85121761D01*
X121089619Y-85045571D01*
X121013428Y-85007476D01*
X120861047Y-84969380D01*
X120746761Y-84969380D01*
X120594380Y-85007476D01*
X120518190Y-85045571D01*
X120442000Y-85121761D01*
X120403904Y-85236047D01*
X120403904Y-85312238D01*
X120442000Y-85426523D01*
X120480095Y-85464619D01*
X121203904Y-86188428D02*
X121203904Y-85807476D01*
X120403904Y-85807476D01*
X121203904Y-86455095D02*
X120403904Y-86455095D01*
X121203904Y-86912238D02*
X120746761Y-86569380D01*
X120403904Y-86912238D02*
X120861047Y-86455095D01*
D10*
X38750771Y-34365771D02*
X38750771Y-32865771D01*
X38036485Y-34365771D02*
X38036485Y-32865771D01*
X37179342Y-34365771D01*
X37179342Y-32865771D01*
X36465057Y-33794342D02*
X35322200Y-33794342D01*
X34322200Y-32865771D02*
X34179342Y-32865771D01*
X34036485Y-32937200D01*
X33965057Y-33008628D01*
X33893628Y-33151485D01*
X33822200Y-33437200D01*
X33822200Y-33794342D01*
X33893628Y-34080057D01*
X33965057Y-34222914D01*
X34036485Y-34294342D01*
X34179342Y-34365771D01*
X34322200Y-34365771D01*
X34465057Y-34294342D01*
X34536485Y-34222914D01*
X34607914Y-34080057D01*
X34679342Y-33794342D01*
X34679342Y-33437200D01*
X34607914Y-33151485D01*
X34536485Y-33008628D01*
X34465057Y-32937200D01*
X34322200Y-32865771D01*
X92674000Y-108144571D02*
X92674000Y-109358857D01*
X92602571Y-109501714D01*
X92531142Y-109573142D01*
X92388285Y-109644571D01*
X92102571Y-109644571D01*
X91959714Y-109573142D01*
X91888285Y-109501714D01*
X91816857Y-109358857D01*
X91816857Y-108144571D01*
X91174000Y-109573142D02*
X90959714Y-109644571D01*
X90602571Y-109644571D01*
X90459714Y-109573142D01*
X90388285Y-109501714D01*
X90316857Y-109358857D01*
X90316857Y-109216000D01*
X90388285Y-109073142D01*
X90459714Y-109001714D01*
X90602571Y-108930285D01*
X90888285Y-108858857D01*
X91031142Y-108787428D01*
X91102571Y-108716000D01*
X91174000Y-108573142D01*
X91174000Y-108430285D01*
X91102571Y-108287428D01*
X91031142Y-108216000D01*
X90888285Y-108144571D01*
X90531142Y-108144571D01*
X90316857Y-108216000D01*
X89174000Y-108858857D02*
X88959714Y-108930285D01*
X88888285Y-109001714D01*
X88816857Y-109144571D01*
X88816857Y-109358857D01*
X88888285Y-109501714D01*
X88959714Y-109573142D01*
X89102571Y-109644571D01*
X89674000Y-109644571D01*
X89674000Y-108144571D01*
X89174000Y-108144571D01*
X89031142Y-108216000D01*
X88959714Y-108287428D01*
X88888285Y-108430285D01*
X88888285Y-108573142D01*
X88959714Y-108716000D01*
X89031142Y-108787428D01*
X89174000Y-108858857D01*
X89674000Y-108858857D01*
X88174000Y-109644571D02*
X88174000Y-108644571D01*
X88174000Y-108144571D02*
X88245428Y-108216000D01*
X88174000Y-108287428D01*
X88102571Y-108216000D01*
X88174000Y-108144571D01*
X88174000Y-108287428D01*
D13*
G36*
X38394616Y-103553828D02*
G01*
X38657785Y-103517717D01*
X38917482Y-103457790D01*
X39122588Y-103392165D01*
X39378507Y-103286375D01*
X39622780Y-103158606D01*
X39854198Y-103009761D01*
X40071549Y-102840742D01*
X40273626Y-102652451D01*
X40459218Y-102445791D01*
X40553838Y-102324612D01*
X40587292Y-102279544D01*
X40326884Y-102098276D01*
X40255168Y-102048746D01*
X40189845Y-102004375D01*
X40133858Y-101967102D01*
X40090150Y-101938867D01*
X40061664Y-101921608D01*
X40051762Y-101917007D01*
X40037261Y-101926399D01*
X40013483Y-101951003D01*
X39986035Y-101984900D01*
X39843154Y-102154884D01*
X39680606Y-102312121D01*
X39501396Y-102454742D01*
X39308531Y-102580882D01*
X39105015Y-102688671D01*
X38893856Y-102776243D01*
X38678058Y-102841730D01*
X38568063Y-102865856D01*
X38327397Y-102899337D01*
X38087358Y-102908483D01*
X37849655Y-102893811D01*
X37615997Y-102855839D01*
X37388090Y-102795082D01*
X37167643Y-102712058D01*
X36956366Y-102607284D01*
X36755965Y-102481276D01*
X36568149Y-102334552D01*
X36450423Y-102225132D01*
X36284654Y-102043076D01*
X36140965Y-101849029D01*
X36019311Y-101642898D01*
X35919646Y-101424592D01*
X35841922Y-101194020D01*
X35786094Y-100951090D01*
X35776147Y-100892201D01*
X35764801Y-100795321D01*
X35757874Y-100681917D01*
X35755369Y-100560064D01*
X35757290Y-100437838D01*
X35763638Y-100323316D01*
X35774417Y-100224574D01*
X35775891Y-100214911D01*
X35826265Y-99972207D01*
X35898801Y-99739393D01*
X35992693Y-99517744D01*
X36107136Y-99308536D01*
X36241325Y-99113042D01*
X36394455Y-98932539D01*
X36565722Y-98768301D01*
X36754319Y-98621604D01*
X36802638Y-98588774D01*
X37012385Y-98464675D01*
X37230806Y-98363434D01*
X37456209Y-98285283D01*
X37686900Y-98230453D01*
X37921189Y-98199177D01*
X38157383Y-98191685D01*
X38393791Y-98208210D01*
X38628721Y-98248983D01*
X38845163Y-98309119D01*
X39072899Y-98397312D01*
X39288812Y-98507254D01*
X39491515Y-98637983D01*
X39679623Y-98788539D01*
X39851749Y-98957959D01*
X39955299Y-99078864D01*
X40048700Y-99195671D01*
X40107476Y-99153642D01*
X40136486Y-99133125D01*
X40181750Y-99101392D01*
X40238839Y-99061534D01*
X40303325Y-99016642D01*
X40370583Y-98969946D01*
X40433140Y-98926199D01*
X40487955Y-98887148D01*
X40531901Y-98855082D01*
X40561847Y-98832290D01*
X40574663Y-98821060D01*
X40574915Y-98820498D01*
X40566884Y-98803443D01*
X40544681Y-98771284D01*
X40511142Y-98727441D01*
X40469104Y-98675336D01*
X40421403Y-98618389D01*
X40370874Y-98560023D01*
X40320355Y-98503657D01*
X40272680Y-98452712D01*
X40254808Y-98434381D01*
X40050962Y-98245679D01*
X39834483Y-98078467D01*
X39606336Y-97933150D01*
X39367486Y-97810130D01*
X39118899Y-97709811D01*
X38861541Y-97632599D01*
X38596376Y-97578896D01*
X38324371Y-97549106D01*
X38122935Y-97542691D01*
X37866661Y-97551577D01*
X37624207Y-97578775D01*
X37391106Y-97625334D01*
X37162892Y-97692299D01*
X36935101Y-97780717D01*
X36761826Y-97861751D01*
X36523287Y-97994912D01*
X36299112Y-98148322D01*
X36090456Y-98320833D01*
X35898477Y-98511297D01*
X35724333Y-98718567D01*
X35569180Y-98941494D01*
X35434225Y-99178832D01*
X35321133Y-99425751D01*
X35232155Y-99676306D01*
X35166264Y-99933633D01*
X35140067Y-100075593D01*
X35111868Y-100251018D01*
X32068430Y-100244630D01*
X32058928Y-100156611D01*
X32026014Y-99943509D01*
X31973533Y-99723658D01*
X31903604Y-99503043D01*
X31818346Y-99287651D01*
X31719878Y-99083466D01*
X31616120Y-98905472D01*
X31518409Y-98764180D01*
X31406551Y-98621331D01*
X31285572Y-98482545D01*
X31160499Y-98353442D01*
X31036359Y-98239644D01*
X30977128Y-98190963D01*
X30751789Y-98028930D01*
X30516696Y-97890074D01*
X30271895Y-97774411D01*
X30017431Y-97681956D01*
X29753350Y-97612727D01*
X29479696Y-97566739D01*
X29196516Y-97544008D01*
X29138628Y-97542251D01*
X29061813Y-97540885D01*
X28990227Y-97540235D01*
X28929101Y-97540302D01*
X28883661Y-97541085D01*
X28861994Y-97542241D01*
X28691522Y-97561387D01*
X28539845Y-97583380D01*
X28400663Y-97609473D01*
X28267673Y-97640917D01*
X28134573Y-97678964D01*
X28069816Y-97699605D01*
X27819357Y-97794778D01*
X27581083Y-97911359D01*
X27356040Y-98048209D01*
X27145273Y-98204188D01*
X26949827Y-98378159D01*
X26770748Y-98568982D01*
X26609083Y-98775517D01*
X26465875Y-98996627D01*
X26342172Y-99231171D01*
X26239018Y-99478011D01*
X26157459Y-99736008D01*
X26140859Y-99800917D01*
X26114964Y-99912121D01*
X26094884Y-100011923D01*
X26079952Y-100106405D01*
X26069500Y-100201648D01*
X26062861Y-100303734D01*
X26059367Y-100418742D01*
X26058352Y-100552700D01*
X26058399Y-100558987D01*
X26718083Y-100558987D01*
X26729771Y-100309204D01*
X26764613Y-100067130D01*
X26822272Y-99833801D01*
X26902415Y-99610256D01*
X27004707Y-99397529D01*
X27128811Y-99196660D01*
X27181798Y-99123419D01*
X27333944Y-98942351D01*
X27503064Y-98779059D01*
X27687488Y-98634439D01*
X27885548Y-98509387D01*
X28095577Y-98404799D01*
X28315905Y-98321571D01*
X28544865Y-98260598D01*
X28780789Y-98222776D01*
X28874568Y-98214477D01*
X28933367Y-98210452D01*
X28984751Y-98206931D01*
X29022360Y-98204352D01*
X29038034Y-98203273D01*
X29059379Y-98203516D01*
X29100411Y-98205389D01*
X29155743Y-98208601D01*
X29219986Y-98212859D01*
X29238519Y-98214176D01*
X29482980Y-98243684D01*
X29717752Y-98295614D01*
X29941790Y-98368917D01*
X30154046Y-98462548D01*
X30353474Y-98575459D01*
X30539028Y-98706604D01*
X30709660Y-98854935D01*
X30864325Y-99019406D01*
X31001976Y-99198970D01*
X31121566Y-99392580D01*
X31222049Y-99599189D01*
X31302379Y-99817751D01*
X31361509Y-100047218D01*
X31398391Y-100286543D01*
X31406561Y-100382947D01*
X31411231Y-100631980D01*
X31392743Y-100874766D01*
X31351789Y-101110060D01*
X31289060Y-101336616D01*
X31205247Y-101553188D01*
X31101042Y-101758531D01*
X30977136Y-101951400D01*
X30834220Y-102130548D01*
X30672986Y-102294731D01*
X30494124Y-102442704D01*
X30298327Y-102573219D01*
X30144306Y-102657151D01*
X29925443Y-102752153D01*
X29698074Y-102824433D01*
X29464505Y-102873974D01*
X29227037Y-102900762D01*
X28987975Y-102904781D01*
X28749624Y-102886015D01*
X28514286Y-102844448D01*
X28284265Y-102780066D01*
X28061866Y-102692852D01*
X28016089Y-102671512D01*
X27806477Y-102557452D01*
X27612891Y-102424649D01*
X27436099Y-102274352D01*
X27276865Y-102107808D01*
X27135958Y-101926264D01*
X27014144Y-101730969D01*
X26912189Y-101523170D01*
X26830859Y-101304113D01*
X26770922Y-101075048D01*
X26733144Y-100837221D01*
X26718290Y-100591879D01*
X26718083Y-100558987D01*
X26058399Y-100558987D01*
X26059369Y-100686535D01*
X26062851Y-100801414D01*
X26069441Y-100903463D01*
X26079781Y-100998806D01*
X26094515Y-101093569D01*
X26114285Y-101193880D01*
X26135581Y-101288294D01*
X26209709Y-101550190D01*
X26305776Y-101800829D01*
X26422745Y-102039189D01*
X26559583Y-102264248D01*
X26715255Y-102474981D01*
X26888728Y-102670367D01*
X27078965Y-102849384D01*
X27284935Y-103011007D01*
X27505600Y-103154216D01*
X27739928Y-103277987D01*
X27986884Y-103381297D01*
X28245434Y-103463124D01*
X28365311Y-103492670D01*
X28468632Y-103515004D01*
X28560079Y-103532290D01*
X28645609Y-103545125D01*
X28731180Y-103554107D01*
X28822752Y-103559832D01*
X28926282Y-103562900D01*
X29047728Y-103563906D01*
X29075756Y-103563912D01*
X29210446Y-103562691D01*
X29326333Y-103558837D01*
X29429687Y-103551685D01*
X29526775Y-103540576D01*
X29623867Y-103524848D01*
X29727231Y-103503838D01*
X29798015Y-103487681D01*
X30043537Y-103418142D01*
X30285325Y-103326794D01*
X30518954Y-103215726D01*
X30739998Y-103087031D01*
X30932353Y-102951849D01*
X31023854Y-102876914D01*
X31122330Y-102788614D01*
X31221262Y-102693292D01*
X31314127Y-102597295D01*
X31394404Y-102506970D01*
X31414313Y-102482848D01*
X31565437Y-102277436D01*
X31699751Y-102056829D01*
X31815729Y-101824546D01*
X31911844Y-101584108D01*
X31986571Y-101339035D01*
X32038384Y-101092846D01*
X32049411Y-101017947D01*
X32056609Y-100965254D01*
X32063310Y-100919337D01*
X32068348Y-100888097D01*
X32069360Y-100882774D01*
X32075196Y-100854482D01*
X35117687Y-100854482D01*
X35117687Y-100884289D01*
X35120332Y-100916760D01*
X35127577Y-100968155D01*
X35138384Y-101032887D01*
X35151719Y-101105371D01*
X35166545Y-101180022D01*
X35181826Y-101251253D01*
X35196525Y-101313479D01*
X35199350Y-101324529D01*
X35276673Y-101572975D01*
X35377347Y-101815397D01*
X35499875Y-102049642D01*
X35642759Y-102273561D01*
X35804503Y-102485003D01*
X35983608Y-102681817D01*
X36178579Y-102861852D01*
X36375811Y-103014453D01*
X36603295Y-103160138D01*
X36841409Y-103283948D01*
X37088390Y-103385638D01*
X37342477Y-103464968D01*
X37601905Y-103521694D01*
X37864913Y-103555575D01*
X38129738Y-103566367D01*
X38394616Y-103553828D01*
X38394616Y-103553828D01*
G37*
X38394616Y-103553828D02*
X38657785Y-103517717D01*
X38917482Y-103457790D01*
X39122588Y-103392165D01*
X39378507Y-103286375D01*
X39622780Y-103158606D01*
X39854198Y-103009761D01*
X40071549Y-102840742D01*
X40273626Y-102652451D01*
X40459218Y-102445791D01*
X40553838Y-102324612D01*
X40587292Y-102279544D01*
X40326884Y-102098276D01*
X40255168Y-102048746D01*
X40189845Y-102004375D01*
X40133858Y-101967102D01*
X40090150Y-101938867D01*
X40061664Y-101921608D01*
X40051762Y-101917007D01*
X40037261Y-101926399D01*
X40013483Y-101951003D01*
X39986035Y-101984900D01*
X39843154Y-102154884D01*
X39680606Y-102312121D01*
X39501396Y-102454742D01*
X39308531Y-102580882D01*
X39105015Y-102688671D01*
X38893856Y-102776243D01*
X38678058Y-102841730D01*
X38568063Y-102865856D01*
X38327397Y-102899337D01*
X38087358Y-102908483D01*
X37849655Y-102893811D01*
X37615997Y-102855839D01*
X37388090Y-102795082D01*
X37167643Y-102712058D01*
X36956366Y-102607284D01*
X36755965Y-102481276D01*
X36568149Y-102334552D01*
X36450423Y-102225132D01*
X36284654Y-102043076D01*
X36140965Y-101849029D01*
X36019311Y-101642898D01*
X35919646Y-101424592D01*
X35841922Y-101194020D01*
X35786094Y-100951090D01*
X35776147Y-100892201D01*
X35764801Y-100795321D01*
X35757874Y-100681917D01*
X35755369Y-100560064D01*
X35757290Y-100437838D01*
X35763638Y-100323316D01*
X35774417Y-100224574D01*
X35775891Y-100214911D01*
X35826265Y-99972207D01*
X35898801Y-99739393D01*
X35992693Y-99517744D01*
X36107136Y-99308536D01*
X36241325Y-99113042D01*
X36394455Y-98932539D01*
X36565722Y-98768301D01*
X36754319Y-98621604D01*
X36802638Y-98588774D01*
X37012385Y-98464675D01*
X37230806Y-98363434D01*
X37456209Y-98285283D01*
X37686900Y-98230453D01*
X37921189Y-98199177D01*
X38157383Y-98191685D01*
X38393791Y-98208210D01*
X38628721Y-98248983D01*
X38845163Y-98309119D01*
X39072899Y-98397312D01*
X39288812Y-98507254D01*
X39491515Y-98637983D01*
X39679623Y-98788539D01*
X39851749Y-98957959D01*
X39955299Y-99078864D01*
X40048700Y-99195671D01*
X40107476Y-99153642D01*
X40136486Y-99133125D01*
X40181750Y-99101392D01*
X40238839Y-99061534D01*
X40303325Y-99016642D01*
X40370583Y-98969946D01*
X40433140Y-98926199D01*
X40487955Y-98887148D01*
X40531901Y-98855082D01*
X40561847Y-98832290D01*
X40574663Y-98821060D01*
X40574915Y-98820498D01*
X40566884Y-98803443D01*
X40544681Y-98771284D01*
X40511142Y-98727441D01*
X40469104Y-98675336D01*
X40421403Y-98618389D01*
X40370874Y-98560023D01*
X40320355Y-98503657D01*
X40272680Y-98452712D01*
X40254808Y-98434381D01*
X40050962Y-98245679D01*
X39834483Y-98078467D01*
X39606336Y-97933150D01*
X39367486Y-97810130D01*
X39118899Y-97709811D01*
X38861541Y-97632599D01*
X38596376Y-97578896D01*
X38324371Y-97549106D01*
X38122935Y-97542691D01*
X37866661Y-97551577D01*
X37624207Y-97578775D01*
X37391106Y-97625334D01*
X37162892Y-97692299D01*
X36935101Y-97780717D01*
X36761826Y-97861751D01*
X36523287Y-97994912D01*
X36299112Y-98148322D01*
X36090456Y-98320833D01*
X35898477Y-98511297D01*
X35724333Y-98718567D01*
X35569180Y-98941494D01*
X35434225Y-99178832D01*
X35321133Y-99425751D01*
X35232155Y-99676306D01*
X35166264Y-99933633D01*
X35140067Y-100075593D01*
X35111868Y-100251018D01*
X32068430Y-100244630D01*
X32058928Y-100156611D01*
X32026014Y-99943509D01*
X31973533Y-99723658D01*
X31903604Y-99503043D01*
X31818346Y-99287651D01*
X31719878Y-99083466D01*
X31616120Y-98905472D01*
X31518409Y-98764180D01*
X31406551Y-98621331D01*
X31285572Y-98482545D01*
X31160499Y-98353442D01*
X31036359Y-98239644D01*
X30977128Y-98190963D01*
X30751789Y-98028930D01*
X30516696Y-97890074D01*
X30271895Y-97774411D01*
X30017431Y-97681956D01*
X29753350Y-97612727D01*
X29479696Y-97566739D01*
X29196516Y-97544008D01*
X29138628Y-97542251D01*
X29061813Y-97540885D01*
X28990227Y-97540235D01*
X28929101Y-97540302D01*
X28883661Y-97541085D01*
X28861994Y-97542241D01*
X28691522Y-97561387D01*
X28539845Y-97583380D01*
X28400663Y-97609473D01*
X28267673Y-97640917D01*
X28134573Y-97678964D01*
X28069816Y-97699605D01*
X27819357Y-97794778D01*
X27581083Y-97911359D01*
X27356040Y-98048209D01*
X27145273Y-98204188D01*
X26949827Y-98378159D01*
X26770748Y-98568982D01*
X26609083Y-98775517D01*
X26465875Y-98996627D01*
X26342172Y-99231171D01*
X26239018Y-99478011D01*
X26157459Y-99736008D01*
X26140859Y-99800917D01*
X26114964Y-99912121D01*
X26094884Y-100011923D01*
X26079952Y-100106405D01*
X26069500Y-100201648D01*
X26062861Y-100303734D01*
X26059367Y-100418742D01*
X26058352Y-100552700D01*
X26058399Y-100558987D01*
X26718083Y-100558987D01*
X26729771Y-100309204D01*
X26764613Y-100067130D01*
X26822272Y-99833801D01*
X26902415Y-99610256D01*
X27004707Y-99397529D01*
X27128811Y-99196660D01*
X27181798Y-99123419D01*
X27333944Y-98942351D01*
X27503064Y-98779059D01*
X27687488Y-98634439D01*
X27885548Y-98509387D01*
X28095577Y-98404799D01*
X28315905Y-98321571D01*
X28544865Y-98260598D01*
X28780789Y-98222776D01*
X28874568Y-98214477D01*
X28933367Y-98210452D01*
X28984751Y-98206931D01*
X29022360Y-98204352D01*
X29038034Y-98203273D01*
X29059379Y-98203516D01*
X29100411Y-98205389D01*
X29155743Y-98208601D01*
X29219986Y-98212859D01*
X29238519Y-98214176D01*
X29482980Y-98243684D01*
X29717752Y-98295614D01*
X29941790Y-98368917D01*
X30154046Y-98462548D01*
X30353474Y-98575459D01*
X30539028Y-98706604D01*
X30709660Y-98854935D01*
X30864325Y-99019406D01*
X31001976Y-99198970D01*
X31121566Y-99392580D01*
X31222049Y-99599189D01*
X31302379Y-99817751D01*
X31361509Y-100047218D01*
X31398391Y-100286543D01*
X31406561Y-100382947D01*
X31411231Y-100631980D01*
X31392743Y-100874766D01*
X31351789Y-101110060D01*
X31289060Y-101336616D01*
X31205247Y-101553188D01*
X31101042Y-101758531D01*
X30977136Y-101951400D01*
X30834220Y-102130548D01*
X30672986Y-102294731D01*
X30494124Y-102442704D01*
X30298327Y-102573219D01*
X30144306Y-102657151D01*
X29925443Y-102752153D01*
X29698074Y-102824433D01*
X29464505Y-102873974D01*
X29227037Y-102900762D01*
X28987975Y-102904781D01*
X28749624Y-102886015D01*
X28514286Y-102844448D01*
X28284265Y-102780066D01*
X28061866Y-102692852D01*
X28016089Y-102671512D01*
X27806477Y-102557452D01*
X27612891Y-102424649D01*
X27436099Y-102274352D01*
X27276865Y-102107808D01*
X27135958Y-101926264D01*
X27014144Y-101730969D01*
X26912189Y-101523170D01*
X26830859Y-101304113D01*
X26770922Y-101075048D01*
X26733144Y-100837221D01*
X26718290Y-100591879D01*
X26718083Y-100558987D01*
X26058399Y-100558987D01*
X26059369Y-100686535D01*
X26062851Y-100801414D01*
X26069441Y-100903463D01*
X26079781Y-100998806D01*
X26094515Y-101093569D01*
X26114285Y-101193880D01*
X26135581Y-101288294D01*
X26209709Y-101550190D01*
X26305776Y-101800829D01*
X26422745Y-102039189D01*
X26559583Y-102264248D01*
X26715255Y-102474981D01*
X26888728Y-102670367D01*
X27078965Y-102849384D01*
X27284935Y-103011007D01*
X27505600Y-103154216D01*
X27739928Y-103277987D01*
X27986884Y-103381297D01*
X28245434Y-103463124D01*
X28365311Y-103492670D01*
X28468632Y-103515004D01*
X28560079Y-103532290D01*
X28645609Y-103545125D01*
X28731180Y-103554107D01*
X28822752Y-103559832D01*
X28926282Y-103562900D01*
X29047728Y-103563906D01*
X29075756Y-103563912D01*
X29210446Y-103562691D01*
X29326333Y-103558837D01*
X29429687Y-103551685D01*
X29526775Y-103540576D01*
X29623867Y-103524848D01*
X29727231Y-103503838D01*
X29798015Y-103487681D01*
X30043537Y-103418142D01*
X30285325Y-103326794D01*
X30518954Y-103215726D01*
X30739998Y-103087031D01*
X30932353Y-102951849D01*
X31023854Y-102876914D01*
X31122330Y-102788614D01*
X31221262Y-102693292D01*
X31314127Y-102597295D01*
X31394404Y-102506970D01*
X31414313Y-102482848D01*
X31565437Y-102277436D01*
X31699751Y-102056829D01*
X31815729Y-101824546D01*
X31911844Y-101584108D01*
X31986571Y-101339035D01*
X32038384Y-101092846D01*
X32049411Y-101017947D01*
X32056609Y-100965254D01*
X32063310Y-100919337D01*
X32068348Y-100888097D01*
X32069360Y-100882774D01*
X32075196Y-100854482D01*
X35117687Y-100854482D01*
X35117687Y-100884289D01*
X35120332Y-100916760D01*
X35127577Y-100968155D01*
X35138384Y-101032887D01*
X35151719Y-101105371D01*
X35166545Y-101180022D01*
X35181826Y-101251253D01*
X35196525Y-101313479D01*
X35199350Y-101324529D01*
X35276673Y-101572975D01*
X35377347Y-101815397D01*
X35499875Y-102049642D01*
X35642759Y-102273561D01*
X35804503Y-102485003D01*
X35983608Y-102681817D01*
X36178579Y-102861852D01*
X36375811Y-103014453D01*
X36603295Y-103160138D01*
X36841409Y-103283948D01*
X37088390Y-103385638D01*
X37342477Y-103464968D01*
X37601905Y-103521694D01*
X37864913Y-103555575D01*
X38129738Y-103566367D01*
X38394616Y-103553828D01*
G36*
X47285217Y-103567348D02*
G01*
X47394384Y-103563139D01*
X47447641Y-103559161D01*
X47715822Y-103522618D01*
X47979018Y-103463308D01*
X48234981Y-103382146D01*
X48481463Y-103280046D01*
X48716215Y-103157924D01*
X48936990Y-103016693D01*
X49112836Y-102881592D01*
X49311961Y-102699050D01*
X49492403Y-102500088D01*
X49653381Y-102285946D01*
X49794115Y-102057862D01*
X49913828Y-101817077D01*
X50011740Y-101564831D01*
X50074996Y-101351151D01*
X50128758Y-101096387D01*
X50161962Y-100834575D01*
X50174517Y-100570174D01*
X50166330Y-100307643D01*
X50137310Y-100051443D01*
X50105247Y-99881389D01*
X50033452Y-99612638D01*
X49940036Y-99355527D01*
X49825629Y-99110990D01*
X49690861Y-98879965D01*
X49536362Y-98663389D01*
X49362763Y-98462199D01*
X49170692Y-98277330D01*
X48960780Y-98109720D01*
X48872226Y-98047896D01*
X48640424Y-97907029D01*
X48398435Y-97788913D01*
X48145734Y-97693345D01*
X47881794Y-97620126D01*
X47625467Y-97571866D01*
X47561026Y-97563957D01*
X47481437Y-97556697D01*
X47392038Y-97550327D01*
X47298167Y-97545086D01*
X47205164Y-97541216D01*
X47118367Y-97538955D01*
X47043115Y-97538545D01*
X46984746Y-97540226D01*
X46962638Y-97542030D01*
X46931426Y-97545467D01*
X46882913Y-97550681D01*
X46824811Y-97556846D01*
X46786598Y-97560863D01*
X46538125Y-97598911D01*
X46289307Y-97660303D01*
X46043732Y-97743546D01*
X45804989Y-97847145D01*
X45576664Y-97969604D01*
X45362345Y-98109431D01*
X45233677Y-98207759D01*
X45151623Y-98278346D01*
X45061755Y-98362115D01*
X44970869Y-98452292D01*
X44885767Y-98542105D01*
X44813245Y-98624779D01*
X44804706Y-98635125D01*
X44657907Y-98833522D01*
X44526996Y-99049445D01*
X44413232Y-99279965D01*
X44317871Y-99522153D01*
X44242173Y-99773080D01*
X44187396Y-100029818D01*
X44176777Y-100096883D01*
X44154138Y-100250918D01*
X41823439Y-100250918D01*
X41528917Y-100250887D01*
X41258634Y-100250792D01*
X41011680Y-100250625D01*
X40787146Y-100250382D01*
X40584122Y-100250055D01*
X40401699Y-100249639D01*
X40238966Y-100249127D01*
X40095015Y-100248514D01*
X39968936Y-100247793D01*
X39859819Y-100246958D01*
X39766754Y-100246003D01*
X39688833Y-100244922D01*
X39625145Y-100243708D01*
X39574781Y-100242357D01*
X39536831Y-100240860D01*
X39510386Y-100239214D01*
X39494536Y-100237410D01*
X39488371Y-100235444D01*
X39488240Y-100235200D01*
X39437533Y-100076279D01*
X39381465Y-99937822D01*
X39317553Y-99815309D01*
X39243317Y-99704222D01*
X39156275Y-99600040D01*
X39116907Y-99558875D01*
X38981632Y-99439432D01*
X38834196Y-99340485D01*
X38676893Y-99262039D01*
X38512018Y-99204096D01*
X38341866Y-99166660D01*
X38168732Y-99149734D01*
X37994910Y-99153321D01*
X37822696Y-99177425D01*
X37654383Y-99222050D01*
X37492267Y-99287197D01*
X37338643Y-99372871D01*
X37195805Y-99479075D01*
X37112913Y-99555995D01*
X36990899Y-99694439D01*
X36892085Y-99840408D01*
X36815093Y-99996093D01*
X36783746Y-100080064D01*
X36735158Y-100261627D01*
X36709933Y-100444542D01*
X36708515Y-100548356D01*
X44812440Y-100548356D01*
X44823121Y-100305110D01*
X44855559Y-100072798D01*
X44910340Y-99848777D01*
X44988054Y-99630403D01*
X45045088Y-99502749D01*
X45158476Y-99295165D01*
X45291102Y-99102922D01*
X45441637Y-98926886D01*
X45608753Y-98767925D01*
X45791121Y-98626906D01*
X45987413Y-98504698D01*
X46196300Y-98402167D01*
X46416453Y-98320180D01*
X46646545Y-98259606D01*
X46885245Y-98221312D01*
X47025509Y-98209738D01*
X47070853Y-98207174D01*
X47110464Y-98204780D01*
X47126103Y-98203750D01*
X47149996Y-98203815D01*
X47193256Y-98205553D01*
X47250177Y-98208679D01*
X47315055Y-98212908D01*
X47329446Y-98213931D01*
X47576302Y-98243603D01*
X47813175Y-98295753D01*
X48039039Y-98369491D01*
X48252869Y-98463928D01*
X48453638Y-98578172D01*
X48640322Y-98711334D01*
X48811894Y-98862524D01*
X48967330Y-99030851D01*
X49105603Y-99215426D01*
X49225688Y-99415358D01*
X49326559Y-99629758D01*
X49407191Y-99857735D01*
X49459213Y-100062304D01*
X49475138Y-100156677D01*
X49487698Y-100269004D01*
X49496613Y-100392282D01*
X49501604Y-100519505D01*
X49502391Y-100643670D01*
X49498695Y-100757773D01*
X49490696Y-100851128D01*
X49448539Y-101097273D01*
X49384210Y-101332043D01*
X49298106Y-101554785D01*
X49190626Y-101764847D01*
X49062168Y-101961574D01*
X48913129Y-102144313D01*
X48743909Y-102312412D01*
X48554905Y-102465217D01*
X48471548Y-102523454D01*
X48279230Y-102637339D01*
X48073492Y-102731515D01*
X47856934Y-102805659D01*
X47632155Y-102859445D01*
X47401756Y-102892551D01*
X47168337Y-102904652D01*
X46934497Y-102895426D01*
X46702838Y-102864547D01*
X46475958Y-102811693D01*
X46384222Y-102783363D01*
X46160800Y-102696325D01*
X45950958Y-102588714D01*
X45755643Y-102461704D01*
X45575806Y-102316469D01*
X45412394Y-102154183D01*
X45266356Y-101976019D01*
X45138641Y-101783151D01*
X45030196Y-101576753D01*
X44941972Y-101357999D01*
X44874916Y-101128063D01*
X44829977Y-100888118D01*
X44825630Y-100854812D01*
X44820892Y-100803126D01*
X44816909Y-100734114D01*
X44814017Y-100655594D01*
X44812552Y-100575384D01*
X44812440Y-100548356D01*
X36708515Y-100548356D01*
X36707445Y-100626643D01*
X36727065Y-100805764D01*
X36768164Y-100979739D01*
X36830116Y-101146404D01*
X36912292Y-101303592D01*
X37014065Y-101449137D01*
X37134805Y-101580874D01*
X37246571Y-101676347D01*
X37397642Y-101776151D01*
X37559542Y-101854589D01*
X37729737Y-101911597D01*
X37905689Y-101947112D01*
X38084862Y-101961070D01*
X38264722Y-101953408D01*
X38442732Y-101924063D01*
X38616356Y-101872972D01*
X38783058Y-101800069D01*
X38921400Y-101718239D01*
X38962924Y-101687413D01*
X39014297Y-101645058D01*
X39067833Y-101597670D01*
X39100495Y-101566909D01*
X39209231Y-101449330D01*
X39300656Y-101323245D01*
X39376901Y-101184832D01*
X39440094Y-101030268D01*
X39488619Y-100870200D01*
X39493646Y-100868214D01*
X39508248Y-100866392D01*
X39533334Y-100864727D01*
X39569813Y-100863214D01*
X39618596Y-100861846D01*
X39680591Y-100860616D01*
X39756708Y-100859520D01*
X39847856Y-100858550D01*
X39954945Y-100857702D01*
X40078884Y-100856967D01*
X40220582Y-100856341D01*
X40380948Y-100855818D01*
X40560893Y-100855390D01*
X40761325Y-100855053D01*
X40983154Y-100854800D01*
X41227290Y-100854624D01*
X41494641Y-100854521D01*
X41786117Y-100854482D01*
X44156109Y-100854482D01*
X44164737Y-100933071D01*
X44187783Y-101090756D01*
X44222688Y-101260053D01*
X44267115Y-101431814D01*
X44318731Y-101596890D01*
X44367360Y-101727193D01*
X44481657Y-101974995D01*
X44615906Y-102208140D01*
X44769067Y-102425821D01*
X44940099Y-102627232D01*
X45127963Y-102811566D01*
X45331619Y-102978014D01*
X45550025Y-103125770D01*
X45782143Y-103254026D01*
X46026933Y-103361976D01*
X46283353Y-103448812D01*
X46550365Y-103513727D01*
X46703196Y-103540065D01*
X46799484Y-103551326D01*
X46913313Y-103559876D01*
X47037200Y-103565525D01*
X47163662Y-103568080D01*
X47285217Y-103567348D01*
X47285217Y-103567348D01*
G37*
X47285217Y-103567348D02*
X47394384Y-103563139D01*
X47447641Y-103559161D01*
X47715822Y-103522618D01*
X47979018Y-103463308D01*
X48234981Y-103382146D01*
X48481463Y-103280046D01*
X48716215Y-103157924D01*
X48936990Y-103016693D01*
X49112836Y-102881592D01*
X49311961Y-102699050D01*
X49492403Y-102500088D01*
X49653381Y-102285946D01*
X49794115Y-102057862D01*
X49913828Y-101817077D01*
X50011740Y-101564831D01*
X50074996Y-101351151D01*
X50128758Y-101096387D01*
X50161962Y-100834575D01*
X50174517Y-100570174D01*
X50166330Y-100307643D01*
X50137310Y-100051443D01*
X50105247Y-99881389D01*
X50033452Y-99612638D01*
X49940036Y-99355527D01*
X49825629Y-99110990D01*
X49690861Y-98879965D01*
X49536362Y-98663389D01*
X49362763Y-98462199D01*
X49170692Y-98277330D01*
X48960780Y-98109720D01*
X48872226Y-98047896D01*
X48640424Y-97907029D01*
X48398435Y-97788913D01*
X48145734Y-97693345D01*
X47881794Y-97620126D01*
X47625467Y-97571866D01*
X47561026Y-97563957D01*
X47481437Y-97556697D01*
X47392038Y-97550327D01*
X47298167Y-97545086D01*
X47205164Y-97541216D01*
X47118367Y-97538955D01*
X47043115Y-97538545D01*
X46984746Y-97540226D01*
X46962638Y-97542030D01*
X46931426Y-97545467D01*
X46882913Y-97550681D01*
X46824811Y-97556846D01*
X46786598Y-97560863D01*
X46538125Y-97598911D01*
X46289307Y-97660303D01*
X46043732Y-97743546D01*
X45804989Y-97847145D01*
X45576664Y-97969604D01*
X45362345Y-98109431D01*
X45233677Y-98207759D01*
X45151623Y-98278346D01*
X45061755Y-98362115D01*
X44970869Y-98452292D01*
X44885767Y-98542105D01*
X44813245Y-98624779D01*
X44804706Y-98635125D01*
X44657907Y-98833522D01*
X44526996Y-99049445D01*
X44413232Y-99279965D01*
X44317871Y-99522153D01*
X44242173Y-99773080D01*
X44187396Y-100029818D01*
X44176777Y-100096883D01*
X44154138Y-100250918D01*
X41823439Y-100250918D01*
X41528917Y-100250887D01*
X41258634Y-100250792D01*
X41011680Y-100250625D01*
X40787146Y-100250382D01*
X40584122Y-100250055D01*
X40401699Y-100249639D01*
X40238966Y-100249127D01*
X40095015Y-100248514D01*
X39968936Y-100247793D01*
X39859819Y-100246958D01*
X39766754Y-100246003D01*
X39688833Y-100244922D01*
X39625145Y-100243708D01*
X39574781Y-100242357D01*
X39536831Y-100240860D01*
X39510386Y-100239214D01*
X39494536Y-100237410D01*
X39488371Y-100235444D01*
X39488240Y-100235200D01*
X39437533Y-100076279D01*
X39381465Y-99937822D01*
X39317553Y-99815309D01*
X39243317Y-99704222D01*
X39156275Y-99600040D01*
X39116907Y-99558875D01*
X38981632Y-99439432D01*
X38834196Y-99340485D01*
X38676893Y-99262039D01*
X38512018Y-99204096D01*
X38341866Y-99166660D01*
X38168732Y-99149734D01*
X37994910Y-99153321D01*
X37822696Y-99177425D01*
X37654383Y-99222050D01*
X37492267Y-99287197D01*
X37338643Y-99372871D01*
X37195805Y-99479075D01*
X37112913Y-99555995D01*
X36990899Y-99694439D01*
X36892085Y-99840408D01*
X36815093Y-99996093D01*
X36783746Y-100080064D01*
X36735158Y-100261627D01*
X36709933Y-100444542D01*
X36708515Y-100548356D01*
X44812440Y-100548356D01*
X44823121Y-100305110D01*
X44855559Y-100072798D01*
X44910340Y-99848777D01*
X44988054Y-99630403D01*
X45045088Y-99502749D01*
X45158476Y-99295165D01*
X45291102Y-99102922D01*
X45441637Y-98926886D01*
X45608753Y-98767925D01*
X45791121Y-98626906D01*
X45987413Y-98504698D01*
X46196300Y-98402167D01*
X46416453Y-98320180D01*
X46646545Y-98259606D01*
X46885245Y-98221312D01*
X47025509Y-98209738D01*
X47070853Y-98207174D01*
X47110464Y-98204780D01*
X47126103Y-98203750D01*
X47149996Y-98203815D01*
X47193256Y-98205553D01*
X47250177Y-98208679D01*
X47315055Y-98212908D01*
X47329446Y-98213931D01*
X47576302Y-98243603D01*
X47813175Y-98295753D01*
X48039039Y-98369491D01*
X48252869Y-98463928D01*
X48453638Y-98578172D01*
X48640322Y-98711334D01*
X48811894Y-98862524D01*
X48967330Y-99030851D01*
X49105603Y-99215426D01*
X49225688Y-99415358D01*
X49326559Y-99629758D01*
X49407191Y-99857735D01*
X49459213Y-100062304D01*
X49475138Y-100156677D01*
X49487698Y-100269004D01*
X49496613Y-100392282D01*
X49501604Y-100519505D01*
X49502391Y-100643670D01*
X49498695Y-100757773D01*
X49490696Y-100851128D01*
X49448539Y-101097273D01*
X49384210Y-101332043D01*
X49298106Y-101554785D01*
X49190626Y-101764847D01*
X49062168Y-101961574D01*
X48913129Y-102144313D01*
X48743909Y-102312412D01*
X48554905Y-102465217D01*
X48471548Y-102523454D01*
X48279230Y-102637339D01*
X48073492Y-102731515D01*
X47856934Y-102805659D01*
X47632155Y-102859445D01*
X47401756Y-102892551D01*
X47168337Y-102904652D01*
X46934497Y-102895426D01*
X46702838Y-102864547D01*
X46475958Y-102811693D01*
X46384222Y-102783363D01*
X46160800Y-102696325D01*
X45950958Y-102588714D01*
X45755643Y-102461704D01*
X45575806Y-102316469D01*
X45412394Y-102154183D01*
X45266356Y-101976019D01*
X45138641Y-101783151D01*
X45030196Y-101576753D01*
X44941972Y-101357999D01*
X44874916Y-101128063D01*
X44829977Y-100888118D01*
X44825630Y-100854812D01*
X44820892Y-100803126D01*
X44816909Y-100734114D01*
X44814017Y-100655594D01*
X44812552Y-100575384D01*
X44812440Y-100548356D01*
X36708515Y-100548356D01*
X36707445Y-100626643D01*
X36727065Y-100805764D01*
X36768164Y-100979739D01*
X36830116Y-101146404D01*
X36912292Y-101303592D01*
X37014065Y-101449137D01*
X37134805Y-101580874D01*
X37246571Y-101676347D01*
X37397642Y-101776151D01*
X37559542Y-101854589D01*
X37729737Y-101911597D01*
X37905689Y-101947112D01*
X38084862Y-101961070D01*
X38264722Y-101953408D01*
X38442732Y-101924063D01*
X38616356Y-101872972D01*
X38783058Y-101800069D01*
X38921400Y-101718239D01*
X38962924Y-101687413D01*
X39014297Y-101645058D01*
X39067833Y-101597670D01*
X39100495Y-101566909D01*
X39209231Y-101449330D01*
X39300656Y-101323245D01*
X39376901Y-101184832D01*
X39440094Y-101030268D01*
X39488619Y-100870200D01*
X39493646Y-100868214D01*
X39508248Y-100866392D01*
X39533334Y-100864727D01*
X39569813Y-100863214D01*
X39618596Y-100861846D01*
X39680591Y-100860616D01*
X39756708Y-100859520D01*
X39847856Y-100858550D01*
X39954945Y-100857702D01*
X40078884Y-100856967D01*
X40220582Y-100856341D01*
X40380948Y-100855818D01*
X40560893Y-100855390D01*
X40761325Y-100855053D01*
X40983154Y-100854800D01*
X41227290Y-100854624D01*
X41494641Y-100854521D01*
X41786117Y-100854482D01*
X44156109Y-100854482D01*
X44164737Y-100933071D01*
X44187783Y-101090756D01*
X44222688Y-101260053D01*
X44267115Y-101431814D01*
X44318731Y-101596890D01*
X44367360Y-101727193D01*
X44481657Y-101974995D01*
X44615906Y-102208140D01*
X44769067Y-102425821D01*
X44940099Y-102627232D01*
X45127963Y-102811566D01*
X45331619Y-102978014D01*
X45550025Y-103125770D01*
X45782143Y-103254026D01*
X46026933Y-103361976D01*
X46283353Y-103448812D01*
X46550365Y-103513727D01*
X46703196Y-103540065D01*
X46799484Y-103551326D01*
X46913313Y-103559876D01*
X47037200Y-103565525D01*
X47163662Y-103568080D01*
X47285217Y-103567348D01*
G36*
X30578380Y-100250918D02*
G01*
X27560558Y-100250918D01*
X27560558Y-100854482D01*
X30578380Y-100854482D01*
X30578380Y-100250918D01*
X30578380Y-100250918D01*
G37*
X30578380Y-100250918D02*
X27560558Y-100250918D01*
X27560558Y-100854482D01*
X30578380Y-100854482D01*
X30578380Y-100250918D01*
G36*
X47465608Y-100854482D02*
G01*
X48672737Y-100854482D01*
X48672737Y-100250918D01*
X47465608Y-100250918D01*
X47465608Y-99043789D01*
X46862044Y-99043789D01*
X46862044Y-100250918D01*
X45654915Y-100250918D01*
X45654915Y-100854238D01*
X46255336Y-100857504D01*
X46855756Y-100860769D01*
X46859022Y-101461190D01*
X46862287Y-102061611D01*
X47465608Y-102061611D01*
X47465608Y-100854482D01*
X47465608Y-100854482D01*
G37*
X47465608Y-100854482D02*
X48672737Y-100854482D01*
X48672737Y-100250918D01*
X47465608Y-100250918D01*
X47465608Y-99043789D01*
X46862044Y-99043789D01*
X46862044Y-100250918D01*
X45654915Y-100250918D01*
X45654915Y-100854238D01*
X46255336Y-100857504D01*
X46855756Y-100860769D01*
X46859022Y-101461190D01*
X46862287Y-102061611D01*
X47465608Y-102061611D01*
X47465608Y-100854482D01*
M02*
