M48
; DRILL file {KiCad (5.1.0-0)} date Saturday, 20 April 2019 at 13:40:05
; FORMAT={-:-/ absolute / metric / decimal}
; #@! TF.CreationDate,2019-04-20T13:40:05+09:00
; #@! TF.GenerationSoftware,Kicad,Pcbnew,(5.1.0-0)
FMAT,2
METRIC
T1C0.300
T2C0.500
T3C0.600
T4C0.700
T5C0.800
T6C0.900
T7C1.000
T8C1.097
T9C1.300
T10C3.200
T11C1.800
%
G90
G05
T1
X28.334Y-89.91
X32.092Y-30.091
X34.186Y-67.609
X40.307Y-52.585
X42.137Y-40.703
X43.795Y-54.604
X45.542Y-54.551
X47.122Y-47.511
X49.627Y-46.726
X51.262Y-86.159
X51.532Y-87.137
X51.582Y-45.344
X51.791Y-68.688
X51.829Y-34.531
X51.829Y-38.826
X53.044Y-107.029
X54.085Y-93.087
X54.122Y-78.786
X54.326Y-87.809
X55.874Y-108.308
X56.408Y-78.77
X56.769Y-89.174
X57.457Y-82.926
X57.721Y-86.423
X57.805Y-89.443
X57.912Y-84.836
X58.852Y-46.12
X58.877Y-85.164
X58.949Y-86.65
X58.995Y-89.754
X59.593Y-68.047
X59.665Y-55.148
X59.835Y-82.892
X60.295Y-93.728
X60.45Y-85.6
X60.714Y-63.617
X61.646Y-93.136
X62.534Y-89.734
X63.244Y-72.632
X63.279Y-90.324
X63.294Y-82.063
X63.563Y-55.169
X64.115Y-69.752
X64.239Y-52.278
X64.378Y-72.649
X64.381Y-74.554
X65.405Y-87.376
X65.507Y-47.566
X66.423Y-90.202
X66.424Y-74.541
X66.465Y-85.797
X67.203Y-43.434
X68.58Y-87.37
X71.016Y-72.572
X71.12Y-78.238
X73.13Y-91.244
X74.376Y-97.051
X74.403Y-99.441
X74.841Y-61.3
X75.084Y-63.772
X75.948Y-44.008
X76.576Y-50.317
X79.037Y-70.192
X80.747Y-85.912
X82.318Y-47.176
X84.981Y-62.448
X85.09Y-51.34
X86.025Y-76.745
X87.902Y-50.187
X90.333Y-47.068
X95.705Y-48.541
X97.587Y-92.577
X97.72Y-81.345
X98.026Y-86.899
X99.035Y-87.098
X99.106Y-91.152
X100.152Y-85.865
X101.387Y-85.75
X101.536Y-66.103
X102.489Y-86.614
X103.479Y-65.533
X103.921Y-67.909
X104.252Y-70.332
X104.521Y-85.471
X104.78Y-99.732
X108.755Y-99.732
X111.117Y-72.401
X111.256Y-113.43
X112.133Y-73.69
X112.237Y-82.808
X112.268Y-68.413
X112.268Y-69.763
X116.126Y-102.445
X121.449Y-31.421
X122.919Y-113.529
T2
X25.286Y-117.856
X25.989Y-116.159
X25.989Y-119.553
X27.686Y-115.456
X27.686Y-120.256
X29.383Y-116.159
X29.383Y-119.553
X30.086Y-117.856
T3
X28.734Y-39.878
X30.734Y-39.878
X48.006Y-36.576
X50.006Y-36.576
X45.136Y-50.121
X45.136Y-52.121
X49.022Y-43.212
X49.022Y-45.212
T4
X61.138Y-116.796
X63.678Y-114.256
X66.218Y-116.796
X71.044Y-116.796
X73.584Y-114.256
X76.124Y-116.796
X51.232Y-116.796
X53.772Y-114.256
X56.312Y-116.796
T5
X32.797Y-76.374
X37.797Y-76.374
X116.84Y-38.875
X116.84Y-40.875
X62.992Y-39.079
X62.992Y-41.079
X94.008Y-39.041
X94.008Y-41.041
X100.076Y-102.362
X100.076Y-107.362
X38.862Y-84.154
X38.862Y-89.154
X76.02Y-82.397
X76.02Y-87.277
X84.912Y-39.023
X84.912Y-41.023
T6
X106.841Y-118.692
X109.341Y-118.692
X111.841Y-118.692
T7
X44.196Y-118.872
X46.736Y-118.872
X85.344Y-114.808
X85.344Y-117.348
X87.884Y-114.808
X87.884Y-117.348
X90.424Y-114.808
X90.424Y-117.348
X92.964Y-114.808
X92.964Y-117.348
X95.504Y-114.808
X95.504Y-117.348
X106.299Y-53.594
X106.299Y-56.134
X106.299Y-58.674
X106.299Y-61.214
X106.299Y-63.754
X116.586Y-53.594
X116.586Y-56.134
X116.586Y-58.674
X116.586Y-61.214
X116.586Y-63.754
X116.586Y-66.294
X116.586Y-68.834
X116.586Y-71.374
X116.586Y-73.914
X116.586Y-76.454
X119.126Y-53.594
X119.126Y-56.134
X119.126Y-58.674
X119.126Y-61.214
X119.126Y-63.754
X119.126Y-66.294
X119.126Y-68.834
X119.126Y-71.374
X119.126Y-73.914
X119.126Y-76.454
X114.808Y-89.662
X117.348Y-89.662
X106.299Y-66.294
X106.299Y-68.834
X106.299Y-71.374
X108.839Y-53.594
X108.839Y-56.134
X108.839Y-58.674
X108.839Y-61.214
X108.839Y-63.754
X108.839Y-66.294
X108.839Y-68.834
X108.839Y-71.374
X120.396Y-96.52
X120.396Y-99.06
X114.808Y-85.344
X117.348Y-85.344
X120.396Y-107.188
X120.396Y-109.728
T8
X60.452Y-107.188
X62.992Y-107.188
X65.532Y-107.188
X68.072Y-107.188
X70.612Y-107.188
X73.152Y-107.188
T10
X120.142Y-25.4
X27.686Y-117.856
X119.888Y-117.856
X27.432Y-25.4
T7
G00X36.322Y-30.594
M15
G01X36.322Y-29.094
M16
G05
G00X83.322Y-30.594
M15
G01X83.322Y-29.094
M16
G05
G00X35.322Y-107.95
M15
G01X37.322Y-107.95
M16
G05
G00X35.322Y-113.95
M15
G01X37.322Y-113.95
M16
G05
G00X41.022Y-111.95
M15
G01X41.022Y-109.95
M16
G05
G00X111.322Y-30.594
M15
G01X111.322Y-29.094
M16
G05
G00X69.322Y-30.594
M15
G01X69.322Y-29.094
M16
G05
G00X50.322Y-30.658
M15
G01X50.322Y-29.158
M16
G05
G00X97.322Y-30.594
M15
G01X97.322Y-29.094
M16
G05
T9
G00X68.722Y-25.844
M15
G01X69.922Y-25.844
M16
G05
G00X49.722Y-25.908
M15
G01X50.922Y-25.908
M16
G05
G00X82.722Y-25.844
M15
G01X83.922Y-25.844
M16
G05
G00X96.722Y-25.844
M15
G01X97.922Y-25.844
M16
G05
G00X35.722Y-25.844
M15
G01X36.922Y-25.844
M16
G05
G00X110.722Y-25.844
M15
G01X111.922Y-25.844
M16
G05
T11
G00X93.072Y-21.844
M15
G01X93.072Y-22.744
M16
G05
G00X32.072Y-21.844
M15
G01X32.072Y-22.744
M16
G05
G00X40.572Y-21.844
M15
G01X40.572Y-22.744
M16
G05
G00X107.072Y-21.844
M15
G01X107.072Y-22.744
M16
G05
G00X115.572Y-21.844
M15
G01X115.572Y-22.744
M16
G05
G00X46.072Y-21.908
M15
G01X46.072Y-22.808
M16
G05
G00X54.572Y-21.908
M15
G01X54.572Y-22.808
M16
G05
G00X79.072Y-21.844
M15
G01X79.072Y-22.744
M16
G05
G00X87.572Y-21.844
M15
G01X87.572Y-22.744
M16
G05
G00X101.572Y-21.844
M15
G01X101.572Y-22.744
M16
G05
G00X65.072Y-21.844
M15
G01X65.072Y-22.744
M16
G05
G00X73.572Y-21.844
M15
G01X73.572Y-22.744
M16
G05
T0
M30
